<?xml version="1.0" standalone="no"?><!DOCTYPE svg PUBLIC "-//W3C//DTD SVG 1.1//EN" "http://www.w3.org/Graphics/SVG/1.1/DTD/svg11.dtd"><svg width="100%" height="100%" viewBox="0 0 1616 836" version="1.1" xmlns="http://www.w3.org/2000/svg" xmlns:xlink="http://www.w3.org/1999/xlink" xml:space="preserve" style="fill-rule:evenodd;clip-rule:evenodd;stroke-linejoin:round;stroke-miterlimit:1.41421;"><clipPath id="_clip1"><rect id="ArtBoard1" x="-103.2" y="-2.64" width="1785.83" height="841.89"/></clipPath><g clip-path="url(#_clip1)"><clipPath id="_clip2"><circle cx="789.713" cy="750.96" r="572.64"/></clipPath><g clip-path="url(#_clip2)"><g id="Hintergrund"><clipPath id="_clip3"><rect x="739.68" y="426.225" width="232.313" height="355.785"/></clipPath><g clip-path="url(#_clip3)"><g><path id="Paul" d="M601.906,587.26l0,12.585l165.567,-9.046l29.496,-138.038l16.124,82.587l10.225,0l40.507,-74.359l81.801,155.373l0,39.327l39.72,11.012l3.933,-105.397l106.97,15.731l51.125,39.327l19.27,62.137l0,97.138l-197.029,0l0,-76.295l-11.798,-3.539l-9.439,10.054l0,69.78l-622.942,0l0,-132.926l1.966,0l0,-10.618l-1.966,0l0,-4.719l37.36,-11.012l0,-10.225l9.832,-6.292l0,-5.9l12.585,-6.685l0,-4.719l59.777,-12.585l0,-5.506l43.653,-11.012l41.687,11.012l0,5.506l60.564,9.832l0,7.472l11.012,0ZM512.24,699.342l-42.867,0l0,72.362l42.867,0l0,-72.362ZM873.386,622.719c0.135,0.1 0.276,0.192 0.404,0.3c0.004,0.003 0.307,0.347 0.309,0.35c0.258,0.293 0.514,0.587 0.769,0.883c0.716,0.832 1.42,1.674 2.111,2.526c2.457,3.03 4.756,6.187 6.897,9.446c2.854,4.344 5.43,8.867 7.748,13.518c1.964,3.94 3.743,7.97 5.356,12.065c1.657,4.204 3.136,8.477 4.462,12.796c0.576,1.878 1.121,3.765 1.641,5.659l0.075,0.273l0.043,0.324l0,81.8l-0.093,0.47l-0.267,0.399c-0.396,0.265 -0.402,0.267 -0.869,0.36l-0.47,-0.093c-0.345,-0.231 -0.497,-0.259 -0.665,-0.666c-0.061,-0.147 -0.062,-0.313 -0.094,-0.47l0,-81.636c-0.641,-2.347 -1.326,-4.683 -2.057,-7.004c-1.973,-6.267 -4.284,-12.43 -6.996,-18.416c-2.14,-4.722 -4.531,-9.333 -7.199,-13.779c-0.82,-1.367 -1.666,-2.718 -2.539,-4.052c-1.032,-1.577 -2.101,-3.13 -3.207,-4.655c-1.318,-1.816 -2.688,-3.593 -4.112,-5.326c-0.583,-0.71 -1.176,-1.413 -1.777,-2.108l-0.025,-0.029c-1.11,1.173 -2.194,2.371 -3.254,3.589c-3.342,3.838 -6.431,7.897 -9.212,12.16c-2.63,4.031 -4.982,8.243 -7.022,12.603c-2.315,4.946 -4.226,10.08 -5.723,15.333c-0.739,2.59 -1.377,5.209 -1.918,7.848c-0.247,1.207 -0.472,2.418 -0.681,3.632l-0.024,0.143l0,81.697l-0.093,0.47c-0.231,0.345 -0.259,0.497 -0.666,0.666c-0.147,0.061 -0.313,0.062 -0.47,0.093l-0.47,-0.093c-0.396,-0.265 -0.401,-0.269 -0.665,-0.666l-0.094,-0.47l0,-81.8l0.017,-0.206c0.294,-1.736 0.624,-3.466 0.997,-5.188c0.637,-2.935 1.392,-5.845 2.269,-8.718c1.808,-5.919 4.136,-11.678 6.962,-17.184c1.047,-2.039 2.16,-4.043 3.337,-6.01c1.914,-3.195 3.996,-6.289 6.226,-9.271c2.034,-2.719 4.191,-5.346 6.455,-7.877c0.978,-1.093 1.977,-2.167 2.992,-3.225l0.191,-0.198l0.416,-0.284l0.495,-0.093c0.163,0.038 0.327,0.076 0.49,0.114ZM857.139,723.332l31.855,0l0,-42.473c-3.761,-11.759 -9.509,-18.239 -16.124,-22.417c-9.778,5.433 -14.697,13.051 -15.731,22.417l0,42.473ZM774.159,655.689l89.666,-171.86l79.441,149.837l-18.877,-7.866l-60.564,-106.183l-62.53,110.116l0,-15.534l-27.136,41.49ZM561.867,614.002l24.669,8.652l0,4.916l9.25,3.343l1.927,11.012l166.125,0l14.647,-22.024l-185.012,0l0,-12.191l-10.021,0l0,-5.899l-58.202,-11.405l-1.927,-5.899l-37.773,-11.798l-39.7,9.438l-1.928,8.259l-58.201,13.765l0,8.258l-10.792,0l0,10.225l-10.022,0l0,17.698l-2.698,5.112l-28.908,0l0,10.225l31.606,-2.753l8.094,-12.584l1.928,-9.439l8.094,-3.343l5.011,-7.669l32.762,-7.472l25.054,-8.258l4.625,-7.079l35.075,-10.225l2.313,0l37.387,10.225l2.699,7.079l19.272,9.831l14.646,0ZM865.398,579.001c8.465,0 15.338,6.873 15.338,15.338c0,8.465 -6.873,15.337 -15.338,15.337c-8.465,0 -15.338,-6.872 -15.338,-15.337c0,-8.465 6.873,-15.338 15.338,-15.338ZM780.451,585.621c-0.049,0.002 -0.098,0.002 -0.147,0.007c-0.195,0.017 -0.387,0.07 -0.564,0.155c-0.176,0.086 -0.337,0.203 -0.473,0.344c-0.102,0.107 -0.189,0.227 -0.259,0.356c-0.116,0.216 -0.183,0.458 -0.194,0.703c-0.011,0.245 0.034,0.492 0.131,0.718c0.077,0.18 0.186,0.346 0.322,0.488c0.238,0.249 0.553,0.419 0.892,0.48c0.129,0.023 0.162,0.021 0.292,0.026l20.844,0c0.048,-0.002 0.096,-0.002 0.144,-0.006c0.096,-0.008 0.191,-0.025 0.284,-0.051c0.374,-0.101 0.705,-0.336 0.924,-0.656c0.054,-0.079 0.102,-0.163 0.141,-0.251c0.02,-0.044 0.036,-0.09 0.054,-0.134l11.798,-33.822c0.014,-0.047 0.03,-0.093 0.042,-0.141c0.036,-0.142 0.052,-0.29 0.049,-0.437c-0.01,-0.444 -0.206,-0.873 -0.534,-1.172c-0.108,-0.099 -0.23,-0.184 -0.362,-0.25c-0.131,-0.067 -0.271,-0.116 -0.415,-0.145c-0.048,-0.01 -0.097,-0.015 -0.145,-0.023c-0.049,-0.003 -0.098,-0.007 -0.147,-0.01c-0.049,0.001 -0.098,0 -0.147,0.004c-0.098,0.006 -0.195,0.022 -0.29,0.046c-0.334,0.084 -0.637,0.275 -0.857,0.539c-0.063,0.076 -0.119,0.157 -0.167,0.242c-0.024,0.043 -0.045,0.087 -0.067,0.131l-0.054,0.137l-11.415,32.722l-19.68,0Z" style="fill:none;stroke-width:1px;stroke:#000;"/></g></g><path id="Oper" d="M1416.75,780.07l-361.231,0l5.916,-4.524l-89.437,1.74l0,-14.964l11.136,0l0,-146.163l-2.436,0l-1.044,-3.48l-1.392,-2.088l95.702,0l0,-41.413l-1.74,-2.436l162.866,-23.664l164.259,23.664l-2.436,2.436l0,41.413l98.138,0l-2.436,2.088l-1.044,3.48l-2.784,0l0,148.947l19.488,0l0,14.964l-99.53,-2.784l8.005,2.784ZM1168.96,733.555l-35.844,0l0,29.929l35.844,0l0,-29.929ZM1127.82,733.555l-21.924,0l0,29.929l21.924,0l0,-29.929ZM1210.31,733.555l-35.844,0l0,29.929l35.844,0l0,-29.929ZM1251.99,733.555l-35.845,0l0,29.929l35.845,0l0,-29.929ZM1292.93,733.555l-35.845,0l0,29.929l35.845,0l0,-29.929ZM1335.34,733.555l-35.844,0l0,29.929l35.844,0l0,-29.929ZM1362.91,733.555l-22.273,0l0,29.929l22.273,0l0,-29.929ZM1168.96,672.536l-35.844,0l0,52.549l35.844,0l0,-52.549ZM1127.82,672.536l-21.924,0l0,52.549l21.924,0l0,-52.549ZM1210.31,672.536l-35.844,0l0,52.549l35.844,0l0,-52.549ZM1251.99,672.536l-35.845,0l0,52.549l35.845,0l0,-52.549ZM1292.93,672.536l-35.845,0l0,52.549l35.845,0l0,-52.549ZM1335.34,672.536l-35.844,0l0,52.549l35.844,0l0,-52.549ZM1362.91,672.536l-22.273,0l0,52.549l22.273,0l0,-52.549ZM1100.23,681.412l-25.057,0l0,38.977l25.057,0l0,-38.977ZM1060.7,681.412l-25.057,0l0,38.977l25.057,0l0,-38.977ZM1020.11,681.412l-25.056,0l0,38.977l25.056,0l0,-38.977ZM1475.64,681.412l-25.056,0l0,38.977l25.056,0l0,-38.977ZM1436.11,681.412l-25.056,0l0,38.977l25.056,0l0,-38.977ZM1395.52,681.412l-25.056,0l0,38.977l25.056,0l0,-38.977ZM1100.23,628.339l-25.057,0l0,35.497l25.057,0l0,-35.497ZM1395.52,628.339l-25.056,0l0,35.497l25.056,0l0,-35.497ZM1436.11,628.339l-25.056,0l0,35.497l25.056,0l0,-35.497ZM1475.64,628.339l-25.056,0l0,35.497l25.056,0l0,-35.497ZM1020.11,628.339l-25.056,0l0,35.497l25.056,0l0,-35.497ZM1060.7,628.339l-25.057,0l0,35.497l25.057,0l0,-35.497ZM1286.1,629.036l-24.012,0l0,32.538l24.012,0l0,-32.538ZM1247.19,629.036l-24.013,0l0,32.538l24.013,0l0,-32.538ZM1207.05,629.036l-24.013,0l0,32.538l24.013,0l0,-32.538ZM1325.15,629.036l-24.012,0l0,32.538l24.012,0l0,-32.538ZM1167.57,629.036l-24.012,0l0,32.538l24.012,0l0,-32.538ZM1381.25,610.867l-291.629,0l0,3.625l291.629,0l0,-3.625ZM1170.7,607.807l0,-16.704l-19.672,0l0,16.704l19.672,0ZM1206.11,607.807l0,-16.704l-19.672,0l0,16.704l19.672,0ZM1245.11,607.807l0,-16.704l-19.671,0l0,16.704l19.671,0ZM1282.35,607.807l0,-16.704l-19.672,0l0,16.704l19.672,0ZM1320.15,607.807l0,-16.704l-19.672,0l0,16.704l19.672,0ZM1349.93,566.046l-114.494,-9.744l-114.494,9.744l228.988,0Z" style="fill:none;stroke-width:1px;stroke-linecap:round;stroke:#000;"/><clipPath id="_clip4"><rect x="95.76" y="527.76" width="488.764" height="254.49"/></clipPath><g clip-path="url(#_clip4)"><path id="Gewandhaus" d="M105.574,751.341l0,23.982l-6.657,-0.054l0,-23.189l-9.615,-6.164l0,-16.026l3.451,-2.219l0,-11.588l-3.451,-2.466l0,-12.081l41.668,0l0,-6.657l-4.932,0l-2.465,-6.903l0,-10.602l20.957,-1.233l0,-2.219l-7.397,-5.424l0,-5.918l-1.972,-2.465l3.205,-50.791l3.206,-65.337l52.023,0l1.479,1.726l3.452,0l0.74,-1.726l54.735,0l1.233,1.726l3.698,0l0,-1.726l54.982,0l0.986,1.726l3.699,0l0,-1.726l55.721,0l1.233,1.726l3.205,0l0.74,-1.726l54.736,0l0.986,1.726l3.452,0l1.479,-1.726l54.982,0l0,1.726l3.698,0l1.726,-1.726l52.517,0l4.438,65.337l3.205,50.791l-1.726,2.465l0,7.397l-8.136,4.931l0,2.466l93.937,0l-10.602,73.227l-14.546,0l0,28.89l-6.164,-0.05l0,-28.84l-32.792,0l0,28.574l-6.411,-0.052l0,-28.522l-26.874,0l0,28.304l-416.68,-3.378l0,-24.186l-9.616,0l0,24.108l-6.41,-0.052l0,-24.056l-9.123,0ZM528.087,711.768l-32.639,0l-0.957,24.567l30.475,0.212l3.121,-24.779ZM491.85,711.768l-27.985,0l-0.736,24.349l27.764,0.193l0.957,-24.542ZM461.81,711.768l-24.973,0l-0.568,24.163l24.805,0.172l0.736,-24.335ZM433.24,711.768l-27.871,0l-0.458,23.945l27.762,0.193l0.567,-24.138ZM403.314,711.768l-24.151,0l0.072,23.766l23.621,0.165l0.458,-23.931ZM375.567,711.768l-27.748,0l0.072,23.549l27.748,0.192l-0.072,-23.741ZM345.765,711.768l-26.194,0l0.193,23.353l26.072,0.181l-0.071,-23.534ZM315.975,711.768l-27.375,0l-0.12,23.136l27.688,0.192l-0.193,-23.328ZM286.545,711.768l-24.888,0l0.518,22.953l24.251,0.168l0.119,-23.121ZM258.061,711.768l-26.744,0l0.307,22.741l26.954,0.187l-0.517,-22.928ZM229.262,711.768l-25.893,0l0.658,22.549l25.542,0.177l-0.307,-22.726ZM199.772,711.768l-26.719,0l0.588,22.338l26.788,0.186l-0.657,-22.524ZM170.998,711.768l-3.642,0l2.827,22.314l1.402,0.009l-0.587,-22.323ZM228.872,682.839l-26.346,0l0.664,22.765l25.989,0l-0.307,-22.765ZM198.928,682.839l-26.636,0l0.599,22.765l26.701,0l-0.664,-22.765ZM492.977,682.839l-28.236,0l-0.689,22.765l28.038,0l0.887,-22.765ZM315.736,682.839l-26.987,0l-0.117,22.765l27.292,0l-0.188,-22.765ZM170.237,682.839l-6.546,0l2.884,22.765l4.261,0l-0.599,-22.765ZM496.575,682.839l-0.887,22.765l33.176,0l2.875,-22.831l-0.001,0c-0.114,0.043 -0.24,0.044 -0.361,0.066l-34.802,0ZM257.409,682.839l-26.482,0l0.307,22.765l26.688,0l-0.513,-22.765ZM433.92,682.839l-27.998,0l-0.436,22.765l27.899,0l0.535,-22.765ZM375.479,682.839l-27.747,0l0.069,22.765l27.747,0l-0.069,-22.765ZM403.867,682.839l-24.792,0l0.069,22.765l24.287,0l0.436,-22.765ZM286.695,682.839l-25.69,0l0.514,22.765l25.058,0l0.118,-22.765ZM345.677,682.839l-26.345,0l0.188,22.765l26.226,0l-0.069,-22.765ZM462.685,682.839l-25.169,0l-0.534,22.765l25.014,0l0.689,-22.765ZM228.526,657.197l-26.749,0l0.689,23.587l26.378,0l-0.318,-23.587ZM493.976,657.197l-28.459,0l-0.714,23.587l28.254,0l0.919,-23.587ZM345.599,657.197l-26.479,0l0.195,23.587l26.356,0l-0.072,-23.587ZM533.654,657.197l-36.08,0l-0.919,23.587l33.823,0l3.176,-23.587ZM160.439,657.174l2.992,23.61l6.752,0l-0.62,-23.587l-9.007,0l-0.117,-0.023ZM286.827,657.197l-26.4,0l0.532,23.587l25.746,0l0.122,-23.587ZM404.357,657.197l-25.36,0l0.072,23.587l24.837,0l0.451,-23.587ZM463.461,657.197l-25.342,0l-0.554,23.587l25.182,0l0.714,-23.587ZM434.522,657.197l-28.11,0l-0.451,23.587l28.007,0l0.554,-23.587ZM375.402,657.197l-27.748,0l0.071,23.587l27.748,0l-0.071,-23.587ZM315.524,657.197l-26.642,0l-0.122,23.587l26.959,0l-0.195,-23.587ZM256.831,657.197l-26.25,0l0.318,23.587l26.464,0l-0.532,-23.587ZM198.18,657.197l-26.562,0l0.62,23.587l26.63,0l-0.688,-23.587ZM538.034,632.799l-39.509,0l-0.871,22.344l37.174,0l0.381,0.082l2.825,-22.426ZM168.921,632.799l-11.57,0l2.84,22.416l0.365,-0.072l8.953,0l-0.588,-22.344ZM345.525,632.799l-26.607,0l0.185,22.344l26.49,0l-0.068,-22.344ZM256.281,632.799l-26.03,0l0.302,22.344l26.232,0l-0.504,-22.344ZM286.953,632.799l-27.076,0l0.504,22.344l26.457,0l0.115,-22.344ZM315.323,632.799l-26.315,0l-0.116,22.344l26.615,0l-0.184,-22.344ZM435.096,632.799l-28.217,0l-0.428,22.344l28.12,0l0.525,-22.344ZM197.469,632.799l-26.493,0l0.588,22.344l26.556,0l-0.651,-22.344ZM404.824,632.799l-25.901,0l0.068,22.344l25.405,0l0.428,-22.344ZM228.197,632.799l-27.131,0l0.652,22.344l26.78,0l-0.301,-22.344ZM464.199,632.799l-25.507,0l-0.525,22.344l25.356,0l0.676,-22.344ZM494.926,632.799l-28.671,0l-0.676,22.344l28.477,0l0.87,-22.344ZM375.328,632.799l-27.748,0l0.068,22.344l27.747,0l-0.067,-22.344ZM377.254,551.073c0.068,0.013 0.137,0.022 0.205,0.039c0.135,0.032 0.266,0.078 0.392,0.137c0.251,0.118 0.478,0.287 0.663,0.495c0.184,0.208 0.326,0.452 0.414,0.716c0.044,0.132 0.074,0.268 0.091,0.406c0.008,0.069 0.009,0.138 0.014,0.207l0.979,55.722c-0.003,0.069 -0.001,0.139 -0.007,0.208c-0.023,0.277 -0.103,0.548 -0.234,0.794c-0.098,0.183 -0.224,0.352 -0.372,0.498c-0.148,0.146 -0.319,0.27 -0.504,0.365c-0.31,0.158 -0.658,0.236 -1.006,0.225c-0.277,-0.01 -0.552,-0.076 -0.804,-0.194c-0.188,-0.088 -0.363,-0.205 -0.517,-0.346c-0.307,-0.282 -0.524,-0.658 -0.616,-1.065c-0.04,-0.181 -0.036,-0.229 -0.049,-0.413l-0.979,-55.721c0.003,-0.07 0.001,-0.139 0.007,-0.208c0.018,-0.208 0.067,-0.413 0.146,-0.606c0.105,-0.257 0.262,-0.492 0.46,-0.687c0.248,-0.243 0.557,-0.422 0.892,-0.515c0.134,-0.037 0.271,-0.061 0.409,-0.07c0.07,-0.005 0.139,-0.003 0.209,-0.004c0.069,0.006 0.138,0.012 0.207,0.017ZM437.66,551.073c0.068,0.013 0.137,0.022 0.205,0.039c0.135,0.032 0.266,0.078 0.392,0.137c0.252,0.118 0.478,0.287 0.663,0.495c0.185,0.208 0.326,0.452 0.414,0.716c0.044,0.132 0.074,0.268 0.091,0.406c0.008,0.069 0.009,0.138 0.014,0.207l0.979,55.722c-0.002,0.069 -0.001,0.139 -0.007,0.208c-0.023,0.277 -0.103,0.548 -0.234,0.794c-0.163,0.306 -0.404,0.569 -0.696,0.758c-0.233,0.152 -0.497,0.254 -0.771,0.301c-0.205,0.035 -0.415,0.039 -0.622,0.011c-0.206,-0.028 -0.408,-0.087 -0.597,-0.176c-0.188,-0.088 -0.363,-0.205 -0.516,-0.346c-0.308,-0.282 -0.525,-0.658 -0.616,-1.065c-0.041,-0.181 -0.037,-0.229 -0.05,-0.413l-0.979,-55.721c0.003,-0.07 0.002,-0.139 0.007,-0.208c0.012,-0.139 0.038,-0.276 0.077,-0.409c0.078,-0.267 0.211,-0.516 0.389,-0.73c0.221,-0.268 0.511,-0.477 0.834,-0.603c0.194,-0.076 0.4,-0.122 0.608,-0.136c0.069,-0.005 0.138,-0.003 0.208,-0.004c0.069,0.006 0.138,0.012 0.207,0.017ZM317.458,551.06c0.069,0.009 0.138,0.014 0.206,0.026c0.137,0.024 0.271,0.062 0.4,0.113c0.324,0.128 0.612,0.338 0.833,0.606c0.176,0.215 0.308,0.465 0.385,0.732c0.039,0.134 0.064,0.271 0.075,0.409c0.006,0.069 0.004,0.139 0.006,0.208l-1.214,55.722c-0.005,0.069 -0.006,0.139 -0.015,0.207c-0.034,0.276 -0.124,0.544 -0.264,0.784c-0.141,0.24 -0.329,0.451 -0.553,0.616c-0.279,0.207 -0.61,0.34 -0.955,0.385c-0.206,0.027 -0.417,0.023 -0.622,-0.013c-0.205,-0.036 -0.405,-0.104 -0.59,-0.199c-0.185,-0.096 -0.355,-0.22 -0.502,-0.367c-0.297,-0.294 -0.499,-0.677 -0.574,-1.088c-0.033,-0.183 -0.028,-0.23 -0.033,-0.415l1.214,-55.721c0.005,-0.069 0.006,-0.139 0.015,-0.208c0.017,-0.138 0.048,-0.274 0.092,-0.405c0.112,-0.329 0.307,-0.628 0.564,-0.862c0.206,-0.187 0.449,-0.332 0.712,-0.422c0.131,-0.046 0.266,-0.078 0.404,-0.096c0.069,-0.009 0.139,-0.011 0.208,-0.016c0.069,0.001 0.138,0.003 0.208,0.004ZM197.022,551.067c0.068,0.011 0.137,0.018 0.205,0.033c0.136,0.029 0.269,0.071 0.396,0.127c0.255,0.111 0.486,0.274 0.676,0.477c0.238,0.254 0.409,0.567 0.494,0.904c0.033,0.135 0.054,0.273 0.06,0.411c0.003,0.07 -0.001,0.139 -0.002,0.208l-3.205,55.722c-0.007,0.069 -0.011,0.139 -0.022,0.207c-0.044,0.274 -0.144,0.539 -0.293,0.774c-0.111,0.176 -0.249,0.335 -0.408,0.469c-0.159,0.135 -0.339,0.245 -0.531,0.326c-0.192,0.081 -0.396,0.132 -0.603,0.152c-0.277,0.026 -0.558,-0.005 -0.823,-0.09c-0.33,-0.106 -0.632,-0.297 -0.87,-0.55c-0.286,-0.305 -0.474,-0.695 -0.534,-1.109c-0.027,-0.183 -0.02,-0.23 -0.018,-0.415l3.205,-55.722c0.007,-0.068 0.011,-0.138 0.022,-0.206c0.022,-0.138 0.058,-0.272 0.107,-0.402c0.123,-0.325 0.329,-0.617 0.594,-0.842c0.212,-0.179 0.461,-0.315 0.726,-0.396c0.133,-0.041 0.27,-0.068 0.408,-0.081c0.069,-0.007 0.139,-0.006 0.208,-0.009c0.069,0.004 0.139,0.008 0.208,0.012ZM499.299,551.073c0.068,0.013 0.137,0.022 0.205,0.039c0.135,0.032 0.266,0.078 0.392,0.137c0.252,0.118 0.478,0.287 0.663,0.495c0.185,0.208 0.326,0.452 0.414,0.716c0.044,0.132 0.074,0.268 0.091,0.406c0.008,0.069 0.009,0.138 0.014,0.207l0.979,55.722c-0.006,0.185 -0.001,0.232 -0.035,0.414c-0.077,0.411 -0.28,0.793 -0.578,1.086c-0.148,0.146 -0.319,0.27 -0.504,0.365c-0.186,0.095 -0.385,0.161 -0.591,0.196c-0.342,0.059 -0.698,0.029 -1.026,-0.086c-0.262,-0.092 -0.505,-0.237 -0.71,-0.425c-0.153,-0.141 -0.285,-0.305 -0.389,-0.485c-0.139,-0.241 -0.228,-0.509 -0.261,-0.785c-0.009,-0.069 -0.01,-0.139 -0.015,-0.208l-0.978,-55.721c0.002,-0.07 0.001,-0.139 0.006,-0.208c0.012,-0.139 0.038,-0.276 0.077,-0.409c0.078,-0.267 0.211,-0.516 0.389,-0.73c0.221,-0.268 0.511,-0.477 0.835,-0.603c0.194,-0.076 0.399,-0.122 0.607,-0.136c0.069,-0.005 0.138,-0.003 0.208,-0.004c0.069,0.006 0.138,0.012 0.207,0.017ZM257.383,551.062c0.069,0.01 0.138,0.016 0.206,0.029c0.137,0.026 0.27,0.065 0.399,0.118c0.321,0.132 0.607,0.347 0.824,0.618c0.173,0.217 0.301,0.469 0.375,0.737c0.037,0.134 0.06,0.271 0.069,0.41c0.005,0.069 0.003,0.139 0.004,0.208l-1.973,55.722c-0.016,0.184 -0.013,0.231 -0.056,0.412c-0.099,0.405 -0.323,0.777 -0.635,1.053c-0.208,0.185 -0.453,0.326 -0.717,0.413c-0.33,0.109 -0.686,0.133 -1.028,0.068c-0.205,-0.039 -0.403,-0.109 -0.587,-0.207c-0.183,-0.099 -0.352,-0.225 -0.498,-0.374c-0.145,-0.148 -0.268,-0.319 -0.363,-0.505c-0.126,-0.247 -0.201,-0.52 -0.219,-0.797c-0.005,-0.07 -0.002,-0.139 -0.004,-0.209l1.973,-55.721c0.006,-0.069 0.008,-0.139 0.018,-0.208c0.019,-0.137 0.052,-0.273 0.098,-0.404c0.092,-0.262 0.238,-0.504 0.427,-0.708c0.235,-0.256 0.535,-0.449 0.865,-0.558c0.132,-0.044 0.268,-0.074 0.406,-0.09c0.069,-0.008 0.139,-0.009 0.208,-0.014c0.069,0.003 0.139,0.005 0.208,0.007Z" style="fill:none;stroke-width:1px;stroke-linecap:round;stroke:#000;"/></g><clipPath id="_clip5"><rect x="990.48" y="367.68" width="181.44" height="243.36"/></clipPath><g clip-path="url(#_clip5)"><path d="M1005.25,776.639l56.185,-1.093l-5.916,4.524l111.606,0l0,0.452l-161.875,5.435l0,-9.318ZM1127.82,733.555l0,29.929l-21.924,0l0,-29.929l21.924,0ZM1133.12,733.555l2.765,0l0,29.929l-2.765,0l0,-29.929ZM1167.12,763.484l-20.093,0l0,-29.929l20.093,0l0,29.929ZM1127.82,672.536l0,52.549l-21.924,0l0,-52.549l21.924,0ZM1133.12,672.536l2.765,0l0,52.549l-2.765,0l0,-52.549ZM1167.12,725.085l-20.093,0l0,-52.549l20.093,0l0,52.549ZM1035.65,681.412l5.431,0l-0.029,38.977l-5.402,0l0,-38.977ZM1075.17,681.412l17.708,0l0,38.977l-17.708,0l0,-38.977ZM1100.23,720.389l-3.635,0l0,-38.977l3.635,0l0,38.977ZM1060.7,720.389l-18.169,0l0.029,-38.977l18.14,0l0,38.977ZM1020.04,720.389l-14.797,0l0,-38.977l14.797,0l0,38.977ZM1075.17,628.339l17.708,0l0,35.497l-17.708,0l0,-35.497ZM1035.65,628.339l5.471,0l-0.027,35.497l-5.444,0l0,-35.497ZM1060.7,663.836l-18.127,0l0.027,-35.497l18.1,0l0,35.497ZM1020.04,663.836l-14.797,0l0,-35.497l14.797,0l0,35.497ZM1100.23,663.836l-3.635,0l0,-35.497l3.635,0l0,35.497ZM1167.12,661.574l-20.093,0l0,-32.538l20.093,0l0,32.538ZM1089.62,610.867l3.264,0l0,3.625l-3.264,0l0,-3.625ZM1135.88,614.492l-39.288,0l0,-3.625l39.288,0l0,3.625ZM1167.12,614.492l-20.093,0l0,-3.625l20.093,0l0,3.625ZM1005.25,610.591l0,-136.704l13.906,-4.992l6.061,0l0,-12.836l49.698,-16.152l9.133,-8.806l0.305,-3.356c-2.623,-0.568 -5.066,-1.622 -7.229,-3.062l-0.207,0l0.033,-0.117c-5.613,-3.817 -9.303,-10.253 -9.303,-17.544c0,-11.703 9.506,-21.204 21.215,-21.204c11.709,0 21.215,9.501 21.215,21.204c0,7.279 -3.678,13.706 -9.276,17.525l0.362,1.205l-2.355,0c-2.011,1.07 -4.214,1.826 -6.543,2.202l0.697,2.79l12.515,12.167l47.386,11.009l0,14.975l11.053,2.139l0,17.471l3.209,0l0,64.448l-20.093,2.92l0,-67.368l-11.142,0l0,68.987l-39.288,5.708l0,-68.633l-3.714,0l0,69.173l-20.664,3.002l1.74,2.436l0,41.413l-4.46,0l0,-116.024l-3.714,0l0,116.024l-23.169,0l0.105,-139.2c-0.495,0 -0.991,0 -1.486,-0.001l-0.104,139.201l-12.175,0l0,-122.086l-8.914,0l0,122.086l-14.797,0ZM1083.01,447.507l-0.222,34.585l-1.485,-0.009l0.222,-34.586c0.495,0.003 0.99,0.007 1.485,0.01ZM1091.53,431.814l-1.783,0l0.849,7.641l10.758,2.5l-9.824,-10.141ZM1081.57,437.744l0.695,-0.226l4.909,1.141l-0.419,-5.063l-5.185,4.148ZM1085.1,411.134l-1.829,0l-3.763,12.095c2.752,1.591 5.947,2.502 9.353,2.502c3.171,0 6.159,-0.79 8.778,-2.183l-3.779,-12.414l-1.285,0l-3.714,8.913l-3.761,-8.913ZM1096.77,411.134l3.267,10.889c4.574,-3.412 7.537,-8.864 7.537,-15.001c0,-10.326 -8.388,-18.709 -18.719,-18.709c-1.792,0 -3.525,0.252 -5.167,0.723l5.167,12.471l4.813,-12.48l7.488,24.959l-2.853,0l-0.868,-2.852l-0.665,0ZM1079.05,412.916l-2.14,0l6.772,-23.878c-7.819,2.245 -13.546,9.451 -13.546,17.984c0,6.135 2.96,11.583 7.53,14.996l3.087,-10.884l-1.149,0l-0.554,1.782ZM1089.68,411.134l-1.711,0l0.886,2.139l0.825,-2.139ZM1095.05,403.289l-0.631,0l2.139,7.131l0.662,0l-2.17,-7.131ZM1092.87,410.42l0.771,0l-0.325,-1.069l-0.446,1.069ZM1086.75,403.289l-2.03,0l2.954,7.131l2.282,0l2.751,-7.131l-1.771,0l-2.08,4.992l-2.106,-4.992ZM1083.49,410.42l1.306,0l-0.752,-1.782l-0.554,1.782ZM1082.98,403.289l-0.932,0l-2.219,7.131l1.129,0l2.022,-7.131ZM1091.23,402.576l1.749,0l0.687,-1.782l0.535,1.782l0.628,0l-1.519,-4.991l-2.08,4.991ZM1082.27,402.576l0.912,0l0.506,-1.782l0.738,1.782l2.025,0l-2.407,-5.704l-1.774,5.704Z" style="fill:none;stroke-width:1px;stroke-linecap:round;stroke:#000;"/></g><path d="M733.51,775.637l-143.466,0l0,-454.746l14.346,-9.994c27.009,28.924 52.966,59.779 90.179,69.961l26.644,0l0,2.498l10.247,24.986l2.05,367.295ZM605.545,324.055c0.347,0.216 0.726,0.368 1.041,0.647c0.638,0.566 1.113,1.363 1.357,2.277c0.121,0.452 0.122,0.939 0.183,1.408l0,434.757c-0.16,1.23 -0.09,1.631 -0.713,2.677c-0.229,0.384 -0.512,0.729 -0.827,1.008c-0.315,0.279 -0.671,0.5 -1.041,0.647c-0.751,0.297 -1.559,0.297 -2.309,0c-0.371,-0.147 -0.726,-0.368 -1.042,-0.647c-0.315,-0.279 -0.597,-0.624 -0.826,-1.008c-0.624,-1.046 -0.554,-1.447 -0.714,-2.677l0,-434.757c0.061,-0.469 0.063,-0.956 0.183,-1.408c0.121,-0.451 0.302,-0.885 0.531,-1.269c0.464,-0.778 1.118,-1.357 1.868,-1.655c0.37,-0.146 0.769,-0.148 1.154,-0.223c0.385,0.075 0.77,0.149 1.155,0.223ZM681.065,740.233l-15.618,0l0,24.88l15.618,0l0,-24.88ZM660.461,740.233l-15.618,0l0,24.88l15.618,0l0,-24.88ZM639.858,740.233l-15.618,0l0,24.88l15.618,0l0,-24.88ZM701.668,740.233l-15.618,0l0,24.88l15.618,0l0,-24.88ZM725.04,423.105l-4.08,-6.945l0,349.2l4.08,0l0,-342.255ZM660.461,702.064l-15.618,0l0,24.88l15.618,0l0,-24.88ZM639.858,702.064l-15.618,0l0,24.88l15.618,0l0,-24.88ZM701.668,702.064l-15.618,0l0,24.88l15.618,0l0,-24.88ZM681.065,702.064l-15.618,0l0,24.88l15.618,0l0,-24.88ZM660.461,663.895l-15.618,0l0,24.88l15.618,0l0,-24.88ZM639.858,663.895l-15.618,0l0,24.88l15.618,0l0,-24.88ZM681.065,663.895l-15.618,0l0,24.88l15.618,0l0,-24.88ZM701.668,663.895l-15.618,0l0,24.88l15.618,0l0,-24.88ZM660.461,625.726l-15.618,0l0,24.88l15.618,0l0,-24.88ZM639.858,625.726l-15.618,0l0,24.88l15.618,0l0,-24.88ZM701.668,625.726l-15.618,0l0,24.88l15.618,0l0,-24.88ZM681.065,625.726l-15.618,0l0,24.88l15.618,0l0,-24.88ZM701.668,587.557l-15.618,0l0,24.879l15.618,0l0,-24.879ZM660.461,587.557l-15.618,0l0,24.879l15.618,0l0,-24.879ZM639.858,587.557l-15.618,0l0,24.879l15.618,0l0,-24.879ZM681.065,587.557l-15.618,0l0,24.879l15.618,0l0,-24.879ZM701.668,549.387l-15.618,0l0,24.88l15.618,0l0,-24.88ZM660.461,549.387l-15.618,0l0,24.88l15.618,0l0,-24.88ZM639.858,549.387l-15.618,0l0,24.88l15.618,0l0,-24.88ZM681.065,549.387l-15.618,0l0,24.88l15.618,0l0,-24.88ZM701.668,511.218l-15.618,0l0,24.88l15.618,0l0,-24.88ZM639.858,511.218l-15.618,0l0,24.88l15.618,0l0,-24.88ZM660.461,511.218l-15.618,0l0,24.88l15.618,0l0,-24.88ZM681.065,511.218l-15.618,0l0,24.88l15.618,0l0,-24.88ZM639.858,473.049l-15.618,0l0,24.88l15.618,0l0,-24.88ZM660.461,473.049l-15.618,0l0,24.88l15.618,0l0,-24.88ZM681.065,473.049l-15.618,0l0,24.88l15.618,0l0,-24.88ZM701.668,473.049l-15.618,0l0,24.88l15.618,0l0,-24.88ZM639.858,434.88l-15.618,0l0,24.88l15.618,0l0,-24.88ZM660.461,434.88l-15.618,0l0,24.88l15.618,0l0,-24.88ZM681.065,434.88l-15.618,0l0,24.88l15.618,0l0,-24.88ZM701.668,434.88l-15.618,0l0,24.88l15.618,0l0,-24.88Z" style="fill:none;stroke-width:1px;stroke-linecap:round;stroke:#000;"/></g></g><g><path d="M646.403,103.281l19.446,12.605c-3.817,1.764 -9.02,2.944 -16.529,3.151c-1.38,-0.319 -2.761,-0.634 -4.141,-0.944l-17.873,63.594c40.831,-10.436 83.284,-16.961 126.914,-19.143l-17.836,-75.148c-0.991,0.225 -1.982,0.452 -2.974,0.681c-7.508,-0.207 -12.711,-1.387 -16.528,-3.151l19.445,-12.605l10.695,0c0.989,-4.666 3.633,-9.41 6.806,-14.18c5.196,-4.94 12.217,-8.935 21.39,-11.817c1.738,-5.035 3.856,-8.724 6.806,-9.453l0.1,0c-1.261,-1.002 -2.045,-2.397 -2.045,-3.939c0,-2.11 1.876,-5.695 3.658,-8.626c-1.615,-0.841 -2.685,-2.31 -2.685,-3.979c0,-2.609 2.614,-4.727 5.833,-4.727c3.22,0 5.834,2.118 5.834,4.727c0,1.669 -1.071,3.138 -2.686,3.979c1.782,2.931 3.658,6.516 3.658,8.626c0,1.542 -0.783,2.937 -2.045,3.939l0.101,0c2.951,0.73 5.067,4.419 6.806,9.453c9.173,2.882 16.194,6.877 21.39,11.817c3.172,4.769 5.816,9.514 6.805,14.18l10.695,0l19.446,12.605c-3.817,1.764 -9.02,2.944 -16.529,3.151c-1.38,-0.319 -2.761,-0.634 -4.141,-0.944l-21.136,75.203c44.655,1.926 88.097,8.401 129.852,18.962l-17.763,-63.205c-1.381,0.31 -2.761,0.625 -4.142,0.944c-7.508,-0.207 -12.711,-1.387 -16.528,-3.151l19.445,-12.605l10.695,0c0.989,-4.666 3.633,-9.411 6.806,-14.18c5.196,-4.94 12.217,-8.935 21.39,-11.817c1.738,-5.034 3.855,-8.723 6.806,-9.453l0.1,0c-1.262,-1.002 -2.045,-2.397 -2.045,-3.939c0,-2.11 1.876,-5.695 3.658,-8.626c-1.615,-0.841 -2.685,-2.31 -2.685,-3.979c0,-2.609 2.613,-4.727 5.833,-4.727c3.22,0 5.834,2.118 5.834,4.727c0,1.669 -1.071,3.138 -2.686,3.979c1.782,2.931 3.658,6.516 3.658,8.626c0,1.542 -0.783,2.937 -2.045,3.939l0.101,0c2.95,0.73 5.067,4.419 6.805,9.453c9.173,2.882 16.195,6.877 21.39,11.817c3.173,4.769 5.817,9.514 6.806,14.18l10.695,0l19.446,12.605c-3.817,1.764 -9.02,2.944 -16.529,3.151c-0.991,-0.229 -1.983,-0.456 -2.974,-0.681l-18.168,76.55l3.641,1.598c-0.346,1.285 -1.688,2.363 -3.662,3.309c0.102,0.161 0.204,0.323 0.306,0.484c0.218,0.348 0.434,0.696 0.645,1.048l0.073,0.123c41.066,15.219 80.069,34.521 116.49,57.396l-13.298,-47.318c-1.381,0.31 -2.761,0.625 -4.142,0.944c-7.508,-0.207 -12.711,-1.387 -16.528,-3.151l19.445,-12.605l10.695,0c0.989,-4.666 3.633,-9.411 6.806,-14.18c5.196,-4.94 12.217,-8.935 21.39,-11.817c1.738,-5.034 3.855,-8.723 6.806,-9.453l0.1,0c-1.262,-1.002 -2.045,-2.397 -2.045,-3.939c0,-2.11 1.876,-5.695 3.658,-8.626c-1.615,-0.841 -2.686,-2.31 -2.686,-3.979c0,-2.609 2.614,-4.727 5.834,-4.727c3.22,0 5.834,2.118 5.834,4.727c0,1.669 -1.071,3.138 -2.686,3.979c1.782,2.931 3.658,6.516 3.658,8.626c0,1.542 -0.783,2.937 -2.045,3.939l0.1,0c2.951,0.73 5.068,4.419 6.806,9.453c9.173,2.882 16.195,6.877 21.39,11.817c3.173,4.769 5.817,9.514 6.806,14.18l10.695,0l19.446,12.605c-3.817,1.764 -9.02,2.944 -16.529,3.151c-0.991,-0.229 -1.983,-0.456 -2.974,-0.681l-18.168,76.55l3.641,1.598c-0.346,1.285 -1.688,2.363 -3.662,3.309c0.102,0.161 0.204,0.323 0.306,0.484c0.218,0.348 0.434,0.696 0.645,1.048c0.138,0.229 0.274,0.46 0.406,0.693c0.134,0.239 0.266,0.48 0.375,0.732c0.072,0.168 0.134,0.342 0.182,0.519c0.091,0.333 0.137,0.679 0.124,1.024c-0.016,0.414 -0.118,0.824 -0.307,1.193c-0.044,0.085 -0.092,0.168 -0.144,0.248c-0.073,0.115 -0.154,0.224 -0.235,0.334c-0.161,0.221 -0.329,0.437 -0.5,0.651c-0.445,0.557 -0.91,1.098 -1.374,1.639l-0.31,0.358c-0.412,0.476 -0.825,0.951 -1.237,1.427c-0.308,0.356 -0.616,0.711 -0.922,1.069c-0.22,0.257 -0.439,0.516 -0.657,0.775c23.085,18.96 44.749,39.512 64.815,61.484l16.677,-10.811l10.695,0c0.99,-4.666 3.634,-9.411 6.806,-14.18c5.196,-4.94 12.217,-8.935 21.39,-11.817c1.739,-5.034 3.855,-8.723 6.806,-9.454l0.1,0c-1.261,-1.001 -2.044,-2.396 -2.044,-3.939c0,-2.109 1.875,-5.695 3.657,-8.625c-1.614,-0.841 -2.685,-2.31 -2.685,-3.979c0,-2.609 2.614,-4.727 5.834,-4.727c3.219,0 5.833,2.118 5.833,4.727c0,1.669 -1.07,3.138 -2.685,3.979c1.782,2.93 3.657,6.516 3.657,8.625c0,1.543 -0.783,2.938 -2.044,3.939l0.1,0c2.951,0.73 5.068,4.42 6.806,9.454c9.173,2.882 16.194,6.877 21.39,11.817c3.173,4.769 5.817,9.514 6.806,14.18l10.695,0l19.445,12.605c-3.817,1.764 -9.02,2.944 -16.529,3.151c-0.991,-0.229 -1.982,-0.456 -2.973,-0.681l-18.168,76.55l3.641,1.598c-0.346,1.285 -1.689,2.363 -3.663,3.309c0.103,0.161 0.205,0.322 0.306,0.484c0.218,0.347 0.434,0.696 0.645,1.047c0.138,0.23 0.275,0.461 0.406,0.694c0.134,0.239 0.266,0.48 0.375,0.731c0.073,0.169 0.134,0.343 0.183,0.52c0.091,0.333 0.136,0.679 0.123,1.024c-0.015,0.414 -0.118,0.824 -0.307,1.193c-0.043,0.085 -0.091,0.168 -0.143,0.248c-0.074,0.115 -0.155,0.224 -0.235,0.334c-0.162,0.221 -0.33,0.437 -0.5,0.65c-0.446,0.557 -0.91,1.099 -1.375,1.64l-0.309,0.358c-0.412,0.476 -0.825,0.951 -1.237,1.427c-0.308,0.356 -0.617,0.711 -0.922,1.069c-0.363,0.424 -0.724,0.851 -1.081,1.28c-0.531,0.638 -1.054,1.283 -1.559,1.942c-0.337,0.44 -0.667,0.885 -0.985,1.339c-0.307,0.438 -0.601,0.885 -0.874,1.345c-0.205,0.346 -0.4,0.699 -0.561,1.068c-0.228,0.525 -0.372,1.082 -0.486,1.642c-0.133,0.657 -0.221,1.322 -0.285,1.989c-0.099,1.038 -0.14,2.08 -0.147,3.122c-0.004,0.596 0.005,1.192 0.023,1.788c0.013,0.425 0.03,0.85 0.054,1.274c0.008,0.131 0.018,0.261 0.026,0.392c0.001,0.024 0.006,0.11 0.005,0.128c0,0.074 -0.006,0.148 -0.013,0.222c-0.007,0.069 -0.016,0.138 -0.026,0.207c-0.037,0.248 -0.096,0.491 -0.175,0.729c-0.158,0.475 -0.389,0.922 -0.663,1.34c-0.274,0.418 -0.591,0.807 -0.93,1.173c-0.159,0.172 -0.323,0.339 -0.491,0.503c-0.091,0.088 -0.182,0.178 -0.28,0.259c-0.042,0.035 -0.087,0.069 -0.132,0.1c-0.229,0.159 -0.49,0.27 -0.761,0.332c-0.115,0.026 -0.231,0.043 -0.348,0.053c-0.059,0.004 -0.119,0.005 -0.179,0.007l-1.332,0c14.534,26.578 27.117,54.325 37.564,83.058c0.471,-0.754 0.96,-1.508 1.462,-2.263c5.196,-4.94 12.217,-8.935 21.39,-11.817c1.738,-5.034 3.855,-8.723 6.806,-9.453l0.1,0c-1.261,-1.002 -2.045,-2.397 -2.045,-3.939c0,-2.11 1.876,-5.695 3.658,-8.626c-1.615,-0.841 -2.685,-2.31 -2.685,-3.979c0,-2.609 2.614,-4.727 5.833,-4.727c3.22,0 5.834,2.118 5.834,4.727c0,1.669 -1.071,3.138 -2.686,3.979c1.782,2.931 3.658,6.516 3.658,8.626c0,1.542 -0.783,2.937 -2.045,3.939l0.101,0c2.95,0.73 5.067,4.419 6.806,9.453c9.173,2.882 16.194,6.877 21.39,11.817c3.172,4.769 5.816,9.514 6.805,14.18l10.695,0l19.446,12.605c-3.817,1.764 -9.02,2.944 -16.529,3.151c-0.991,-0.229 -1.982,-0.456 -2.973,-0.681l-18.169,76.55l3.641,1.598c-0.345,1.285 -1.688,2.363 -3.662,3.309c0.102,0.161 0.204,0.323 0.306,0.484c0.218,0.348 0.434,0.696 0.645,1.048c0.138,0.229 0.274,0.46 0.406,0.693c0.134,0.239 0.266,0.48 0.375,0.732c0.073,0.168 0.134,0.342 0.182,0.519c0.092,0.333 0.137,0.679 0.124,1.024c-0.016,0.414 -0.118,0.824 -0.307,1.193c-0.043,0.085 -0.092,0.168 -0.143,0.248c-0.074,0.115 -0.155,0.224 -0.235,0.334c-0.162,0.221 -0.33,0.437 -0.501,0.651c-0.445,0.557 -0.91,1.098 -1.374,1.639l-0.309,0.358c-0.413,0.476 -0.825,0.951 -1.237,1.427c-0.309,0.356 -0.617,0.711 -0.923,1.069c-0.362,0.424 -0.723,0.851 -1.08,1.28c-0.531,0.638 -1.054,1.283 -1.559,1.942c-0.338,0.44 -0.668,0.885 -0.985,1.339c-0.307,0.438 -0.601,0.885 -0.874,1.345c-0.205,0.346 -0.4,0.699 -0.561,1.068c-0.228,0.526 -0.372,1.082 -0.486,1.642c-0.133,0.657 -0.222,1.322 -0.285,1.99c-0.099,1.037 -0.14,2.079 -0.147,3.121c-0.004,0.596 0.004,1.192 0.022,1.788c0.013,0.425 0.031,0.85 0.055,1.274c0.008,0.131 0.018,0.262 0.025,0.392c0.002,0.024 0.006,0.11 0.006,0.128c0,0.074 -0.006,0.148 -0.013,0.222c-0.008,0.069 -0.016,0.138 -0.026,0.207c-0.037,0.248 -0.096,0.492 -0.175,0.729c-0.158,0.475 -0.389,0.923 -0.663,1.34c-0.275,0.418 -0.591,0.807 -0.93,1.173c-0.159,0.172 -0.323,0.34 -0.492,0.503c-0.091,0.088 -0.181,0.178 -0.279,0.259c-0.043,0.035 -0.087,0.069 -0.132,0.1c-0.229,0.159 -0.49,0.27 -0.762,0.332c-0.114,0.026 -0.23,0.044 -0.347,0.053c-0.059,0.004 -0.119,0.005 -0.179,0.007l-21.275,0c2.143,20.586 3.241,41.474 3.241,62.612l-76.08,0c0,-297.214 -247.022,-538.154 -551.74,-538.154c-304.717,0 -551.74,240.94 -551.74,538.154l-76.08,0c0,-21.138 1.098,-42.026 3.242,-62.612l-22.696,0c-0.059,-0.002 -0.119,-0.003 -0.179,-0.007c-0.116,-0.009 -0.233,-0.027 -0.347,-0.053c-0.271,-0.062 -0.532,-0.173 -0.761,-0.332c-0.046,-0.031 -0.09,-0.065 -0.133,-0.1c-0.097,-0.081 -0.188,-0.171 -0.279,-0.259c-0.168,-0.163 -0.332,-0.331 -0.491,-0.503c-0.339,-0.366 -0.656,-0.755 -0.93,-1.173c-0.274,-0.417 -0.505,-0.865 -0.663,-1.34c-0.079,-0.237 -0.138,-0.481 -0.175,-0.729c-0.01,-0.069 -0.019,-0.138 -0.026,-0.207c-0.008,-0.074 -0.013,-0.148 -0.014,-0.222c0,-0.018 0.005,-0.104 0.006,-0.128c0.008,-0.13 0.017,-0.261 0.025,-0.392c0.024,-0.424 0.042,-0.849 0.055,-1.274c0.018,-0.596 0.026,-1.192 0.022,-1.788c-0.006,-1.042 -0.047,-2.084 -0.146,-3.121c-0.064,-0.668 -0.152,-1.333 -0.286,-1.99c-0.114,-0.56 -0.257,-1.116 -0.486,-1.642c-0.16,-0.369 -0.355,-0.722 -0.56,-1.068c-0.273,-0.46 -0.568,-0.907 -0.874,-1.345c-0.318,-0.454 -0.648,-0.899 -0.985,-1.339c-0.506,-0.659 -1.029,-1.304 -1.559,-1.942c-0.358,-0.429 -0.718,-0.856 -1.081,-1.28c-0.305,-0.358 -0.614,-0.713 -0.922,-1.069c-0.412,-0.476 -0.825,-0.951 -1.237,-1.427l-0.31,-0.358c-0.464,-0.541 -0.928,-1.082 -1.374,-1.639c-0.171,-0.214 -0.339,-0.43 -0.5,-0.651c-0.081,-0.11 -0.161,-0.219 -0.235,-0.334c-0.052,-0.08 -0.1,-0.163 -0.144,-0.248c-0.189,-0.369 -0.291,-0.779 -0.307,-1.193c-0.013,-0.345 0.033,-0.691 0.124,-1.024c0.049,-0.177 0.11,-0.351 0.183,-0.519c0.108,-0.252 0.24,-0.493 0.375,-0.732c0.131,-0.233 0.267,-0.464 0.405,-0.693c0.211,-0.352 0.428,-0.7 0.645,-1.048c0.102,-0.161 0.204,-0.323 0.306,-0.484c-1.974,-0.946 -3.316,-2.024 -3.662,-3.309l3.641,-1.598l-18.168,-76.55c-0.991,0.225 -1.982,0.452 -2.974,0.681c-7.508,-0.207 -12.711,-1.387 -16.528,-3.151l19.445,-12.605l10.695,0c0.989,-4.666 3.633,-9.41 6.806,-14.18c5.196,-4.94 12.217,-8.935 21.39,-11.817c1.738,-5.035 3.855,-8.724 6.806,-9.453l0.1,0c-1.262,-1.002 -2.045,-2.397 -2.045,-3.939c0,-2.11 1.876,-5.695 3.658,-8.626c-1.615,-0.841 -2.685,-2.31 -2.685,-3.979c0,-2.609 2.613,-4.727 5.833,-4.727c3.22,0 5.834,2.118 5.834,4.727c0,1.669 -1.071,3.138 -2.686,3.979c1.782,2.931 3.658,6.516 3.658,8.626c0,1.542 -0.783,2.937 -2.045,3.939l0.101,0c2.95,0.73 5.067,4.419 6.805,9.453c9.173,2.882 16.195,6.877 21.39,11.817c0.827,1.243 1.619,2.485 2.354,3.724c10.55,-29.254 23.312,-57.49 38.093,-84.519l-2.753,0c-0.06,-0.002 -0.119,-0.003 -0.179,-0.007c-0.117,-0.01 -0.233,-0.027 -0.347,-0.053c-0.272,-0.062 -0.532,-0.173 -0.761,-0.332c-0.046,-0.031 -0.09,-0.065 -0.133,-0.1c-0.098,-0.081 -0.188,-0.171 -0.279,-0.259c-0.168,-0.164 -0.333,-0.331 -0.492,-0.503c-0.339,-0.366 -0.655,-0.755 -0.929,-1.173c-0.274,-0.418 -0.506,-0.865 -0.663,-1.34c-0.079,-0.238 -0.139,-0.481 -0.175,-0.729c-0.011,-0.069 -0.019,-0.138 -0.026,-0.207c-0.008,-0.074 -0.014,-0.148 -0.014,-0.222c0,-0.018 0.005,-0.104 0.006,-0.128c0.007,-0.131 0.017,-0.261 0.025,-0.392c0.024,-0.424 0.042,-0.849 0.055,-1.274c0.018,-0.596 0.026,-1.192 0.022,-1.788c-0.006,-1.042 -0.047,-2.084 -0.146,-3.122c-0.064,-0.667 -0.153,-1.332 -0.286,-1.989c-0.114,-0.56 -0.257,-1.117 -0.486,-1.642c-0.161,-0.369 -0.356,-0.722 -0.561,-1.068c-0.272,-0.46 -0.567,-0.907 -0.874,-1.345c-0.317,-0.454 -0.647,-0.899 -0.985,-1.339c-0.505,-0.659 -1.028,-1.304 -1.559,-1.942c-0.357,-0.429 -0.717,-0.856 -1.08,-1.28c-0.306,-0.358 -0.614,-0.713 -0.922,-1.069c-0.413,-0.476 -0.825,-0.951 -1.237,-1.427l-0.31,-0.358c-0.464,-0.541 -0.929,-1.083 -1.374,-1.64c-0.171,-0.213 -0.339,-0.429 -0.5,-0.65c-0.081,-0.11 -0.162,-0.219 -0.236,-0.334c-0.051,-0.08 -0.099,-0.163 -0.143,-0.248c-0.189,-0.369 -0.291,-0.779 -0.307,-1.193c-0.013,-0.345 0.033,-0.691 0.124,-1.024c0.048,-0.177 0.11,-0.351 0.182,-0.52c0.109,-0.251 0.241,-0.492 0.375,-0.731c0.132,-0.233 0.268,-0.464 0.406,-0.694c0.211,-0.351 0.427,-0.7 0.645,-1.047c0.102,-0.162 0.204,-0.323 0.306,-0.484c-1.974,-0.946 -3.316,-2.024 -3.662,-3.309l3.641,-1.598l-18.168,-76.55c-0.991,0.225 -1.983,0.452 -2.974,0.681c-7.509,-0.207 -12.712,-1.387 -16.529,-3.151l19.446,-12.605l10.695,0c0.989,-4.666 3.633,-9.411 6.806,-14.18c5.195,-4.94 12.217,-8.935 21.39,-11.817c1.738,-5.035 3.855,-8.724 6.806,-9.454l0.1,0c-1.262,-1.001 -2.045,-2.396 -2.045,-3.939c0,-2.109 1.876,-5.695 3.658,-8.625c-1.615,-0.841 -2.686,-2.31 -2.686,-3.979c0,-2.609 2.614,-4.727 5.834,-4.727c3.22,0 5.834,2.118 5.834,4.727c0,1.669 -1.071,3.138 -2.686,3.979c1.782,2.93 3.658,6.516 3.658,8.625c0,1.543 -0.783,2.938 -2.045,3.939l0.1,0c2.951,0.731 5.068,4.42 6.806,9.454c9.173,2.882 16.194,6.877 21.39,11.817c3.173,4.769 5.817,9.514 6.806,14.18l10.695,0l17.57,11.39c19.97,-21.923 41.529,-42.437 64.501,-61.37l-0.155,-0.188c-0.357,-0.429 -0.718,-0.856 -1.081,-1.28c-0.305,-0.358 -0.614,-0.713 -0.922,-1.069c-0.412,-0.476 -0.825,-0.951 -1.237,-1.427l-0.309,-0.358c-0.465,-0.541 -0.929,-1.082 -1.375,-1.639c-0.17,-0.214 -0.338,-0.43 -0.5,-0.651c-0.08,-0.11 -0.161,-0.219 -0.235,-0.334c-0.052,-0.08 -0.1,-0.163 -0.143,-0.248c-0.19,-0.369 -0.292,-0.779 -0.307,-1.193c-0.013,-0.345 0.032,-0.691 0.123,-1.024c0.049,-0.177 0.11,-0.351 0.183,-0.519c0.109,-0.252 0.241,-0.493 0.375,-0.732c0.131,-0.233 0.268,-0.464 0.406,-0.693c0.211,-0.352 0.427,-0.7 0.645,-1.048c0.101,-0.161 0.203,-0.323 0.306,-0.484c-1.974,-0.946 -3.317,-2.024 -3.663,-3.309l3.641,-1.598l-18.168,-76.55c-0.991,0.225 -1.982,0.452 -2.974,0.681c-7.508,-0.207 -12.711,-1.387 -16.528,-3.151l19.445,-12.605l10.695,0c0.989,-4.666 3.633,-9.41 6.806,-14.18c5.196,-4.94 12.217,-8.935 21.39,-11.817c1.738,-5.035 3.856,-8.724 6.806,-9.453l0.1,0c-1.261,-1.002 -2.045,-2.397 -2.045,-3.939c0,-2.11 1.876,-5.695 3.658,-8.626c-1.615,-0.841 -2.685,-2.31 -2.685,-3.979c0,-2.609 2.614,-4.727 5.833,-4.727c3.22,0 5.834,2.118 5.834,4.727c0,1.669 -1.071,3.138 -2.686,3.979c1.782,2.931 3.658,6.516 3.658,8.626c0,1.542 -0.783,2.937 -2.044,3.939l0.1,0c2.951,0.73 5.067,4.419 6.806,9.453c9.173,2.882 16.194,6.877 21.39,11.817c3.172,4.769 5.816,9.514 6.805,14.18l10.695,0l19.446,12.605c-3.817,1.764 -9.02,2.944 -16.529,3.151c-1.38,-0.319 -2.761,-0.634 -4.141,-0.944l-13.605,48.406c36.38,-23.013 75.356,-42.454 116.406,-57.81c0.019,-0.035 0.039,-0.069 0.058,-0.104c0.131,-0.233 0.268,-0.464 0.406,-0.693c0.211,-0.352 0.427,-0.7 0.645,-1.048c0.101,-0.161 0.203,-0.323 0.306,-0.484c-1.974,-0.946 -3.317,-2.024 -3.663,-3.309l3.641,-1.598l-18.168,-76.55c-0.991,0.225 -1.982,0.452 -2.974,0.681c-7.508,-0.207 -12.711,-1.387 -16.528,-3.151l19.445,-12.605l10.695,0c0.989,-4.666 3.633,-9.41 6.806,-14.18c5.196,-4.94 12.217,-8.935 21.39,-11.817c1.738,-5.035 3.856,-8.724 6.806,-9.453l0.1,0c-1.261,-1.002 -2.045,-2.397 -2.045,-3.939c0,-2.11 1.876,-5.695 3.658,-8.626c-1.615,-0.841 -2.685,-2.31 -2.685,-3.979c0,-2.609 2.614,-4.727 5.833,-4.727c3.22,0 5.834,2.118 5.834,4.727c0,1.669 -1.071,3.138 -2.686,3.979c1.782,2.931 3.658,6.516 3.658,8.626c0,1.542 -0.783,2.937 -2.045,3.939l0.101,0c2.951,0.73 5.067,4.419 6.806,9.453c9.173,2.882 16.194,6.877 21.39,11.817c3.172,4.769 5.816,9.514 6.805,14.18l10.695,0ZM198.928,581.293c-0.731,-3.45 -2.367,-6.942 -4.452,-10.456c-2.508,6.955 -4.891,13.968 -7.147,21.035l0.377,0.066l-14.829,79.164l-3.754,0l2.371,-18.857c-1.963,9.481 -3.701,19.041 -5.209,28.675l10.281,-0.43l5.483,-0.437c0.127,0.202 0.253,0.405 0.378,0.609c0.192,0.315 0.382,0.631 0.562,0.953c0.045,0.08 0.089,0.16 0.132,0.241c0.026,0.048 0.05,0.096 0.072,0.145c0.021,0.047 0.039,0.095 0.051,0.145l-0.012,0.017c-0.252,0.34 -0.517,0.671 -0.787,0.997c-0.307,0.372 -0.622,0.738 -0.936,1.105c-0.149,0.173 -0.299,0.347 -0.449,0.52c-0.351,0.406 -0.703,0.811 -1.055,1.215c-0.202,0.232 -0.404,0.464 -0.604,0.697c-0.522,0.607 -1.04,1.216 -1.551,1.832c-0.666,0.803 -1.32,1.616 -1.944,2.451c-0.242,0.323 -0.478,0.649 -0.709,0.978c-0.324,0.464 -0.637,0.936 -0.93,1.42c-0.397,0.656 -0.763,1.337 -1.029,2.058c-0.218,0.59 -0.375,1.202 -0.5,1.818c-0.169,0.829 -0.277,1.669 -0.351,2.511c-0.106,1.198 -0.145,2.401 -0.143,3.604c0.002,0.792 0.02,1.583 0.057,2.374c0.007,0.125 0.013,0.25 0.02,0.374c0.009,0.138 0.017,0.275 0.027,0.413l-0.002,0.01c-0.018,0.108 -0.052,0.212 -0.094,0.313c-0.039,0.094 -0.086,0.186 -0.137,0.274c-0.169,0.291 -0.378,0.554 -0.602,0.804l-8.826,0c-0.13,1.182 -0.257,2.364 -0.38,3.547l10.172,0c0.06,-0.002 0.12,-0.003 0.179,-0.007c0.117,-0.009 0.233,-0.027 0.347,-0.053c0.257,-0.059 0.504,-0.161 0.724,-0.306c0.059,-0.039 0.116,-0.081 0.171,-0.127c0.097,-0.081 0.187,-0.17 0.278,-0.258c0.181,-0.176 0.358,-0.356 0.528,-0.542c0.361,-0.395 0.696,-0.815 0.98,-1.269c0.246,-0.394 0.452,-0.814 0.593,-1.256c0.036,-0.113 0.068,-0.228 0.095,-0.343c0.032,-0.138 0.057,-0.277 0.075,-0.418c0.015,-0.114 0.027,-0.23 0.028,-0.346c0,-0.024 -0.002,-0.049 -0.003,-0.073l-0.003,-0.055c-0.006,-0.1 -0.013,-0.2 -0.02,-0.3c-0.007,-0.124 -0.014,-0.248 -0.021,-0.372c-0.015,-0.298 -0.026,-0.596 -0.036,-0.894c-0.023,-0.729 -0.032,-1.457 -0.022,-2.186c0.011,-0.899 0.049,-1.798 0.131,-2.693c0.065,-0.711 0.156,-1.42 0.298,-2.12c0.084,-0.414 0.184,-0.827 0.324,-1.227c0.049,-0.14 0.103,-0.279 0.162,-0.415c0.172,-0.397 0.385,-0.774 0.606,-1.144c0.325,-0.544 0.682,-1.068 1.051,-1.583c0.896,-1.247 1.87,-2.435 2.859,-3.608c0.181,-0.213 0.362,-0.426 0.543,-0.639c0.153,-0.178 0.306,-0.356 0.46,-0.534c0.669,-0.774 1.34,-1.546 2.009,-2.32c0.464,-0.541 0.929,-1.082 1.374,-1.64c0.171,-0.213 0.339,-0.429 0.5,-0.65c0.087,-0.118 0.174,-0.236 0.253,-0.361c0.045,-0.071 0.087,-0.145 0.126,-0.221c0.189,-0.369 0.291,-0.779 0.307,-1.193c0.013,-0.345 -0.033,-0.691 -0.124,-1.024c-0.053,-0.193 -0.121,-0.382 -0.202,-0.565c-0.105,-0.235 -0.229,-0.462 -0.356,-0.686c-0.066,-0.118 -0.134,-0.235 -0.202,-0.352l0.77,-0.061c1.57,-0.849 2.341,-1.702 1.945,-2.56c0.114,-0.209 -1.171,-0.977 -3.031,-1.899l22.224,-79.073c1.38,0.31 2.76,0.625 4.141,0.944c7.509,-0.207 12.712,-1.387 16.529,-3.151l-19.446,-12.605l-10.695,0ZM1400.84,707.931c-0.223,-0.25 -0.433,-0.514 -0.602,-0.804c-0.051,-0.088 -0.097,-0.18 -0.137,-0.274c-0.042,-0.101 -0.075,-0.205 -0.094,-0.313l-0.001,-0.01c0.009,-0.138 0.018,-0.275 0.026,-0.413c0.007,-0.124 0.014,-0.249 0.02,-0.374c0.037,-0.791 0.055,-1.582 0.057,-2.374c0.003,-1.203 -0.037,-2.406 -0.142,-3.604c-0.075,-0.842 -0.183,-1.682 -0.351,-2.511c-0.126,-0.616 -0.283,-1.228 -0.501,-1.818c-0.266,-0.721 -0.632,-1.402 -1.029,-2.058c-0.293,-0.484 -0.605,-0.956 -0.93,-1.42c-0.23,-0.329 -0.467,-0.655 -0.708,-0.978c-0.625,-0.835 -1.279,-1.648 -1.945,-2.451c-0.511,-0.616 -1.029,-1.225 -1.551,-1.832c-0.2,-0.233 -0.402,-0.465 -0.603,-0.697c-0.352,-0.404 -0.704,-0.809 -1.055,-1.215c-0.15,-0.173 -0.3,-0.347 -0.45,-0.52c-0.314,-0.367 -0.628,-0.733 -0.936,-1.105c-0.269,-0.326 -0.534,-0.657 -0.786,-0.997l-0.012,-0.017c0.011,-0.05 0.03,-0.098 0.05,-0.145c0.022,-0.049 0.047,-0.097 0.072,-0.145c0.043,-0.081 0.087,-0.161 0.132,-0.241c0.181,-0.322 0.371,-0.638 0.563,-0.953c0.124,-0.204 0.25,-0.407 0.377,-0.609l5.483,0.437l11.71,0.49c-2.307,-14.754 -5.154,-29.334 -8.521,-43.722l4.254,33.844l-3.753,0l-14.83,-79.164c0.575,-0.101 1.149,-0.2 1.723,-0.298c-2.391,-7.484 -4.926,-14.906 -7.601,-22.264c-2.506,4.006 -4.511,7.99 -5.344,11.917l-10.695,0l-19.445,12.605c3.817,1.764 9.02,2.944 16.528,3.151c1.381,-0.319 2.762,-0.634 4.142,-0.944l22.223,79.073c-1.86,0.922 -3.145,1.69 -3.03,1.899c-0.397,0.858 0.374,1.711 1.944,2.56l0.77,0.061c-0.068,0.117 -0.136,0.234 -0.202,0.352c-0.126,0.224 -0.25,0.451 -0.355,0.686c-0.082,0.183 -0.15,0.372 -0.203,0.565c-0.091,0.333 -0.137,0.679 -0.123,1.024c0.015,0.414 0.118,0.824 0.307,1.193c0.038,0.076 0.081,0.15 0.126,0.221c0.078,0.125 0.165,0.243 0.252,0.361c0.162,0.221 0.33,0.437 0.5,0.65c0.446,0.558 0.91,1.099 1.375,1.64c0.668,0.774 1.34,1.546 2.009,2.32c0.153,0.178 0.306,0.356 0.459,0.534c0.182,0.213 0.362,0.426 0.543,0.639c0.99,1.173 1.964,2.361 2.859,3.608c0.37,0.515 0.726,1.039 1.051,1.583c0.222,0.37 0.434,0.747 0.606,1.144c0.059,0.136 0.114,0.275 0.163,0.415c0.139,0.4 0.239,0.813 0.323,1.227c0.143,0.7 0.233,1.409 0.298,2.12c0.082,0.895 0.12,1.794 0.132,2.693c0.009,0.729 0.001,1.457 -0.023,2.186c-0.009,0.298 -0.021,0.596 -0.036,0.894c-0.006,0.124 -0.013,0.248 -0.021,0.372c-0.006,0.1 -0.014,0.2 -0.02,0.3l-0.003,0.055c-0.001,0.024 -0.003,0.049 -0.003,0.073c0.001,0.116 0.014,0.232 0.029,0.346c0.018,0.141 0.042,0.28 0.074,0.418c0.027,0.115 0.059,0.23 0.095,0.343c0.141,0.442 0.348,0.862 0.594,1.256c0.283,0.454 0.618,0.874 0.979,1.269c0.171,0.186 0.347,0.366 0.528,0.542c0.091,0.088 0.182,0.177 0.279,0.258c0.054,0.046 0.112,0.088 0.171,0.127c0.219,0.145 0.467,0.247 0.723,0.306c0.114,0.026 0.231,0.044 0.348,0.053c0.059,0.004 0.119,0.005 0.178,0.007l11.593,0c-0.123,-1.183 -0.25,-2.365 -0.38,-3.547l-10.247,0ZM1407.49,680.98c1.396,8.922 2.594,17.907 3.59,26.951l3.16,0l0,-26.669l-6.75,-0.282ZM166.285,680.92l-8.178,0.342l0,26.669l4.58,0c0.998,-9.064 2.199,-18.069 3.598,-27.011ZM130.53,679.282c-0.05,0.079 -0.1,0.157 -0.15,0.235c-0.276,0.434 -0.55,0.869 -0.816,1.309c-0.158,0.261 -0.314,0.523 -0.463,0.789c-0.045,0.08 -0.089,0.16 -0.132,0.241c-0.046,0.086 -0.091,0.174 -0.117,0.268c-0.002,0.008 -0.002,0.008 -0.005,0.017l-0.001,0.005c0.041,0.056 0.082,0.111 0.124,0.166c0.308,0.408 0.633,0.802 0.963,1.192c0.362,0.43 0.73,0.856 1.097,1.281c0.502,0.58 1.006,1.158 1.508,1.737l0.151,0.175c0.238,0.277 0.475,0.555 0.711,0.832c0.451,0.531 0.898,1.065 1.337,1.605c0.691,0.848 1.365,1.711 2,2.603c0.42,0.589 0.823,1.192 1.191,1.816c0.284,0.482 0.55,0.976 0.769,1.492c0.277,0.652 0.469,1.337 0.618,2.029c0.19,0.888 0.309,1.788 0.388,2.691c0.109,1.236 0.148,2.477 0.142,3.717c-0.004,1.004 -0.033,2.008 -0.1,3.01l-0.003,0.037c0.017,0.106 0.049,0.207 0.089,0.306c0.038,0.094 0.084,0.186 0.134,0.274c0.162,0.286 0.368,0.545 0.584,0.791l0.028,0.031l13.406,0l0,-26.674l-19.225,-0.767c-1.489,-0.386 -2.915,-0.785 -4.228,-1.208ZM1431.77,707.931l0.027,-0.031c0.217,-0.246 0.422,-0.505 0.584,-0.791c0.051,-0.088 0.096,-0.18 0.135,-0.274c0.04,-0.099 0.071,-0.2 0.088,-0.306l-0.003,-0.037c-0.067,-1.002 -0.096,-2.006 -0.1,-3.01c-0.005,-1.24 0.033,-2.481 0.142,-3.717c0.08,-0.903 0.198,-1.803 0.389,-2.691c0.148,-0.692 0.34,-1.377 0.617,-2.029c0.22,-0.516 0.486,-1.01 0.77,-1.492c0.367,-0.624 0.771,-1.227 1.191,-1.816c0.634,-0.892 1.308,-1.755 1.999,-2.603c0.44,-0.54 0.886,-1.074 1.337,-1.605c0.237,-0.277 0.474,-0.555 0.711,-0.832l0.151,-0.175c0.502,-0.579 1.006,-1.157 1.508,-1.737c0.368,-0.425 0.735,-0.851 1.098,-1.281c0.329,-0.39 0.655,-0.784 0.963,-1.192c0.041,-0.055 0.083,-0.11 0.123,-0.166l-0.001,-0.005c-0.002,-0.009 -0.002,-0.009 -0.004,-0.017c-0.027,-0.094 -0.072,-0.182 -0.118,-0.268c-0.043,-0.081 -0.086,-0.161 -0.131,-0.241c-0.15,-0.266 -0.306,-0.528 -0.464,-0.789c-0.266,-0.44 -0.539,-0.875 -0.816,-1.309c-0.05,-0.078 -0.1,-0.156 -0.15,-0.235c-1.312,0.423 -2.738,0.822 -4.228,1.208l-19.225,0.767l0,26.674l13.407,0ZM1378.7,593.027l14.802,79.016c-1.269,0.453 -2.669,1.018 -4.02,1.604l-22.011,-78.32c3.745,-0.814 7.488,-1.584 11.229,-2.3ZM193.648,593.027l-14.801,79.016c1.268,0.453 2.669,1.018 4.019,1.604l22.012,-78.32c-3.745,-0.814 -7.488,-1.584 -11.23,-2.3ZM125.409,592.851c-4.306,0.813 -8.615,1.701 -12.927,2.645l18.108,76.297l4.257,-0.415l-9.438,-78.527ZM1446.94,592.851c4.306,0.813 8.615,1.701 12.926,2.645l-18.108,76.297l-4.256,-0.415l9.438,-78.527ZM138.572,590.747l-0.897,0c-2.959,0.453 -5.92,0.948 -8.882,1.48l9.48,78.875l4.951,0l-4.652,-80.355ZM173.116,590.747l-26.433,0l4.652,80.355l11.68,0l10.101,-80.355ZM1434.67,590.747l-0.897,0l-4.651,80.355l4.95,0l9.48,-78.875c-2.962,-0.532 -5.923,-1.027 -8.882,-1.48ZM1425.67,590.747l-26.432,0l10.1,80.355l11.681,0l4.651,-80.355ZM180.455,590.747l-1.231,0l-7.73,61.498c4.246,-20.515 9.544,-40.657 15.835,-60.373c-2.292,-0.399 -4.583,-0.775 -6.874,-1.125ZM1393.13,590.747l-1.232,0c-1.842,0.282 -3.684,0.58 -5.528,0.893c4.784,14.968 8.994,30.182 12.606,45.618l-5.846,-46.511ZM262.684,486.318c0.06,-0.002 0.119,-0.003 0.178,-0.007c0.117,-0.01 0.234,-0.027 0.348,-0.053c0.256,-0.059 0.504,-0.161 0.724,-0.307c0.059,-0.039 0.116,-0.08 0.17,-0.126c0.098,-0.081 0.188,-0.17 0.279,-0.258c0.181,-0.176 0.358,-0.356 0.528,-0.542c0.361,-0.395 0.696,-0.815 0.98,-1.269c0.245,-0.394 0.452,-0.814 0.593,-1.256c0.036,-0.113 0.068,-0.228 0.095,-0.343c0.032,-0.138 0.056,-0.278 0.075,-0.418c0.014,-0.115 0.027,-0.23 0.028,-0.346c0,-0.024 -0.002,-0.049 -0.003,-0.073l-0.003,-0.055c-0.006,-0.1 -0.014,-0.2 -0.02,-0.3c-0.008,-0.124 -0.015,-0.248 -0.021,-0.372c-0.015,-0.298 -0.026,-0.596 -0.036,-0.894c-0.023,-0.729 -0.032,-1.457 -0.023,-2.186c0.012,-0.899 0.05,-1.798 0.132,-2.693c0.065,-0.711 0.155,-1.42 0.298,-2.12c0.084,-0.414 0.184,-0.827 0.324,-1.227c0.049,-0.14 0.103,-0.279 0.162,-0.415c0.172,-0.397 0.384,-0.774 0.606,-1.145c0.325,-0.543 0.681,-1.068 1.051,-1.582c0.895,-1.247 1.87,-2.435 2.859,-3.608c0.181,-0.213 0.362,-0.426 0.543,-0.639c0.153,-0.179 0.306,-0.357 0.46,-0.535c0.668,-0.773 1.34,-1.545 2.009,-2.319c0.464,-0.541 0.928,-1.083 1.374,-1.64c0.171,-0.213 0.339,-0.429 0.5,-0.65c0.087,-0.118 0.174,-0.237 0.252,-0.361c0.046,-0.072 0.088,-0.145 0.127,-0.221c0.189,-0.369 0.291,-0.779 0.307,-1.193c0.013,-0.345 -0.033,-0.691 -0.124,-1.024c-0.053,-0.193 -0.121,-0.382 -0.203,-0.565c-0.104,-0.235 -0.229,-0.462 -0.355,-0.686c-0.066,-0.118 -0.134,-0.235 -0.202,-0.352l0.77,-0.061c1.57,-0.85 2.341,-1.702 1.944,-2.561c0.115,-0.208 -1.17,-0.976 -3.03,-1.898l14.409,-51.268c-1.962,2.464 -3.905,4.942 -5.829,7.435l-11.889,42.302c-1.35,-0.587 -2.751,-1.151 -4.02,-1.604l4.856,-25.923c-2.833,3.909 -5.62,7.851 -8.361,11.826l-2.465,13.156l-3.753,0l0.614,-4.885c-3.287,4.939 -6.504,9.926 -9.648,14.962l16.477,-0.689l5.483,-0.437c0.127,0.202 0.253,0.405 0.377,0.609c0.192,0.315 0.382,0.631 0.563,0.953c0.045,0.08 0.089,0.16 0.132,0.241c0.025,0.048 0.05,0.096 0.072,0.145c0.021,0.047 0.039,0.095 0.051,0.145l-0.013,0.017c-0.251,0.34 -0.516,0.671 -0.786,0.997c-0.308,0.372 -0.622,0.738 -0.936,1.105c-0.15,0.173 -0.3,0.347 -0.449,0.52c-0.352,0.406 -0.704,0.81 -1.055,1.215c-0.202,0.232 -0.404,0.464 -0.604,0.697c-0.522,0.607 -1.04,1.216 -1.551,1.832c-0.666,0.803 -1.32,1.616 -1.945,2.451c-0.241,0.323 -0.477,0.648 -0.708,0.978c-0.325,0.464 -0.637,0.935 -0.93,1.42c-0.397,0.656 -0.763,1.337 -1.029,2.058c-0.218,0.59 -0.375,1.202 -0.5,1.818c-0.169,0.829 -0.277,1.669 -0.351,2.511c-0.106,1.198 -0.146,2.401 -0.143,3.604c0.002,0.791 0.02,1.583 0.057,2.374c0.006,0.125 0.013,0.249 0.02,0.374c0.008,0.138 0.017,0.275 0.026,0.413l-0.001,0.01c-0.019,0.108 -0.052,0.212 -0.094,0.312c-0.04,0.095 -0.086,0.186 -0.137,0.275c-0.169,0.29 -0.379,0.554 -0.602,0.804l-13.407,0l0,-23.555c-1.389,2.255 -2.763,4.519 -4.123,6.793l0,16.762l-9.664,0c-0.656,1.18 -1.308,2.362 -1.955,3.547l30.115,0ZM1328.16,482.771l0,-19.124c-1.36,-2.251 -2.734,-4.493 -4.123,-6.726l0,25.85l-13.407,0c-0.223,-0.25 -0.433,-0.514 -0.601,-0.804c-0.052,-0.089 -0.098,-0.18 -0.137,-0.275c-0.042,-0.1 -0.076,-0.204 -0.094,-0.312l-0.002,-0.01c0.01,-0.138 0.018,-0.275 0.026,-0.413c0.007,-0.125 0.014,-0.249 0.02,-0.374c0.038,-0.791 0.055,-1.583 0.057,-2.374c0.003,-1.203 -0.037,-2.406 -0.142,-3.604c-0.074,-0.842 -0.182,-1.682 -0.351,-2.511c-0.126,-0.616 -0.282,-1.228 -0.5,-1.818c-0.267,-0.721 -0.633,-1.402 -1.03,-2.058c-0.292,-0.485 -0.605,-0.956 -0.929,-1.42c-0.231,-0.33 -0.468,-0.655 -0.709,-0.978c-0.625,-0.835 -1.279,-1.648 -1.945,-2.451c-0.51,-0.616 -1.029,-1.225 -1.55,-1.832c-0.201,-0.233 -0.403,-0.465 -0.604,-0.697c-0.352,-0.405 -0.704,-0.809 -1.055,-1.215c-0.15,-0.173 -0.3,-0.347 -0.449,-0.52c-0.315,-0.367 -0.629,-0.733 -0.936,-1.105c-0.27,-0.326 -0.535,-0.657 -0.787,-0.997l-0.012,-0.017c0.012,-0.05 0.03,-0.098 0.051,-0.145c0.022,-0.049 0.046,-0.097 0.071,-0.145c0.044,-0.081 0.087,-0.161 0.132,-0.241c0.181,-0.322 0.371,-0.638 0.563,-0.953c0.125,-0.204 0.251,-0.407 0.378,-0.609l5.483,0.437l17.935,0.75c-3.711,-5.946 -7.524,-11.825 -11.435,-17.635l0.942,7.497l-3.753,0l-2.99,-15.961c-2.731,-3.914 -5.507,-7.795 -8.327,-11.643l5.347,28.545c-1.269,0.453 -2.669,1.017 -4.02,1.604l-12.694,-45.169c-1.912,-2.447 -3.842,-4.88 -5.791,-7.299l15.176,53.999c-1.859,0.922 -3.145,1.69 -3.03,1.898c-0.396,0.859 0.375,1.711 1.945,2.561l0.77,0.061c-0.069,0.117 -0.136,0.234 -0.203,0.352c-0.126,0.224 -0.25,0.451 -0.355,0.686c-0.081,0.183 -0.15,0.372 -0.203,0.565c-0.091,0.333 -0.136,0.679 -0.123,1.024c0.015,0.414 0.118,0.824 0.307,1.193c0.039,0.076 0.081,0.149 0.126,0.221c0.078,0.124 0.166,0.243 0.252,0.361c0.162,0.221 0.33,0.437 0.501,0.65c0.445,0.557 0.91,1.099 1.374,1.64c0.669,0.774 1.34,1.546 2.009,2.319c0.153,0.178 0.307,0.356 0.46,0.535c0.181,0.213 0.362,0.426 0.542,0.639c0.99,1.173 1.964,2.361 2.86,3.608c0.369,0.514 0.725,1.039 1.05,1.582c0.222,0.371 0.435,0.748 0.607,1.145c0.059,0.136 0.113,0.275 0.162,0.415c0.14,0.4 0.24,0.813 0.324,1.227c0.142,0.7 0.232,1.409 0.298,2.12c0.081,0.895 0.119,1.794 0.131,2.693c0.01,0.729 0.001,1.457 -0.023,2.186c-0.009,0.298 -0.021,0.596 -0.036,0.894c-0.006,0.124 -0.013,0.248 -0.021,0.372c-0.006,0.1 -0.013,0.2 -0.019,0.3l-0.003,0.055c-0.001,0.024 -0.003,0.049 -0.003,0.073c0,0.116 0.013,0.231 0.028,0.346c0.018,0.14 0.043,0.28 0.075,0.418c0.026,0.115 0.059,0.23 0.095,0.343c0.141,0.442 0.347,0.862 0.593,1.256c0.283,0.454 0.619,0.874 0.98,1.269c0.17,0.186 0.346,0.366 0.528,0.542c0.09,0.088 0.181,0.177 0.278,0.258c0.055,0.046 0.112,0.087 0.171,0.126c0.22,0.146 0.467,0.248 0.723,0.307c0.115,0.026 0.231,0.043 0.348,0.053c0.059,0.004 0.119,0.005 0.179,0.007l31.535,0c-0.648,-1.185 -1.299,-2.367 -1.955,-3.547l-11.085,0ZM244.188,466.009l0,-9.912l-19.225,-0.767c-1.49,-0.386 -2.915,-0.785 -4.228,-1.208c-0.05,0.078 -0.1,0.157 -0.15,0.235c-0.277,0.434 -0.55,0.869 -0.816,1.309c-0.158,0.261 -0.314,0.523 -0.463,0.789c-0.045,0.079 -0.089,0.16 -0.132,0.241c-0.046,0.086 -0.091,0.174 -0.118,0.268c-0.002,0.008 -0.002,0.008 -0.004,0.016l-0.001,0.006c0.04,0.055 0.082,0.11 0.123,0.166c0.308,0.407 0.634,0.801 0.963,1.192c0.363,0.43 0.73,0.856 1.098,1.281c0.502,0.58 1.006,1.158 1.508,1.737l0.151,0.175c0.237,0.277 0.475,0.555 0.711,0.832c0.451,0.531 0.897,1.065 1.337,1.605c0.691,0.848 1.365,1.711 1.999,2.602c0.42,0.59 0.824,1.193 1.191,1.817c0.284,0.482 0.551,0.976 0.77,1.492c0.277,0.652 0.469,1.337 0.618,2.029c0.19,0.887 0.309,1.788 0.388,2.691c0.109,1.236 0.147,2.477 0.142,3.717c-0.004,1.004 -0.033,2.008 -0.1,3.01l-0.003,0.037c0.017,0.105 0.049,0.207 0.089,0.306c0.038,0.094 0.084,0.185 0.134,0.274c0.162,0.286 0.367,0.545 0.584,0.791l0.028,0.031l3.742,0c3.134,-5.641 6.356,-11.229 9.664,-16.762ZM1339.25,482.771l2.322,0l0.028,-0.031c0.216,-0.246 0.422,-0.505 0.584,-0.791c0.05,-0.089 0.096,-0.18 0.134,-0.274c0.04,-0.099 0.072,-0.201 0.088,-0.306l-0.002,-0.037c-0.068,-1.002 -0.096,-2.006 -0.101,-3.01c-0.005,-1.24 0.034,-2.481 0.142,-3.717c0.08,-0.903 0.199,-1.804 0.389,-2.691c0.148,-0.692 0.34,-1.377 0.618,-2.029c0.219,-0.516 0.485,-1.01 0.769,-1.492c0.368,-0.624 0.771,-1.227 1.191,-1.817c0.635,-0.891 1.308,-1.754 1.999,-2.602c0.44,-0.54 0.887,-1.074 1.337,-1.605c0.237,-0.277 0.474,-0.555 0.711,-0.832l0.152,-0.175c0.502,-0.579 1.005,-1.157 1.507,-1.737c0.368,-0.425 0.736,-0.851 1.098,-1.281c0.329,-0.391 0.655,-0.785 0.963,-1.192c0.041,-0.056 0.083,-0.111 0.123,-0.166l-0.001,-0.006c-0.002,-0.008 -0.002,-0.008 -0.004,-0.016c-0.027,-0.094 -0.072,-0.182 -0.117,-0.268c-0.043,-0.081 -0.087,-0.162 -0.132,-0.241c-0.149,-0.266 -0.306,-0.528 -0.463,-0.789c-0.266,-0.44 -0.54,-0.875 -0.816,-1.309c-0.05,-0.078 -0.1,-0.157 -0.151,-0.235c-1.312,0.423 -2.738,0.822 -4.228,1.208l-19.225,0.767l0,7.55c3.809,6.303 7.504,12.679 11.085,19.124ZM248.311,456.102l0,3.114c0.658,-1.068 1.319,-2.134 1.983,-3.197l-1.983,0.083ZM1323.81,456.559l0.225,0.362l0,-0.819l-0.524,-0.022l0.299,0.479ZM215.613,367.691c-4.306,0.813 -8.615,1.7 -12.926,2.644l18.108,76.298l4.256,-0.415l-9.438,-78.527ZM1356.74,367.691c4.306,0.813 8.615,1.7 12.927,2.644l-18.109,76.298l-4.256,-0.415l9.438,-78.527ZM1335.46,365.587l-26.432,0l10.101,80.355l11.68,0l4.651,-80.355ZM1344.47,365.587l-0.897,0l-4.652,80.355l4.95,0l9.48,-78.875c-2.962,-0.532 -5.922,-1.028 -8.881,-1.48ZM263.321,365.587l-26.433,0l4.651,80.355l11.681,0l10.101,-80.355ZM228.777,365.587l-0.897,0c-2.959,0.452 -5.92,0.948 -8.882,1.48l9.48,78.875l4.95,0l-4.651,-80.355ZM270.66,365.587l-1.231,0l-9.487,75.47c1.846,-2.773 3.714,-5.53 5.604,-8.271l12.365,-66.008c-2.418,-0.424 -4.835,-0.822 -7.251,-1.191ZM1302.92,365.587l-1.231,0c-2.417,0.369 -4.834,0.767 -7.252,1.191l11.84,63.203c1.957,2.805 3.891,5.626 5.801,8.464l-9.158,-72.858ZM273.907,420.96c3.611,-4.98 7.296,-9.906 11.053,-14.775l10.123,-36.018c-3.745,-0.814 -7.489,-1.584 -11.23,-2.3l-9.946,53.093ZM1297.95,418.338l-9.455,-50.471c-3.741,0.716 -7.484,1.486 -11.229,2.3l9.317,33.151c3.865,4.948 7.655,9.956 11.367,15.02ZM314.867,370.318c-3.212,0.873 -7.164,1.434 -12.122,1.571c-1.381,-0.32 -2.761,-0.635 -4.142,-0.944l-7.814,27.805c7.737,-9.715 15.767,-19.196 24.078,-28.432ZM1259.3,370.761c7.39,8.228 14.557,16.65 21.493,25.258l-7.047,-25.074c-1.38,0.309 -2.761,0.624 -4.141,0.944c-4.061,-0.112 -7.447,-0.509 -10.305,-1.128ZM1255.85,366.944c1.157,1.268 2.309,2.54 3.456,3.817c-2.426,-0.526 -4.471,-1.213 -6.224,-2.023l2.768,-1.794ZM317.398,367.523l1.875,1.215c-1.296,0.599 -2.753,1.131 -4.406,1.58c0.841,-0.934 1.685,-1.866 2.531,-2.795ZM1158.42,286.543l-0.846,-6.733c-2.223,-1.589 -4.457,-3.164 -6.702,-4.724l1.44,11.457l-3.753,0l-2.806,-14.979c-2.332,-1.587 -4.675,-3.159 -7.03,-4.716l3.866,20.636c-1.269,0.453 -2.67,1.018 -4.02,1.604l-7.684,-27.339c-1.512,-0.967 -3.029,-1.929 -4.55,-2.885l8.925,31.755c-1.86,0.922 -3.145,1.69 -3.03,1.899c-0.397,0.858 0.374,1.711 1.944,2.56l0.77,0.061c-0.068,0.117 -0.136,0.234 -0.202,0.352c-0.126,0.224 -0.251,0.451 -0.355,0.686c-0.082,0.183 -0.15,0.372 -0.203,0.565c-0.091,0.333 -0.137,0.679 -0.124,1.024c0.016,0.414 0.118,0.824 0.307,1.193c0.039,0.076 0.081,0.15 0.127,0.221c0.078,0.125 0.165,0.243 0.252,0.361c0.161,0.221 0.329,0.437 0.5,0.65c0.446,0.558 0.91,1.099 1.374,1.64c0.669,0.774 1.341,1.546 2.009,2.32c0.154,0.178 0.307,0.356 0.46,0.534c0.181,0.213 0.362,0.426 0.543,0.639c0.989,1.173 1.964,2.361 2.859,3.608c0.37,0.515 0.726,1.039 1.051,1.583c0.222,0.37 0.434,0.747 0.606,1.144c0.059,0.136 0.113,0.275 0.162,0.415c0.14,0.4 0.24,0.813 0.324,1.227c0.142,0.7 0.233,1.409 0.298,2.12c0.082,0.895 0.12,1.794 0.132,2.693c0.009,0.729 0,1.457 -0.023,2.186c-0.01,0.298 -0.021,0.596 -0.036,0.894c-0.006,0.124 -0.013,0.248 -0.021,0.372c-0.006,0.1 -0.014,0.2 -0.02,0.3l-0.003,0.055c-0.001,0.024 -0.003,0.049 -0.003,0.073c0.001,0.116 0.013,0.232 0.028,0.346c0.019,0.141 0.043,0.28 0.075,0.418c0.027,0.115 0.059,0.23 0.095,0.343c0.141,0.442 0.348,0.862 0.593,1.256c0.284,0.454 0.619,0.874 0.98,1.269c0.17,0.186 0.347,0.366 0.528,0.542c0.091,0.088 0.181,0.177 0.279,0.258c0.054,0.046 0.111,0.088 0.17,0.127c0.22,0.145 0.468,0.247 0.724,0.306c0.114,0.026 0.231,0.044 0.348,0.053c0.059,0.004 0.118,0.005 0.178,0.007l32.868,0c0.06,-0.002 0.12,-0.003 0.179,-0.007c0.117,-0.009 0.233,-0.027 0.347,-0.053c0.272,-0.062 0.532,-0.173 0.761,-0.332c0.046,-0.031 0.09,-0.065 0.133,-0.1c0.097,-0.081 0.188,-0.171 0.279,-0.259c0.168,-0.163 0.333,-0.331 0.492,-0.503c0.339,-0.366 0.655,-0.755 0.929,-1.173c0.274,-0.417 0.506,-0.865 0.663,-1.34c0.079,-0.237 0.139,-0.481 0.175,-0.729c0.011,-0.069 0.019,-0.138 0.026,-0.207c0.008,-0.074 0.014,-0.148 0.014,-0.222c0,-0.018 -0.005,-0.104 -0.006,-0.128c-0.008,-0.13 -0.017,-0.261 -0.025,-0.392c-0.024,-0.424 -0.042,-0.849 -0.055,-1.274c-0.018,-0.596 -0.026,-1.192 -0.022,-1.788c0.006,-1.042 0.047,-2.084 0.146,-3.121c0.064,-0.668 0.153,-1.333 0.286,-1.99c0.114,-0.56 0.257,-1.116 0.486,-1.642c0.161,-0.369 0.356,-0.722 0.561,-1.068c0.272,-0.46 0.567,-0.907 0.874,-1.345c0.317,-0.454 0.647,-0.899 0.984,-1.339c0.506,-0.659 1.029,-1.304 1.56,-1.942c0.14,-0.169 0.281,-0.337 0.423,-0.505c-1.004,-0.825 -2.011,-1.646 -3.02,-2.465c-0.444,0.523 -0.883,1.049 -1.316,1.58c-0.691,0.848 -1.365,1.711 -1.999,2.603c-0.42,0.589 -0.824,1.192 -1.191,1.816c-0.284,0.482 -0.551,0.976 -0.77,1.492c-0.277,0.652 -0.469,1.337 -0.618,2.029c-0.19,0.888 -0.309,1.788 -0.388,2.691c-0.109,1.236 -0.147,2.477 -0.142,3.717c0.004,1.004 0.033,2.008 0.1,3.01l0.003,0.037c-0.017,0.106 -0.049,0.207 -0.089,0.306c-0.038,0.094 -0.084,0.186 -0.134,0.274c-0.162,0.286 -0.367,0.545 -0.584,0.791l-0.028,0.031l-13.406,0l0,-26.674l12.054,-0.48c-4.186,-3.277 -8.416,-6.502 -12.689,-9.675l-8.397,0ZM423.398,326.919c0.06,-0.002 0.12,-0.003 0.179,-0.007c0.117,-0.009 0.233,-0.027 0.348,-0.053c0.256,-0.059 0.503,-0.161 0.723,-0.306c0.059,-0.039 0.116,-0.081 0.171,-0.127c0.097,-0.081 0.188,-0.17 0.278,-0.258c0.181,-0.176 0.358,-0.356 0.528,-0.542c0.361,-0.395 0.696,-0.815 0.98,-1.269c0.246,-0.394 0.452,-0.814 0.593,-1.256c0.036,-0.113 0.068,-0.228 0.095,-0.343c0.032,-0.138 0.057,-0.277 0.075,-0.418c0.015,-0.114 0.028,-0.23 0.028,-0.346c0,-0.024 -0.002,-0.049 -0.003,-0.073l-0.003,-0.055c-0.006,-0.1 -0.013,-0.2 -0.019,-0.3c-0.008,-0.124 -0.015,-0.248 -0.021,-0.372c-0.015,-0.298 -0.027,-0.596 -0.036,-0.894c-0.024,-0.729 -0.033,-1.457 -0.023,-2.186c0.012,-0.899 0.05,-1.798 0.131,-2.693c0.065,-0.711 0.156,-1.42 0.298,-2.12c0.084,-0.414 0.184,-0.827 0.324,-1.227c0.049,-0.14 0.103,-0.279 0.162,-0.415c0.172,-0.397 0.385,-0.774 0.606,-1.144c0.326,-0.544 0.682,-1.068 1.051,-1.583c0.896,-1.247 1.87,-2.435 2.86,-3.608c0.18,-0.213 0.361,-0.426 0.542,-0.639c0.153,-0.178 0.307,-0.356 0.46,-0.534c0.669,-0.774 1.34,-1.546 2.009,-2.32c0.464,-0.541 0.929,-1.082 1.374,-1.64c0.171,-0.213 0.339,-0.429 0.501,-0.65c0.086,-0.118 0.173,-0.236 0.252,-0.361c0.045,-0.071 0.087,-0.145 0.126,-0.221c0.189,-0.369 0.291,-0.779 0.307,-1.193c0.013,-0.345 -0.032,-0.691 -0.124,-1.024c-0.052,-0.193 -0.121,-0.382 -0.202,-0.565c-0.105,-0.235 -0.229,-0.462 -0.355,-0.686c-0.067,-0.118 -0.134,-0.235 -0.203,-0.352l0.77,-0.061c1.57,-0.849 2.341,-1.702 1.945,-2.56c0.115,-0.209 -1.171,-0.977 -3.03,-1.899l8.618,-30.667c-1.523,0.964 -3.042,1.934 -4.557,2.911l-7.37,26.225c-1.351,-0.586 -2.751,-1.151 -4.02,-1.604l3.664,-19.56c-2.357,1.569 -4.703,3.153 -7.037,4.752l-2.597,13.867l-3.753,0l1.303,-10.372c-2.246,1.572 -4.482,3.158 -6.706,4.758l-0.706,5.614l-6.976,0c-4.297,3.191 -8.55,6.434 -12.759,9.728l10.704,0.427l0,26.674l-13.407,0l-0.028,-0.031c-0.216,-0.246 -0.422,-0.505 -0.584,-0.791c-0.05,-0.088 -0.096,-0.18 -0.134,-0.274c-0.04,-0.099 -0.072,-0.2 -0.088,-0.306l0.002,-0.037c0.068,-1.002 0.096,-2.006 0.101,-3.01c0.005,-1.24 -0.034,-2.481 -0.142,-3.717c-0.08,-0.903 -0.199,-1.803 -0.389,-2.691c-0.148,-0.692 -0.34,-1.377 -0.618,-2.029c-0.219,-0.516 -0.485,-1.01 -0.769,-1.492c-0.368,-0.624 -0.771,-1.227 -1.191,-1.816c-0.635,-0.892 -1.308,-1.755 -1.999,-2.603c-0.245,-0.3 -0.491,-0.598 -0.739,-0.895c-1.009,0.821 -2.015,1.645 -3.019,2.473c0.478,0.577 0.948,1.16 1.404,1.754c0.337,0.44 0.667,0.885 0.985,1.339c0.307,0.438 0.601,0.885 0.874,1.345c0.205,0.346 0.4,0.699 0.56,1.068c0.229,0.526 0.373,1.082 0.486,1.642c0.134,0.657 0.222,1.322 0.286,1.99c0.099,1.037 0.14,2.079 0.147,3.121c0.003,0.596 -0.005,1.192 -0.023,1.788c-0.013,0.425 -0.03,0.85 -0.054,1.274c-0.008,0.131 -0.018,0.262 -0.026,0.392c-0.001,0.024 -0.006,0.11 -0.006,0.128c0.001,0.074 0.006,0.148 0.014,0.222c0.007,0.069 0.016,0.138 0.026,0.207c0.037,0.248 0.096,0.492 0.175,0.729c0.158,0.475 0.389,0.923 0.663,1.34c0.274,0.418 0.591,0.807 0.93,1.173c0.159,0.172 0.323,0.34 0.491,0.503c0.091,0.088 0.182,0.178 0.28,0.259c0.042,0.035 0.086,0.069 0.132,0.1c0.229,0.159 0.49,0.27 0.761,0.332c0.115,0.026 0.231,0.044 0.348,0.053c0.059,0.004 0.119,0.005 0.178,0.007l32.868,0ZM427.485,295.931l-18.459,0.772l0,26.669l13.407,0c0.223,-0.25 0.433,-0.514 0.601,-0.804c0.051,-0.088 0.098,-0.18 0.137,-0.274c0.042,-0.101 0.076,-0.205 0.094,-0.313l0.002,-0.01c-0.01,-0.138 -0.018,-0.275 -0.026,-0.413c-0.007,-0.124 -0.014,-0.249 -0.021,-0.374c-0.037,-0.791 -0.054,-1.582 -0.056,-2.374c-0.003,-1.203 0.037,-2.406 0.142,-3.604c0.074,-0.842 0.182,-1.682 0.351,-2.511c0.125,-0.616 0.282,-1.228 0.5,-1.818c0.267,-0.721 0.632,-1.402 1.03,-2.058c0.292,-0.484 0.605,-0.956 0.929,-1.42c0.231,-0.329 0.468,-0.655 0.709,-0.978c0.625,-0.835 1.279,-1.648 1.944,-2.451c0.511,-0.616 1.03,-1.225 1.551,-1.832c0.201,-0.233 0.402,-0.465 0.604,-0.697c0.352,-0.404 0.704,-0.809 1.055,-1.215c0.15,-0.173 0.3,-0.347 0.449,-0.52c0.315,-0.367 0.629,-0.733 0.936,-1.105c0.27,-0.326 0.535,-0.657 0.787,-0.997l0.012,-0.017c-0.012,-0.05 -0.03,-0.098 -0.051,-0.145c-0.022,-0.049 -0.046,-0.097 -0.072,-0.145c-0.043,-0.081 -0.086,-0.161 -0.131,-0.241c-0.181,-0.322 -0.371,-0.638 -0.563,-0.953c-0.125,-0.204 -0.251,-0.407 -0.378,-0.609l-5.483,0.437ZM1163.33,323.372l0,-26.669l-18.46,-0.772l-5.483,-0.437c-0.127,0.202 -0.253,0.405 -0.377,0.609c-0.192,0.315 -0.382,0.631 -0.563,0.953c-0.045,0.08 -0.089,0.16 -0.132,0.241c-0.025,0.048 -0.05,0.096 -0.072,0.145c-0.021,0.047 -0.039,0.095 -0.051,0.145l0.013,0.017c0.251,0.34 0.516,0.671 0.786,0.997c0.308,0.372 0.622,0.738 0.936,1.105c0.15,0.173 0.3,0.347 0.449,0.52c0.352,0.406 0.704,0.811 1.055,1.215c0.202,0.232 0.404,0.464 0.604,0.697c0.522,0.607 1.04,1.216 1.551,1.832c0.666,0.803 1.32,1.616 1.945,2.451c0.241,0.323 0.477,0.649 0.708,0.978c0.325,0.464 0.637,0.936 0.93,1.42c0.397,0.656 0.763,1.337 1.029,2.058c0.218,0.59 0.375,1.202 0.5,1.818c0.169,0.829 0.277,1.669 0.351,2.511c0.106,1.198 0.146,2.401 0.143,3.604c-0.002,0.792 -0.02,1.583 -0.057,2.374c-0.006,0.125 -0.013,0.25 -0.02,0.374c-0.008,0.138 -0.017,0.275 -0.026,0.413l0.001,0.01c0.019,0.108 0.052,0.212 0.094,0.313c0.04,0.094 0.086,0.186 0.137,0.274c0.169,0.29 0.379,0.554 0.602,0.804l13.407,0ZM394.199,296.271l-8.521,-0.34c-1.49,-0.386 -2.916,-0.785 -4.228,-1.208c-0.051,0.079 -0.101,0.157 -0.151,0.235c-0.276,0.434 -0.55,0.869 -0.816,1.309c-0.158,0.261 -0.314,0.523 -0.463,0.789c-0.045,0.08 -0.089,0.16 -0.132,0.241c-0.045,0.086 -0.091,0.174 -0.117,0.268c-0.002,0.008 -0.002,0.008 -0.004,0.017l-0.002,0.005c0.041,0.056 0.083,0.111 0.124,0.166c0.308,0.408 0.634,0.802 0.963,1.192c0.362,0.43 0.73,0.856 1.098,1.281c0.502,0.58 1.005,1.158 1.507,1.737l0.151,0.175c0.238,0.277 0.475,0.555 0.712,0.832c0.2,0.236 0.4,0.473 0.598,0.71c3.069,-2.498 6.163,-4.967 9.281,-7.409ZM1188.01,302.995l0.021,-0.025c0.236,-0.277 0.474,-0.555 0.711,-0.832l0.151,-0.175c0.502,-0.579 1.006,-1.157 1.508,-1.737c0.368,-0.425 0.735,-0.851 1.098,-1.281c0.329,-0.39 0.655,-0.784 0.963,-1.192c0.041,-0.055 0.083,-0.11 0.123,-0.166l-0.001,-0.005c-0.002,-0.009 -0.002,-0.009 -0.005,-0.017c-0.026,-0.094 -0.071,-0.182 -0.117,-0.268c-0.043,-0.081 -0.087,-0.161 -0.132,-0.241c-0.149,-0.266 -0.305,-0.528 -0.463,-0.789c-0.266,-0.44 -0.539,-0.875 -0.816,-1.309c-0.05,-0.078 -0.1,-0.156 -0.15,-0.235c-1.313,0.423 -2.738,0.822 -4.228,1.208l-7.171,0.287c2.857,2.235 5.693,4.494 8.508,6.777ZM1196.02,208.292c4.306,0.813 8.615,1.701 12.926,2.645l-18.108,76.297l-4.256,-0.415l9.438,-78.527ZM376.328,208.292c-4.306,0.813 -8.615,1.701 -12.927,2.645l18.109,76.297l4.256,-0.415l-9.438,-78.527ZM1174.75,206.188l-26.433,0l9.255,73.622c3.103,2.217 6.184,4.462 9.243,6.733l3.284,0l4.651,-80.355ZM1183.76,206.188l-0.897,0l-4.651,80.355l4.95,0l9.48,-78.875c-2.962,-0.532 -5.923,-1.027 -8.882,-1.48ZM389.491,206.188l-0.897,0c-2.959,0.453 -5.919,0.948 -8.881,1.48l9.479,78.875l4.951,0l-4.652,-80.355ZM424.035,206.188l-26.433,0l4.652,80.355l4.704,0c2.545,-1.89 5.106,-3.761 7.682,-5.614l9.395,-74.741ZM431.374,206.188l-1.231,0l-8.797,69.983c1.677,-1.173 3.359,-2.337 5.047,-3.495l12.232,-65.297c-2.417,-0.424 -4.834,-0.821 -7.251,-1.191ZM1142.21,206.188l-1.231,0c-2.416,0.37 -4.833,0.767 -7.251,1.191l12.024,64.185c1.712,1.166 3.419,2.34 5.119,3.522l-8.661,-68.898ZM433.43,267.924c2.562,-1.705 5.137,-3.392 7.726,-5.061l14.641,-52.095c-3.745,-0.814 -7.488,-1.584 -11.229,-2.3l-11.138,59.456ZM1138.72,266.848l-10.936,-58.38c-3.741,0.716 -7.485,1.486 -11.23,2.3l14.328,50.981c2.627,1.681 5.239,3.381 7.838,5.099ZM995.959,233.466c0.06,-0.002 0.12,-0.003 0.179,-0.007c0.117,-0.009 0.233,-0.027 0.347,-0.053c0.272,-0.062 0.532,-0.173 0.762,-0.332c0.045,-0.031 0.089,-0.065 0.132,-0.1c0.098,-0.081 0.188,-0.171 0.279,-0.259c0.168,-0.163 0.333,-0.331 0.492,-0.503c0.339,-0.366 0.655,-0.755 0.929,-1.173c0.275,-0.417 0.506,-0.865 0.663,-1.34c0.079,-0.237 0.139,-0.481 0.175,-0.729c0.011,-0.069 0.019,-0.138 0.026,-0.207c0.008,-0.074 0.014,-0.148 0.014,-0.222c0,-0.018 -0.004,-0.104 -0.006,-0.128c-0.007,-0.13 -0.017,-0.261 -0.025,-0.392c-0.024,-0.424 -0.042,-0.849 -0.055,-1.274c-0.018,-0.596 -0.026,-1.192 -0.022,-1.788c0.006,-1.042 0.047,-2.084 0.146,-3.121c0.064,-0.668 0.153,-1.333 0.286,-1.99c0.114,-0.56 0.257,-1.116 0.486,-1.642c0.161,-0.369 0.356,-0.722 0.561,-1.068c0.272,-0.46 0.567,-0.907 0.874,-1.345c0.317,-0.454 0.647,-0.899 0.985,-1.339c0.505,-0.659 1.028,-1.304 1.559,-1.942c0.357,-0.429 0.717,-0.856 1.08,-1.28c0.306,-0.358 0.614,-0.713 0.922,-1.069c0.413,-0.476 0.825,-0.951 1.237,-1.427l0.31,-0.358c0.464,-0.541 0.929,-1.082 1.374,-1.639c0.171,-0.214 0.339,-0.43 0.5,-0.651c0.081,-0.11 0.162,-0.219 0.236,-0.334c0.051,-0.08 0.099,-0.163 0.143,-0.248c0.189,-0.369 0.291,-0.779 0.307,-1.193c0.013,-0.345 -0.033,-0.691 -0.124,-1.024c-0.048,-0.177 -0.109,-0.351 -0.182,-0.519c-0.109,-0.252 -0.241,-0.493 -0.375,-0.732c-0.108,-0.191 -0.22,-0.381 -0.333,-0.57c-8.44,-3.129 -16.967,-6.084 -25.577,-8.863l-0.028,0.485l-11.681,0l-0.541,-4.302c-2.109,-0.635 -4.224,-1.258 -6.343,-1.871l0.776,6.173l-3.753,0l-1.39,-7.419c-2.156,-0.607 -4.316,-1.203 -6.481,-1.788l1.901,10.148c-1.269,0.453 -2.67,1.018 -4.02,1.604l-3.739,-13.304c-1.342,-0.349 -2.685,-0.693 -4.03,-1.033l4.46,15.868c-1.86,0.922 -3.145,1.69 -3.03,1.899c-0.397,0.858 0.374,1.711 1.944,2.56l0.77,0.061c-0.068,0.117 -0.136,0.234 -0.202,0.352c-0.126,0.224 -0.251,0.451 -0.355,0.686c-0.082,0.183 -0.15,0.372 -0.203,0.565c-0.091,0.333 -0.137,0.679 -0.124,1.024c0.016,0.414 0.118,0.824 0.308,1.193c0.038,0.076 0.08,0.15 0.126,0.221c0.078,0.125 0.165,0.243 0.252,0.361c0.162,0.221 0.329,0.437 0.5,0.65c0.446,0.558 0.91,1.099 1.375,1.64c0.668,0.774 1.34,1.546 2.008,2.32c0.154,0.178 0.307,0.356 0.46,0.534c0.181,0.213 0.362,0.426 0.543,0.639c0.989,1.173 1.964,2.361 2.859,3.608c0.37,0.515 0.726,1.039 1.051,1.583c0.222,0.37 0.434,0.747 0.606,1.144c0.059,0.136 0.113,0.275 0.162,0.415c0.14,0.4 0.24,0.813 0.324,1.227c0.143,0.7 0.233,1.409 0.298,2.12c0.082,0.895 0.12,1.794 0.132,2.693c0.009,0.729 0,1.457 -0.023,2.186c-0.01,0.298 -0.021,0.596 -0.036,0.894c-0.006,0.124 -0.013,0.248 -0.021,0.372c-0.006,0.1 -0.014,0.2 -0.02,0.3l-0.003,0.055c-0.001,0.024 -0.003,0.049 -0.003,0.073c0.001,0.116 0.014,0.232 0.028,0.346c0.019,0.141 0.043,0.28 0.075,0.418c0.027,0.115 0.059,0.23 0.095,0.343c0.141,0.442 0.348,0.862 0.593,1.256c0.284,0.454 0.619,0.874 0.98,1.269c0.17,0.186 0.347,0.366 0.528,0.542c0.091,0.088 0.181,0.177 0.279,0.258c0.054,0.046 0.111,0.088 0.17,0.127c0.22,0.145 0.468,0.247 0.724,0.306c0.114,0.026 0.231,0.044 0.348,0.053c0.059,0.004 0.119,0.005 0.178,0.007l32.868,0ZM609.259,233.466c0.06,-0.002 0.12,-0.003 0.179,-0.007c0.117,-0.009 0.233,-0.027 0.347,-0.053c0.257,-0.059 0.504,-0.161 0.724,-0.306c0.059,-0.039 0.116,-0.081 0.171,-0.127c0.097,-0.081 0.188,-0.17 0.278,-0.258c0.181,-0.176 0.358,-0.356 0.528,-0.542c0.361,-0.395 0.696,-0.815 0.98,-1.269c0.246,-0.394 0.452,-0.814 0.593,-1.256c0.036,-0.113 0.068,-0.228 0.095,-0.343c0.032,-0.138 0.057,-0.277 0.075,-0.418c0.015,-0.114 0.028,-0.23 0.028,-0.346c0,-0.024 -0.002,-0.049 -0.003,-0.073l-0.003,-0.055c-0.006,-0.1 -0.013,-0.2 -0.019,-0.3c-0.008,-0.124 -0.015,-0.248 -0.021,-0.372c-0.015,-0.298 -0.027,-0.596 -0.037,-0.894c-0.023,-0.729 -0.032,-1.457 -0.022,-2.186c0.012,-0.899 0.049,-1.798 0.131,-2.693c0.065,-0.711 0.156,-1.42 0.298,-2.12c0.084,-0.414 0.184,-0.827 0.324,-1.227c0.049,-0.14 0.103,-0.279 0.162,-0.415c0.172,-0.397 0.385,-0.774 0.606,-1.144c0.326,-0.544 0.682,-1.068 1.051,-1.583c0.896,-1.247 1.87,-2.435 2.86,-3.608c0.18,-0.213 0.361,-0.426 0.542,-0.639c0.153,-0.178 0.307,-0.356 0.46,-0.534c0.669,-0.774 1.34,-1.546 2.009,-2.32c0.464,-0.541 0.929,-1.082 1.374,-1.64c0.171,-0.213 0.339,-0.429 0.501,-0.65c0.086,-0.118 0.173,-0.236 0.252,-0.361c0.045,-0.071 0.087,-0.145 0.126,-0.221c0.189,-0.369 0.291,-0.779 0.307,-1.193c0.013,-0.345 -0.033,-0.691 -0.124,-1.024c-0.053,-0.193 -0.121,-0.382 -0.202,-0.565c-0.105,-0.235 -0.229,-0.462 -0.355,-0.686c-0.067,-0.118 -0.134,-0.235 -0.203,-0.352l0.77,-0.061c1.57,-0.849 2.341,-1.702 1.945,-2.56c0.115,-0.209 -1.171,-0.977 -3.03,-1.899l4.35,-15.479c-1.346,0.344 -2.69,0.692 -4.033,1.044l-3.626,12.904c-1.351,-0.586 -2.752,-1.151 -4.02,-1.604l1.825,-9.742c-2.167,0.591 -4.328,1.193 -6.485,1.806l-1.31,6.995l-3.754,0l0.723,-5.745c-2.12,0.619 -4.235,1.248 -6.346,1.888l-0.485,3.857l-11.68,0l-0.002,-0.034c-8.752,2.848 -17.418,5.877 -25.994,9.086c-0.114,0.205 -0.224,0.412 -0.317,0.628c-0.073,0.168 -0.134,0.342 -0.183,0.519c-0.091,0.333 -0.137,0.679 -0.124,1.024c0.016,0.414 0.118,0.824 0.308,1.193c0.043,0.085 0.091,0.168 0.143,0.248c0.074,0.115 0.155,0.224 0.235,0.334c0.162,0.221 0.329,0.437 0.5,0.651c0.446,0.557 0.91,1.098 1.375,1.639l0.309,0.358c0.412,0.476 0.825,0.951 1.237,1.427c0.308,0.356 0.617,0.711 0.922,1.069c0.363,0.424 0.723,0.851 1.081,1.28c0.531,0.638 1.054,1.283 1.559,1.942c0.337,0.44 0.667,0.885 0.985,1.339c0.307,0.438 0.601,0.885 0.874,1.345c0.205,0.346 0.4,0.699 0.56,1.068c0.229,0.526 0.373,1.082 0.486,1.642c0.134,0.657 0.222,1.322 0.286,1.99c0.099,1.037 0.14,2.079 0.147,3.121c0.003,0.596 -0.005,1.192 -0.023,1.788c-0.013,0.425 -0.03,0.85 -0.054,1.274c-0.008,0.131 -0.018,0.262 -0.026,0.392c-0.001,0.024 -0.006,0.11 -0.006,0.128c0.001,0.074 0.006,0.148 0.014,0.222c0.007,0.069 0.016,0.138 0.026,0.207c0.037,0.248 0.096,0.492 0.175,0.729c0.158,0.475 0.389,0.923 0.663,1.34c0.274,0.418 0.591,0.807 0.93,1.173c0.159,0.172 0.323,0.34 0.491,0.503c0.091,0.088 0.182,0.178 0.28,0.259c0.042,0.035 0.086,0.069 0.132,0.1c0.229,0.159 0.49,0.27 0.761,0.332c0.114,0.026 0.231,0.044 0.348,0.053c0.059,0.004 0.119,0.005 0.178,0.007l32.868,0ZM567.311,201.27c-0.051,0.079 -0.101,0.157 -0.151,0.235c-0.276,0.434 -0.55,0.869 -0.816,1.309c-0.158,0.261 -0.314,0.523 -0.463,0.789c-0.045,0.08 -0.089,0.16 -0.132,0.241c-0.045,0.086 -0.091,0.174 -0.117,0.268c-0.002,0.008 -0.002,0.008 -0.004,0.017l-0.002,0.005c0.041,0.056 0.082,0.111 0.124,0.166c0.308,0.408 0.634,0.802 0.963,1.192c0.362,0.43 0.73,0.856 1.098,1.281c0.501,0.58 1.005,1.158 1.507,1.737l0.151,0.175c0.238,0.277 0.475,0.555 0.712,0.832c0.45,0.531 0.897,1.065 1.336,1.605c0.692,0.848 1.365,1.711 2,2.603c0.42,0.589 0.823,1.192 1.191,1.816c0.284,0.482 0.55,0.976 0.769,1.492c0.278,0.652 0.47,1.337 0.618,2.029c0.19,0.888 0.309,1.788 0.389,2.691c0.108,1.236 0.147,2.477 0.142,3.717c-0.005,1.004 -0.033,2.008 -0.101,3.01l-0.002,0.037c0.016,0.106 0.048,0.207 0.088,0.306c0.038,0.094 0.084,0.186 0.134,0.274c0.162,0.286 0.368,0.545 0.584,0.791l0.028,0.031l13.407,0l0,-26.674l-19.225,-0.767c-1.49,-0.386 -2.916,-0.785 -4.228,-1.208ZM994.993,229.919l0.028,-0.031c0.217,-0.246 0.422,-0.505 0.584,-0.791c0.05,-0.088 0.096,-0.18 0.134,-0.274c0.04,-0.099 0.072,-0.2 0.089,-0.306l-0.003,-0.037c-0.067,-1.002 -0.096,-2.006 -0.1,-3.01c-0.005,-1.24 0.033,-2.481 0.142,-3.717c0.079,-0.903 0.198,-1.803 0.388,-2.691c0.149,-0.692 0.341,-1.377 0.618,-2.029c0.219,-0.516 0.486,-1.01 0.77,-1.492c0.367,-0.624 0.771,-1.227 1.191,-1.816c0.634,-0.892 1.308,-1.755 1.999,-2.603c0.44,-0.54 0.886,-1.074 1.337,-1.605c0.237,-0.277 0.474,-0.555 0.711,-0.832l0.151,-0.175c0.502,-0.579 1.006,-1.157 1.508,-1.737c0.368,-0.425 0.735,-0.851 1.098,-1.281c0.329,-0.39 0.655,-0.784 0.963,-1.192c0.041,-0.055 0.083,-0.11 0.123,-0.166l-0.001,-0.005c-0.002,-0.009 -0.002,-0.009 -0.004,-0.017c-0.027,-0.094 -0.072,-0.182 -0.118,-0.268c-0.043,-0.081 -0.087,-0.161 -0.131,-0.241c-0.15,-0.266 -0.306,-0.528 -0.464,-0.789c-0.266,-0.44 -0.539,-0.875 -0.816,-1.309c-0.05,-0.078 -0.1,-0.156 -0.15,-0.235c-1.313,0.423 -2.738,0.822 -4.228,1.208l-19.225,0.767l0,26.674l13.406,0ZM977.464,229.919l0,-26.669l-18.46,-0.772l-5.483,-0.437c-0.127,0.202 -0.253,0.405 -0.377,0.609c-0.192,0.315 -0.382,0.631 -0.563,0.953c-0.045,0.08 -0.089,0.16 -0.132,0.241c-0.025,0.048 -0.05,0.096 -0.072,0.145c-0.021,0.047 -0.039,0.095 -0.051,0.145l0.013,0.017c0.251,0.34 0.516,0.671 0.786,0.997c0.308,0.372 0.622,0.738 0.936,1.105c0.15,0.173 0.3,0.347 0.45,0.52c0.351,0.406 0.703,0.81 1.054,1.215c0.202,0.232 0.404,0.464 0.604,0.697c0.522,0.607 1.04,1.216 1.551,1.832c0.666,0.803 1.32,1.616 1.945,2.451c0.241,0.323 0.477,0.649 0.708,0.978c0.325,0.464 0.637,0.936 0.93,1.42c0.397,0.656 0.763,1.337 1.029,2.058c0.218,0.59 0.375,1.202 0.5,1.818c0.169,0.829 0.277,1.669 0.351,2.511c0.106,1.198 0.146,2.401 0.143,3.604c-0.002,0.792 -0.02,1.583 -0.057,2.374c-0.006,0.125 -0.013,0.25 -0.02,0.374c-0.008,0.138 -0.017,0.275 -0.026,0.413l0.001,0.01c0.019,0.108 0.052,0.212 0.094,0.313c0.04,0.094 0.086,0.185 0.137,0.274c0.169,0.29 0.379,0.554 0.602,0.804l13.407,0ZM613.346,202.478l-18.459,0.772l0,26.669l13.406,0c0.224,-0.25 0.434,-0.514 0.602,-0.804c0.051,-0.089 0.098,-0.18 0.137,-0.274c0.042,-0.101 0.076,-0.205 0.094,-0.313l0.002,-0.01c-0.01,-0.138 -0.018,-0.275 -0.027,-0.413c-0.007,-0.124 -0.013,-0.249 -0.02,-0.374c-0.037,-0.791 -0.055,-1.582 -0.056,-2.374c-0.003,-1.203 0.037,-2.406 0.142,-3.604c0.074,-0.842 0.182,-1.682 0.351,-2.511c0.125,-0.616 0.282,-1.228 0.5,-1.818c0.267,-0.721 0.632,-1.402 1.029,-2.058c0.293,-0.484 0.606,-0.956 0.93,-1.42c0.231,-0.329 0.468,-0.655 0.709,-0.978c0.625,-0.835 1.278,-1.648 1.944,-2.451c0.511,-0.616 1.029,-1.225 1.551,-1.832c0.201,-0.233 0.402,-0.465 0.604,-0.697c0.352,-0.405 0.704,-0.809 1.055,-1.215c0.15,-0.173 0.3,-0.347 0.449,-0.52c0.315,-0.367 0.629,-0.733 0.936,-1.105c0.27,-0.326 0.535,-0.657 0.787,-0.997l0.012,-0.017c-0.012,-0.05 -0.03,-0.098 -0.051,-0.145c-0.022,-0.049 -0.046,-0.097 -0.072,-0.145c-0.043,-0.081 -0.086,-0.161 -0.131,-0.241c-0.181,-0.322 -0.371,-0.638 -0.563,-0.953c-0.125,-0.204 -0.251,-0.407 -0.378,-0.609l-5.483,0.437ZM800.299,202.506c0.06,-0.002 0.12,-0.003 0.179,-0.007c0.117,-0.009 0.233,-0.027 0.347,-0.053c0.257,-0.059 0.504,-0.161 0.724,-0.306c0.059,-0.039 0.116,-0.081 0.171,-0.127c0.097,-0.081 0.188,-0.17 0.278,-0.258c0.181,-0.176 0.358,-0.356 0.528,-0.542c0.361,-0.395 0.696,-0.815 0.98,-1.269c0.246,-0.394 0.452,-0.814 0.593,-1.256c0.036,-0.113 0.068,-0.228 0.095,-0.343c0.032,-0.138 0.057,-0.277 0.075,-0.418c0.015,-0.114 0.028,-0.23 0.028,-0.346c0,-0.024 -0.002,-0.049 -0.003,-0.073l-0.003,-0.055c-0.006,-0.1 -0.013,-0.2 -0.019,-0.3c-0.008,-0.124 -0.015,-0.248 -0.021,-0.372c-0.015,-0.298 -0.027,-0.596 -0.037,-0.894c-0.023,-0.729 -0.032,-1.457 -0.022,-2.186c0.012,-0.899 0.049,-1.798 0.131,-2.693c0.065,-0.711 0.156,-1.42 0.298,-2.12c0.084,-0.414 0.184,-0.827 0.324,-1.227c0.049,-0.14 0.103,-0.279 0.162,-0.415c0.172,-0.397 0.385,-0.774 0.606,-1.144c0.326,-0.544 0.682,-1.068 1.051,-1.583c0.896,-1.247 1.87,-2.435 2.86,-3.608c0.18,-0.213 0.361,-0.426 0.542,-0.639c0.153,-0.178 0.307,-0.356 0.46,-0.534c0.669,-0.774 1.34,-1.546 2.009,-2.32c0.464,-0.541 0.929,-1.082 1.374,-1.64c0.171,-0.213 0.339,-0.429 0.501,-0.65c0.086,-0.118 0.173,-0.236 0.252,-0.361c0.045,-0.071 0.087,-0.145 0.126,-0.221c0.189,-0.369 0.291,-0.779 0.307,-1.193c0.013,-0.345 -0.033,-0.691 -0.124,-1.024c-0.053,-0.193 -0.121,-0.382 -0.202,-0.565c-0.105,-0.235 -0.229,-0.462 -0.355,-0.686c-0.067,-0.118 -0.134,-0.235 -0.203,-0.352l0.77,-0.061c1.57,-0.849 2.341,-1.702 1.945,-2.56c0.115,-0.209 -1.171,-0.977 -3.03,-1.899l1.087,-3.87c-1.231,-0.053 -2.464,-0.102 -3.697,-0.148l-0.699,2.487c-1.351,-0.586 -2.752,-1.151 -4.02,-1.604l0.194,-1.037c-2.036,-0.062 -4.075,-0.115 -6.117,-0.158l-0.047,0.254l-3.754,0l0.041,-0.323c-2.031,-0.031 -4.064,-0.053 -6.1,-0.065l-0.049,0.388l-11.68,0l-0.021,-0.354c-2.705,0.031 -5.406,0.08 -8.102,0.145l0.012,0.209l-4.951,0l-0.008,-0.07c-1.149,0.036 -2.298,0.076 -3.446,0.118l0.028,0.228l-4.256,0.415l-0.111,-0.468c-1.362,0.06 -2.722,0.123 -4.08,0.191l0.332,1.402l-3.641,1.598c0.346,1.285 1.689,2.363 3.663,3.309c-0.103,0.161 -0.205,0.323 -0.306,0.484c-0.218,0.348 -0.434,0.696 -0.645,1.048c-0.138,0.229 -0.275,0.46 -0.406,0.693c-0.134,0.239 -0.267,0.48 -0.375,0.732c-0.073,0.168 -0.134,0.342 -0.183,0.519c-0.091,0.333 -0.137,0.679 -0.124,1.024c0.016,0.414 0.118,0.824 0.308,1.193c0.043,0.085 0.091,0.168 0.143,0.248c0.074,0.115 0.155,0.224 0.235,0.334c0.162,0.221 0.329,0.437 0.5,0.651c0.446,0.557 0.91,1.098 1.375,1.639l0.309,0.358c0.412,0.476 0.825,0.951 1.237,1.427c0.308,0.356 0.617,0.711 0.922,1.069c0.363,0.424 0.723,0.851 1.081,1.28c0.531,0.638 1.054,1.283 1.559,1.942c0.337,0.44 0.667,0.885 0.985,1.339c0.307,0.438 0.601,0.885 0.874,1.345c0.205,0.346 0.4,0.699 0.56,1.068c0.229,0.526 0.373,1.082 0.486,1.642c0.134,0.657 0.222,1.322 0.286,1.99c0.099,1.037 0.14,2.079 0.147,3.121c0.003,0.596 -0.005,1.192 -0.023,1.788c-0.013,0.425 -0.03,0.85 -0.054,1.274c-0.008,0.131 -0.018,0.262 -0.026,0.392c-0.001,0.024 -0.006,0.11 -0.006,0.128c0.001,0.074 0.006,0.148 0.014,0.222c0.007,0.069 0.016,0.138 0.026,0.207c0.037,0.248 0.096,0.492 0.175,0.729c0.158,0.475 0.389,0.923 0.663,1.34c0.274,0.418 0.591,0.807 0.93,1.173c0.159,0.172 0.323,0.34 0.491,0.503c0.091,0.088 0.182,0.178 0.28,0.259c0.042,0.035 0.086,0.069 0.132,0.1c0.229,0.159 0.49,0.27 0.761,0.332c0.114,0.026 0.231,0.044 0.348,0.053c0.059,0.004 0.119,0.005 0.178,0.007l32.868,0ZM758.351,170.31c-0.051,0.079 -0.101,0.157 -0.151,0.235c-0.276,0.434 -0.55,0.869 -0.816,1.309c-0.158,0.261 -0.314,0.523 -0.463,0.789c-0.045,0.08 -0.089,0.16 -0.132,0.241c-0.045,0.086 -0.091,0.174 -0.117,0.268c-0.002,0.008 -0.002,0.008 -0.004,0.017l-0.002,0.005c0.041,0.056 0.082,0.111 0.124,0.166c0.308,0.408 0.634,0.802 0.963,1.192c0.362,0.43 0.73,0.856 1.098,1.281c0.501,0.58 1.005,1.158 1.507,1.737l0.151,0.175c0.238,0.277 0.475,0.555 0.712,0.832c0.45,0.531 0.897,1.065 1.336,1.605c0.692,0.848 1.365,1.711 2,2.603c0.42,0.589 0.823,1.192 1.191,1.816c0.284,0.482 0.55,0.976 0.769,1.492c0.278,0.652 0.47,1.337 0.618,2.029c0.19,0.888 0.309,1.788 0.389,2.691c0.108,1.236 0.147,2.477 0.142,3.717c-0.005,1.004 -0.033,2.008 -0.101,3.01l-0.002,0.037c0.016,0.106 0.048,0.207 0.088,0.306c0.038,0.094 0.084,0.186 0.134,0.274c0.162,0.286 0.368,0.545 0.584,0.791l0.028,0.031l13.407,0l0,-26.674l-19.225,-0.767c-1.49,-0.386 -2.916,-0.785 -4.228,-1.208ZM804.386,171.518l-18.459,0.772l0,26.669l13.406,0c0.224,-0.25 0.434,-0.514 0.602,-0.804c0.051,-0.089 0.098,-0.18 0.137,-0.274c0.042,-0.101 0.076,-0.205 0.094,-0.313l0.002,-0.01c-0.01,-0.138 -0.018,-0.275 -0.027,-0.413c-0.007,-0.124 -0.013,-0.249 -0.02,-0.374c-0.037,-0.791 -0.055,-1.582 -0.056,-2.374c-0.003,-1.203 0.037,-2.406 0.142,-3.604c0.074,-0.842 0.182,-1.682 0.351,-2.511c0.125,-0.616 0.282,-1.228 0.5,-1.818c0.267,-0.721 0.632,-1.402 1.029,-2.058c0.293,-0.484 0.606,-0.956 0.93,-1.42c0.231,-0.329 0.468,-0.655 0.709,-0.978c0.625,-0.835 1.278,-1.648 1.944,-2.451c0.511,-0.616 1.029,-1.225 1.551,-1.832c0.201,-0.233 0.402,-0.465 0.604,-0.697c0.352,-0.405 0.704,-0.809 1.055,-1.215c0.15,-0.173 0.3,-0.347 0.449,-0.52c0.315,-0.367 0.629,-0.733 0.936,-1.105c0.27,-0.326 0.535,-0.657 0.787,-0.997l0.012,-0.017c-0.012,-0.05 -0.03,-0.098 -0.051,-0.145c-0.022,-0.049 -0.046,-0.097 -0.072,-0.145c-0.043,-0.081 -0.086,-0.161 -0.131,-0.241c-0.181,-0.322 -0.371,-0.638 -0.563,-0.953c-0.125,-0.204 -0.251,-0.407 -0.378,-0.609l-5.483,0.437ZM1010.16,114.839c4.306,0.813 8.615,1.701 12.926,2.644l-18.108,76.298l-4.256,-0.415l9.438,-78.527ZM562.189,114.839c-4.306,0.813 -8.615,1.701 -12.927,2.644l18.109,76.298l4.256,-0.415l-9.438,-78.527ZM997.895,112.735l-0.897,0l-4.651,80.355l4.95,0l9.48,-78.875c-2.962,-0.532 -5.923,-1.027 -8.882,-1.48ZM575.352,112.735l-0.897,0c-2.959,0.453 -5.919,0.948 -8.881,1.48l9.479,78.875l4.951,0l-4.652,-80.355ZM609.896,112.735l-26.433,0l4.65,80.321c4.038,-1.313 8.093,-2.588 12.167,-3.823l9.616,-76.498ZM988.887,112.735l-26.433,0l9.56,76.053c4.101,1.232 8.185,2.505 12.25,3.817l4.623,-79.87ZM617.235,112.735l-1.231,0l-9.378,74.61c1.445,-0.422 2.892,-0.838 4.341,-1.25l13.519,-72.169c-2.418,-0.424 -4.835,-0.821 -7.251,-1.191ZM956.346,112.735l-1.231,0c-2.416,0.37 -4.833,0.767 -7.251,1.191l13.44,71.745c1.458,0.41 2.913,0.826 4.367,1.246l-9.325,-74.182ZM617.452,184.289c1.936,-0.528 3.877,-1.047 5.821,-1.558l18.385,-65.416c-3.745,-0.814 -7.488,-1.584 -11.229,-2.3l-12.977,69.274ZM954.823,183.883l-12.901,-68.868c-3.741,0.716 -7.484,1.486 -11.23,2.3l18.273,65.016c1.956,0.508 3.909,1.026 5.858,1.552ZM762.639,162.178l-9.41,-78.299c-4.306,0.813 -8.615,1.701 -12.927,2.644l17.998,75.83c1.445,-0.063 2.891,-0.121 4.339,-0.175ZM806.861,162.034c1.51,0.046 3.018,0.097 4.525,0.154l21.312,-75.833c-3.745,-0.814 -7.488,-1.584 -11.229,-2.3l-14.608,77.979ZM766.392,81.775l-0.897,0c-2.959,0.453 -5.919,0.948 -8.881,1.48l9.471,78.805c1.647,-0.053 3.296,-0.099 4.947,-0.139l-4.64,-80.146ZM808.275,81.775l-1.231,0l-10.06,80.032c1.254,0.02 2.508,0.043 3.76,0.069l14.782,-78.91c-2.418,-0.424 -4.835,-0.821 -7.251,-1.191ZM800.936,81.775l-26.433,0l4.631,80.001c2.58,-0.031 5.164,-0.046 7.751,-0.046c1.334,0 2.667,0.004 3.999,0.012l10.052,-79.967Z" style="fill:none;stroke-width:1px;stroke-linecap:round;stroke:#000;"/><rect x="159.12" y="773.85" width="1255.68" height="48.89" style="fill:none;stroke-width:1px;stroke:#000;"/></g><path d="M786.794,292.577c-14.302,-33.245 -44.32,-40.508 -70.039,-25.697c-0.948,-7.312 1.342,-12.674 6.48,-16.32c-2.392,-3.013 -10.656,-2.557 -19.2,-1.935c4.252,-1.795 5.993,-4.234 4.8,-7.425l-13.44,-1.455c3.663,-4.089 12.967,-5.835 24.96,-6.465c-2.324,-4.033 -6.508,-7.044 -11.52,-9.6c52.236,-4.86 82.157,18.686 90.537,69.655l5.173,15.92l37.49,0l-30.33,22.036l11.585,35.654l-30.33,-22.036l-30.33,22.036l11.585,-35.654l-30.33,-22.036l37.49,0l5.419,-16.678Z" style="fill:none;stroke-width:1px;stroke:#000;"/><path d="M876.955,300.48c-6.754,-26.477 -23.442,-46.337 -61.68,-51.84c3.543,1.827 5.001,3.992 4.56,6.465c-3.803,-1.434 -8.105,-0.037 -12.72,3.135c3.772,0.185 6.956,0.669 8.16,2.16c-1.924,1.395 -3.052,3.119 -3.12,5.28c22.429,0.285 44.38,7.089 64.8,34.8Z" style="fill:none;stroke-width:1px;stroke:#000;"/><g transform="matrix(0.24,0,0,0.24,-135.01,-40.8)"><text x="5414px" y="464.536px" style="font-family:Arial;font-size:211.552px;fill:none;stroke-width:4.17px;stroke:#000;">Augustusplatz</text><text x="6072.52px" y="683.009px" style="font-family:Arial;font-size:211.552px;fill:none;stroke-width:4.17px;stroke:#000;">Leipzig</text></g></g></svg>