<?xml version="1.0" standalone="no"?><!DOCTYPE svg PUBLIC "-//W3C//DTD SVG 1.1//EN" "http://www.w3.org/Graphics/SVG/1.1/DTD/svg11.dtd"><svg width="100%" height="100%" viewBox="0 0 1616 836" version="1.1" xmlns="http://www.w3.org/2000/svg" xmlns:xlink="http://www.w3.org/1999/xlink" xml:space="preserve" style="fill-rule:evenodd;clip-rule:evenodd;stroke-linecap:round;stroke-linejoin:round;stroke-miterlimit:1.41421;"><clipPath id="_clip1"><rect id="ArtBoard1" x="-103.2" y="-2.64" width="1785.83" height="841.89"/></clipPath><g clip-path="url(#_clip1)"><clipPath id="_clip2"><circle cx="789.713" cy="750.96" r="572.64"/></clipPath><g clip-path="url(#_clip2)"><g id="Vordergrund"><path id="Mendelsohnbrunnen" d="M390.107,648.497l-1.905,0.952l0,-4.286l1.428,-0.952l0.477,-1.429l0.476,-3.809l1.428,1.428l1.905,1.429l0,-0.953c1.042,-1.404 2.312,-1.88 3.81,-1.428c0.731,0.27 1.075,1.03 0.952,2.381l2.857,-0.953l-0.952,-2.381l-0.953,-6.19l3.81,-0.952l0,-2.858l1.905,0l1.076,-2.381l0,-9.047l1.054,-5.715l1.679,-82.857l4.015,-13.384l0.02,-0.902l0.126,0.418l0.125,-0.418l0.02,0.902l4.015,13.384l1.679,82.857l1.054,5.715l0,9.047l1.076,2.381l1.905,0l0,2.858l3.81,0.952l-0.953,6.19l-0.952,2.381l2.857,0.953c-0.123,-1.351 0.221,-2.111 0.952,-2.381c1.498,-0.452 2.768,0.024 3.81,1.428l0,0.953l1.905,-1.429l1.428,-1.428l0.476,3.809l0.477,1.429l1.428,0.952l0,4.286l-1.905,-0.952l-2.857,0c1.124,2.393 1.4,4.897 0,7.619l0.953,2.381l-1.905,3.333l-1.429,-1.905l-0.952,2.381l0.952,1.429l2.381,0.476l1.429,1.429l-0.476,2.381l-0.477,1.428l2.858,0.952l-0.953,1.905l0,3.334l-1.428,1.428l0,1.429l-1.905,0.952l0,4.762l-0.476,2.381l-0.953,1.429l1.429,2.857l4.286,0l0,-1.429l1.428,-0.952l1.905,0l1.905,0.952l0,3.334l-1.429,1.428l1.905,-0.952l3.333,-1.905l0.953,-0.476l0.476,1.428l-5.238,4.286c2.061,3.188 5.046,5.595 9.047,7.143l-0.952,1.429c-2.866,-0.305 -6.051,-1.811 -10,-6.191l-3.333,3.334l5.238,10.476l0,3.333l2.381,1.429l0,1.428l3.333,0l-0.476,-1.428l1.429,-1.429l1.428,1.429l0,2.381c-1.756,3.253 -4.137,4.841 -7.143,4.762l-0.476,1.904c-3.352,2.733 -5.075,5.581 -4.762,8.572l1.905,1.905l0.952,6.19l8.096,0l11.904,0.476c-1.894,-1.257 -2.846,-2.526 -2.857,-3.809l0,-3.81c0.917,-2.468 2.424,-4.286 4.286,-5.714l3.81,-3.81l3.809,-2.381l0.476,-2.381l-3.333,-6.19c-1.341,-1.231 -2.628,-2.252 -3.81,-2.857l10,0l0.953,-0.953l-2.381,-1.904l-1.905,-3.81c5.727,1.943 11.446,5.384 17.143,12.857c-0.422,-2.582 -2.094,-5.873 -5.238,-10c-0.628,-1.742 -0.139,-3.067 1.905,-3.809l4.285,0l2.381,1.904l2.381,0.953l1.429,1.905l0.476,2.857l1.905,1.428l-0.952,-4.285l1.904,-0.953l1.905,0.953c-1.351,1.112 -1.269,2.223 0,3.333l1.429,-1.429l2.381,-0.476l1.428,0.476l0.953,2.381l1.428,0l1.429,-0.952l1.428,0l1.429,2.381l2.381,5.238l1.905,0.952l2.381,2.381l-2.381,0l0.476,0.477l2.381,1.904c1.408,0.387 2.528,1.628 3.333,3.81l-3.333,0.476l-1.429,-1.905l-3.333,-2.857l-3.81,-0.952c0.103,3.156 -0.153,6.328 -0.952,9.524l2.381,3.333l1.905,5.238l20,0l1.905,1.905l-1.905,1.429l0,7.143l1.905,0.952c0,0 0.034,0.966 0,1.429c-0.035,0.462 0.476,0.476 0.476,0.476c14.734,0.437 30.979,0.38 42.381,1.904l-1.428,3.334l0,12.381c-52.195,4.373 -106.765,5.946 -163.209,5.311c-56.445,0.635 -111.015,-0.938 -163.21,-5.311l0,-12.381l-1.428,-3.334c11.402,-1.524 27.647,-1.467 42.381,-1.904c0,0 0.511,-0.014 0.476,-0.476c-0.034,-0.463 0,-1.429 0,-1.429l1.905,-0.952l0,-7.143l-1.905,-1.429l1.905,-1.905l20,0l1.905,-5.238l2.381,-3.333c-0.799,-3.196 -1.055,-6.368 -0.952,-9.524l-3.81,0.952l-3.333,2.857l-1.429,1.905l-3.333,-0.476c0.805,-2.182 1.925,-3.423 3.333,-3.81l2.381,-1.904l0.476,-0.477l-2.381,0l2.381,-2.381l1.905,-0.952l2.381,-5.238l1.429,-2.381l1.428,0l1.429,0.952l1.428,0l0.953,-2.381l1.428,-0.476l2.381,0.476l1.429,1.429c1.269,-1.11 1.351,-2.221 0,-3.333l1.905,-0.953l1.904,0.953l-0.952,4.285l1.905,-1.428l0.476,-2.857l1.429,-1.905l2.381,-0.953l2.381,-1.904l4.285,0c2.044,0.742 2.533,2.066 1.905,3.809c-3.144,4.127 -4.816,7.418 -5.238,10c5.697,-7.473 11.416,-10.914 17.143,-12.857l-1.905,3.81l-2.381,1.904l0.953,0.953l10,0c-1.182,0.605 -2.469,1.626 -3.81,2.857l-3.333,6.19l0.476,2.381l3.81,2.381l3.809,3.81c1.862,1.428 3.369,3.246 4.286,5.714l0,3.81c-0.011,1.283 -0.963,2.552 -2.857,3.809l11.905,-0.476l8.095,0l0.952,-6.19l1.905,-1.905c0.314,-2.991 -1.41,-5.839 -4.762,-8.572l-0.476,-1.904c-3.006,0.079 -5.387,-1.509 -7.143,-4.762l0,-2.381l1.429,-1.429l1.428,1.429l-0.476,1.428l3.333,0l0,-1.428l2.381,-1.429l0,-3.333l5.238,-10.476l-3.333,-3.334c-3.949,4.38 -7.134,5.886 -10,6.191l-0.952,-1.429c4.001,-1.548 6.986,-3.955 9.047,-7.143l-5.238,-4.286l0.476,-1.428l0.953,0.476l3.333,1.905l1.905,0.952l-1.429,-1.428l0,-3.334l1.905,-0.952l1.905,0l1.428,0.952l0,1.429l4.286,0l1.429,-2.857l-0.953,-1.429l-0.476,-2.381l0,-4.762l-1.905,-0.952l0,-1.429l-1.428,-1.428l0,-3.334l-0.953,-1.905l2.858,-0.952l-0.477,-1.428l-0.476,-2.381l1.429,-1.429l2.381,-0.476l0.952,-1.429l-0.952,-2.381l-1.429,1.905l-1.905,-3.333l0.953,-2.381c-1.4,-2.722 -1.124,-5.225 0,-7.619l-2.857,0ZM560.584,762.582l0.57,-0.114l0.483,-0.322c0.279,-0.418 0.435,-0.519 0.435,-1.052c0,-0.194 -0.075,-0.38 -0.113,-0.57l-0.322,-0.483l-0.483,-0.322c-0.19,-0.038 -0.38,-0.076 -0.57,-0.113l-32.381,0l-0.63,0.139l-0.511,0.393l-0.158,0.304l-36.797,0l-0.192,0.012c-3.316,0.433 -6.637,0.83 -9.962,1.192c-9.03,0.981 -18.086,1.707 -27.154,2.227c-9.246,0.531 -18.505,0.848 -27.766,0.989c-9.776,0.15 -19.555,0.106 -29.33,-0.1c-9.863,-0.207 -19.722,-0.577 -29.574,-1.084c-4.884,-0.251 -9.766,-0.538 -14.647,-0.852c-1.098,-0.071 -2.196,-0.143 -3.293,-0.218c-0.424,-0.283 -0.44,-0.261 -0.94,-0.36l-45.241,0l0.057,-0.196l-0.073,-0.599l-0.306,-0.52l-0.486,-0.357l-0.588,-0.134l-41.905,-0.836l-0.572,0.102l-0.489,0.313l-0.332,0.476l-0.125,0.567l0.102,0.572l0.313,0.489c0.473,0.33 0.48,0.333 1.043,0.456l33.89,0.677l-0.106,0.369l0.08,0.602l0.314,0.52l0.496,0.351l0.594,0.124l48.995,0c4.293,0.306 8.586,0.594 12.881,0.855c11.048,0.671 22.107,1.181 33.171,1.494c10.307,0.292 20.619,0.414 30.93,0.327c8.846,-0.075 17.691,-0.302 26.528,-0.715c9.595,-0.448 19.181,-1.114 28.741,-2.052c3.725,-0.366 7.446,-0.775 11.161,-1.225c0.665,-0.081 1.33,-0.164 1.995,-0.247c0.629,-0.08 1.258,-0.161 1.887,-0.243l47.999,0l0.63,-0.14l0.511,-0.393l0.158,-0.303l21.082,0ZM468.7,756.029c0.103,0.017 0.206,0.027 0.308,0.05c0.304,0.07 0.594,0.197 0.851,0.373c0.172,0.118 0.328,0.257 0.465,0.414c0.273,0.313 0.466,0.695 0.555,1.101c0.066,0.305 0.075,0.622 0.025,0.929c-0.034,0.206 -0.093,0.406 -0.176,0.597c-0.125,0.285 -0.305,0.546 -0.526,0.766c-0.296,0.293 -0.665,0.509 -1.065,0.623c-0.267,0.077 -0.339,0.07 -0.614,0.095c-1.497,0.04 -2.993,0.078 -4.49,0.117c-9.024,0.227 -18.048,0.433 -27.074,0.595c-3.924,0.071 -7.848,0.133 -11.772,0.178c-3.107,0.036 -6.214,0.063 -9.32,0.063c-3.443,0 -6.885,-0.032 -10.327,-0.075c-4.301,-0.053 -8.601,-0.125 -12.901,-0.206c-9.624,-0.181 -19.247,-0.406 -28.869,-0.662l-0.397,-0.01c-0.275,-0.025 -0.348,-0.019 -0.615,-0.095c-0.4,-0.114 -0.769,-0.33 -1.064,-0.623c-0.148,-0.147 -0.277,-0.311 -0.384,-0.49c-0.213,-0.357 -0.334,-0.767 -0.349,-1.183c-0.011,-0.312 0.037,-0.625 0.142,-0.919c0.104,-0.293 0.264,-0.567 0.469,-0.802c0.205,-0.234 0.455,-0.43 0.732,-0.573c0.277,-0.142 0.581,-0.232 0.892,-0.263c0.103,-0.01 0.207,-0.007 0.311,-0.011c1.488,0.041 2.976,0.079 4.464,0.117c8.98,0.227 17.961,0.433 26.942,0.595c3.903,0.07 7.806,0.132 11.708,0.177c3.082,0.036 6.164,0.063 9.246,0.063c3.428,0 6.857,-0.033 10.285,-0.075c4.302,-0.053 8.604,-0.125 12.906,-0.206c9.645,-0.181 19.29,-0.405 28.933,-0.66l0.398,-0.011c0.104,0.004 0.207,0.008 0.311,0.011ZM428.903,735.581l-28.32,0c-0.112,0.004 -0.141,0.002 -0.252,0.021c-0.291,0.05 -0.564,0.188 -0.778,0.392c-0.122,0.117 -0.223,0.254 -0.299,0.405c-0.076,0.15 -0.126,0.314 -0.147,0.481c-0.016,0.125 -0.016,0.252 0,0.378c0.027,0.209 0.098,0.411 0.209,0.591c0.132,0.215 0.32,0.395 0.541,0.519c0.147,0.082 0.308,0.139 0.474,0.167c0.111,0.019 0.14,0.017 0.252,0.022l28.32,0c0.112,-0.005 0.141,-0.003 0.252,-0.022c0.166,-0.028 0.327,-0.085 0.474,-0.167c0.147,-0.082 0.28,-0.19 0.391,-0.316c0.112,-0.127 0.201,-0.272 0.264,-0.428c0.158,-0.394 0.139,-0.846 -0.052,-1.225c-0.057,-0.113 -0.128,-0.219 -0.212,-0.313c-0.195,-0.222 -0.456,-0.383 -0.742,-0.457c-0.109,-0.029 -0.137,-0.029 -0.249,-0.043l-0.126,-0.005ZM353.44,726.592l-1.429,0l-0.476,0.953l0.476,0.476l0,0.476l-0.476,0.953l2.381,1.904l0,-2.857l-0.476,-0.476l0,-1.429ZM473.189,726.592l1.429,0l0.476,0.953l-0.476,0.476l0,0.476l0.476,0.953l-2.381,1.904l0,-2.857l0.476,-0.476l0,-1.429ZM320.106,715.64l-1.905,0c-1.526,1.263 -2.218,2.681 -1.905,4.286c0,0 4.121,-0.935 4.282,-0.953c-0.057,-0.051 0.004,-1.904 0.004,-1.904l-0.476,-0.477l0,-0.952ZM506.523,715.64l1.905,0c1.526,1.263 2.218,2.681 1.905,4.286c0,0 -4.121,-0.935 -4.282,-0.953c0.058,-0.051 -0.004,-1.904 -0.004,-1.904l0.476,-0.477l0,-0.952ZM506.051,718.973c-0.001,0.001 -0.003,0.001 -0.004,0c-0.002,-0.001 0,-0.001 0.004,0ZM320.578,718.973c0.001,0.001 0.003,0.001 0.004,0c0.002,-0.001 0.001,-0.001 -0.004,0ZM413.315,687.068c2.891,0 5.238,3.628 5.238,8.096c0,4.468 -2.347,8.095 -5.238,8.095c-2.891,0 -5.239,-3.627 -5.239,-8.095c0,-4.468 2.348,-8.096 5.239,-8.096ZM415.867,645.505l-5.105,0c-1.745,0.001 -3.162,1.418 -3.162,3.163c0,1.745 1.417,3.162 3.162,3.162l5.105,0c1.745,0 3.162,-1.417 3.162,-3.162c0,-1.745 -1.417,-3.162 -3.162,-3.163Z" style="fill:none;stroke-width:1px;stroke:#000;"/><g><path d="M1223.35,745.393c1.957,-2.962 6.147,-5.204 11.258,-5.908l1.505,-94.802c10.405,3.579 17.836,45.074 13.727,48.555c-0.386,-2.943 -0.93,-5.866 -1.505,-8.778c-0.57,-2.889 -1.204,-5.766 -1.93,-8.62c-0.565,-2.225 -1.809,-4.493 -1.649,-2.176c0.511,7.403 0.889,9.079 0.73,15.753c-0.017,0.686 -0.17,3.026 -0.73,3.821c-0.569,-9.089 -1.268,-17.087 -3.051,-16.015l-1.575,2.288l-0.695,59.778c6.015,0.326 11.075,2.747 13.294,6.086c138.646,0.496 249.193,9.124 249.193,19.68c0,10.874 -117.305,19.702 -261.792,19.702c-144.488,0 -261.793,-8.828 -261.793,-19.702c0,-10.45 108.332,-19.01 245.013,-19.662ZM1215.01,749.434c0.011,0.536 0.053,1.072 0.128,1.603c0.179,1.26 0.537,2.492 1.051,3.655c0.443,1.001 0.999,1.95 1.646,2.832c0.28,0.381 0.576,0.75 0.887,1.105c0.16,0.182 0.321,0.362 0.492,0.534c0.161,0.163 0.331,0.317 0.507,0.464c0.355,0.294 0.739,0.554 1.144,0.775c0.62,0.337 1.289,0.582 1.98,0.724c0.286,0.059 0.576,0.101 0.867,0.124c0.165,0.013 0.331,0.018 0.497,0.023l27.672,0l0.121,-0.004l0.043,-0.001c0.159,-0.005 0.319,-0.015 0.477,-0.031c0.482,-0.049 0.959,-0.146 1.42,-0.291c0.72,-0.226 1.405,-0.566 2.018,-1.004c0.268,-0.192 0.522,-0.401 0.761,-0.627c0.194,-0.183 0.375,-0.38 0.552,-0.579c0.181,-0.204 0.358,-0.411 0.529,-0.623c0.718,-0.89 1.344,-1.857 1.849,-2.884c0.227,-0.462 0.429,-0.936 0.606,-1.419c0.256,-0.704 0.456,-1.428 0.595,-2.164c0.127,-0.679 0.203,-1.368 0.225,-2.059c107.074,1.01 188.985,6.473 188.985,13.053c0,7.296 -100.732,13.22 -224.804,13.22c-124.073,0 -224.804,-5.924 -224.804,-13.22c0,-7.094 95.232,-12.891 214.556,-13.206ZM1222.22,748.27c-1.513,0.043 -2.412,0.106 -2.419,0.192c-0.048,0.59 -0.035,1.185 0.038,1.772c0.061,0.484 0.162,0.962 0.302,1.43c0.265,0.89 0.668,1.735 1.173,2.514c0.285,0.44 0.602,0.858 0.944,1.254c0.065,0.075 0.13,0.149 0.196,0.221c0.063,0.069 0.125,0.138 0.193,0.202c0.119,0.113 0.25,0.213 0.39,0.299c0.28,0.172 0.595,0.285 0.92,0.33c0.145,0.02 0.182,0.017 0.327,0.022l27.52,0c0.146,-0.005 0.183,-0.002 0.327,-0.022c0.38,-0.053 0.745,-0.198 1.057,-0.421c0.089,-0.063 0.174,-0.133 0.254,-0.208c0.039,-0.038 0.076,-0.078 0.115,-0.117l0.036,-0.039c0.212,-0.232 0.415,-0.471 0.609,-0.718c0.402,-0.514 0.76,-1.063 1.062,-1.641c0.393,-0.752 0.689,-1.554 0.864,-2.384c0.143,-0.675 0.205,-1.365 0.184,-2.054c-0.003,-0.096 -0.896,-0.186 -2.402,-0.267c0.015,0.176 0.023,0.353 0.023,0.531c0,1.74 -0.734,3.45 -2.129,4.957l-27.52,0c-1.394,-1.507 -2.128,-3.217 -2.128,-4.957c0,-0.302 0.021,-0.601 0.064,-0.896Z" style="fill:none;stroke-width:1px;stroke:#000;stroke-opacity:0.8;"/></g></g></g><g><path d="M646.403,103.281l19.446,12.605c-3.817,1.764 -9.02,2.944 -16.529,3.151c-1.38,-0.319 -2.761,-0.634 -4.141,-0.944l-17.873,63.594c40.831,-10.436 83.284,-16.961 126.914,-19.143l-17.836,-75.148c-0.991,0.225 -1.982,0.452 -2.974,0.681c-7.508,-0.207 -12.711,-1.387 -16.528,-3.151l19.445,-12.605l10.695,0c0.989,-4.666 3.633,-9.41 6.806,-14.18c5.196,-4.94 12.217,-8.935 21.39,-11.817c1.738,-5.035 3.856,-8.724 6.806,-9.453l0.1,0c-1.261,-1.002 -2.045,-2.397 -2.045,-3.939c0,-2.11 1.876,-5.695 3.658,-8.626c-1.615,-0.841 -2.685,-2.31 -2.685,-3.979c0,-2.609 2.614,-4.727 5.833,-4.727c3.22,0 5.834,2.118 5.834,4.727c0,1.669 -1.071,3.138 -2.686,3.979c1.782,2.931 3.658,6.516 3.658,8.626c0,1.542 -0.783,2.937 -2.045,3.939l0.101,0c2.951,0.73 5.067,4.419 6.806,9.453c9.173,2.882 16.194,6.877 21.39,11.817c3.172,4.769 5.816,9.514 6.805,14.18l10.695,0l19.446,12.605c-3.817,1.764 -9.02,2.944 -16.529,3.151c-1.38,-0.319 -2.761,-0.634 -4.141,-0.944l-21.136,75.203c44.655,1.926 88.097,8.401 129.852,18.962l-17.763,-63.205c-1.381,0.31 -2.761,0.625 -4.142,0.944c-7.508,-0.207 -12.711,-1.387 -16.528,-3.151l19.445,-12.605l10.695,0c0.989,-4.666 3.633,-9.411 6.806,-14.18c5.196,-4.94 12.217,-8.935 21.39,-11.817c1.738,-5.034 3.855,-8.723 6.806,-9.453l0.1,0c-1.262,-1.002 -2.045,-2.397 -2.045,-3.939c0,-2.11 1.876,-5.695 3.658,-8.626c-1.615,-0.841 -2.685,-2.31 -2.685,-3.979c0,-2.609 2.613,-4.727 5.833,-4.727c3.22,0 5.834,2.118 5.834,4.727c0,1.669 -1.071,3.138 -2.686,3.979c1.782,2.931 3.658,6.516 3.658,8.626c0,1.542 -0.783,2.937 -2.045,3.939l0.101,0c2.95,0.73 5.067,4.419 6.805,9.453c9.173,2.882 16.195,6.877 21.39,11.817c3.173,4.769 5.817,9.514 6.806,14.18l10.695,0l19.446,12.605c-3.817,1.764 -9.02,2.944 -16.529,3.151c-0.991,-0.229 -1.983,-0.456 -2.974,-0.681l-18.168,76.55l3.641,1.598c-0.346,1.285 -1.688,2.363 -3.662,3.309c0.102,0.161 0.204,0.323 0.306,0.484c0.218,0.348 0.434,0.696 0.645,1.048l0.073,0.123c41.066,15.219 80.069,34.521 116.49,57.396l-13.298,-47.318c-1.381,0.31 -2.761,0.625 -4.142,0.944c-7.508,-0.207 -12.711,-1.387 -16.528,-3.151l19.445,-12.605l10.695,0c0.989,-4.666 3.633,-9.411 6.806,-14.18c5.196,-4.94 12.217,-8.935 21.39,-11.817c1.738,-5.034 3.855,-8.723 6.806,-9.453l0.1,0c-1.262,-1.002 -2.045,-2.397 -2.045,-3.939c0,-2.11 1.876,-5.695 3.658,-8.626c-1.615,-0.841 -2.686,-2.31 -2.686,-3.979c0,-2.609 2.614,-4.727 5.834,-4.727c3.22,0 5.834,2.118 5.834,4.727c0,1.669 -1.071,3.138 -2.686,3.979c1.782,2.931 3.658,6.516 3.658,8.626c0,1.542 -0.783,2.937 -2.045,3.939l0.1,0c2.951,0.73 5.068,4.419 6.806,9.453c9.173,2.882 16.195,6.877 21.39,11.817c3.173,4.769 5.817,9.514 6.806,14.18l10.695,0l19.446,12.605c-3.817,1.764 -9.02,2.944 -16.529,3.151c-0.991,-0.229 -1.983,-0.456 -2.974,-0.681l-18.168,76.55l3.641,1.598c-0.346,1.285 -1.688,2.363 -3.662,3.309c0.102,0.161 0.204,0.323 0.306,0.484c0.218,0.348 0.434,0.696 0.645,1.048c0.138,0.229 0.274,0.46 0.406,0.693c0.134,0.239 0.266,0.48 0.375,0.732c0.072,0.168 0.134,0.342 0.182,0.519c0.091,0.333 0.137,0.679 0.124,1.024c-0.016,0.414 -0.118,0.824 -0.307,1.193c-0.044,0.085 -0.092,0.168 -0.144,0.248c-0.073,0.115 -0.154,0.224 -0.235,0.334c-0.161,0.221 -0.329,0.437 -0.5,0.651c-0.445,0.557 -0.91,1.098 -1.374,1.639l-0.31,0.358c-0.412,0.476 -0.825,0.951 -1.237,1.427c-0.308,0.356 -0.616,0.711 -0.922,1.069c-0.22,0.257 -0.439,0.516 -0.657,0.775c23.085,18.96 44.749,39.512 64.815,61.484l16.677,-10.811l10.695,0c0.99,-4.666 3.634,-9.411 6.806,-14.18c5.196,-4.94 12.217,-8.935 21.39,-11.817c1.739,-5.034 3.855,-8.723 6.806,-9.454l0.1,0c-1.261,-1.001 -2.044,-2.396 -2.044,-3.939c0,-2.109 1.875,-5.695 3.657,-8.625c-1.614,-0.841 -2.685,-2.31 -2.685,-3.979c0,-2.609 2.614,-4.727 5.834,-4.727c3.219,0 5.833,2.118 5.833,4.727c0,1.669 -1.07,3.138 -2.685,3.979c1.782,2.93 3.657,6.516 3.657,8.625c0,1.543 -0.783,2.938 -2.044,3.939l0.1,0c2.951,0.73 5.068,4.42 6.806,9.454c9.173,2.882 16.194,6.877 21.39,11.817c3.173,4.769 5.817,9.514 6.806,14.18l10.695,0l19.445,12.605c-3.817,1.764 -9.02,2.944 -16.529,3.151c-0.991,-0.229 -1.982,-0.456 -2.973,-0.681l-18.168,76.55l3.641,1.598c-0.346,1.285 -1.689,2.363 -3.663,3.309c0.103,0.161 0.205,0.322 0.306,0.484c0.218,0.347 0.434,0.696 0.645,1.047c0.138,0.23 0.275,0.461 0.406,0.694c0.134,0.239 0.266,0.48 0.375,0.731c0.073,0.169 0.134,0.343 0.183,0.52c0.091,0.333 0.136,0.679 0.123,1.024c-0.015,0.414 -0.118,0.824 -0.307,1.193c-0.043,0.085 -0.091,0.168 -0.143,0.248c-0.074,0.115 -0.155,0.224 -0.235,0.334c-0.162,0.221 -0.33,0.437 -0.5,0.65c-0.446,0.557 -0.91,1.099 -1.375,1.64l-0.309,0.358c-0.412,0.476 -0.825,0.951 -1.237,1.427c-0.308,0.356 -0.617,0.711 -0.922,1.069c-0.363,0.424 -0.724,0.851 -1.081,1.28c-0.531,0.638 -1.054,1.283 -1.559,1.942c-0.337,0.44 -0.667,0.885 -0.985,1.339c-0.307,0.438 -0.601,0.885 -0.874,1.345c-0.205,0.346 -0.4,0.699 -0.561,1.068c-0.228,0.525 -0.372,1.082 -0.486,1.642c-0.133,0.657 -0.221,1.322 -0.285,1.989c-0.099,1.038 -0.14,2.08 -0.147,3.122c-0.004,0.596 0.005,1.192 0.023,1.788c0.013,0.425 0.03,0.85 0.054,1.274c0.008,0.131 0.018,0.261 0.026,0.392c0.001,0.024 0.006,0.11 0.005,0.128c0,0.074 -0.006,0.148 -0.013,0.222c-0.007,0.069 -0.016,0.138 -0.026,0.207c-0.037,0.248 -0.096,0.491 -0.175,0.729c-0.158,0.475 -0.389,0.922 -0.663,1.34c-0.274,0.418 -0.591,0.807 -0.93,1.173c-0.159,0.172 -0.323,0.339 -0.491,0.503c-0.091,0.088 -0.182,0.178 -0.28,0.259c-0.042,0.035 -0.087,0.069 -0.132,0.1c-0.229,0.159 -0.49,0.27 -0.761,0.332c-0.115,0.026 -0.231,0.043 -0.348,0.053c-0.059,0.004 -0.119,0.005 -0.179,0.007l-1.332,0c14.534,26.578 27.117,54.325 37.564,83.058c0.471,-0.754 0.96,-1.508 1.462,-2.263c5.196,-4.94 12.217,-8.935 21.39,-11.817c1.738,-5.034 3.855,-8.723 6.806,-9.453l0.1,0c-1.261,-1.002 -2.045,-2.397 -2.045,-3.939c0,-2.11 1.876,-5.695 3.658,-8.626c-1.615,-0.841 -2.685,-2.31 -2.685,-3.979c0,-2.609 2.614,-4.727 5.833,-4.727c3.22,0 5.834,2.118 5.834,4.727c0,1.669 -1.071,3.138 -2.686,3.979c1.782,2.931 3.658,6.516 3.658,8.626c0,1.542 -0.783,2.937 -2.045,3.939l0.101,0c2.95,0.73 5.067,4.419 6.806,9.453c9.173,2.882 16.194,6.877 21.39,11.817c3.172,4.769 5.816,9.514 6.805,14.18l10.695,0l19.446,12.605c-3.817,1.764 -9.02,2.944 -16.529,3.151c-0.991,-0.229 -1.982,-0.456 -2.973,-0.681l-18.169,76.55l3.641,1.598c-0.345,1.285 -1.688,2.363 -3.662,3.309c0.102,0.161 0.204,0.323 0.306,0.484c0.218,0.348 0.434,0.696 0.645,1.048c0.138,0.229 0.274,0.46 0.406,0.693c0.134,0.239 0.266,0.48 0.375,0.732c0.073,0.168 0.134,0.342 0.182,0.519c0.092,0.333 0.137,0.679 0.124,1.024c-0.016,0.414 -0.118,0.824 -0.307,1.193c-0.043,0.085 -0.092,0.168 -0.143,0.248c-0.074,0.115 -0.155,0.224 -0.235,0.334c-0.162,0.221 -0.33,0.437 -0.501,0.651c-0.445,0.557 -0.91,1.098 -1.374,1.639l-0.309,0.358c-0.413,0.476 -0.825,0.951 -1.237,1.427c-0.309,0.356 -0.617,0.711 -0.923,1.069c-0.362,0.424 -0.723,0.851 -1.08,1.28c-0.531,0.638 -1.054,1.283 -1.559,1.942c-0.338,0.44 -0.668,0.885 -0.985,1.339c-0.307,0.438 -0.601,0.885 -0.874,1.345c-0.205,0.346 -0.4,0.699 -0.561,1.068c-0.228,0.526 -0.372,1.082 -0.486,1.642c-0.133,0.657 -0.222,1.322 -0.285,1.99c-0.099,1.037 -0.14,2.079 -0.147,3.121c-0.004,0.596 0.004,1.192 0.022,1.788c0.013,0.425 0.031,0.85 0.055,1.274c0.008,0.131 0.018,0.262 0.025,0.392c0.002,0.024 0.006,0.11 0.006,0.128c0,0.074 -0.006,0.148 -0.013,0.222c-0.008,0.069 -0.016,0.138 -0.026,0.207c-0.037,0.248 -0.096,0.492 -0.175,0.729c-0.158,0.475 -0.389,0.923 -0.663,1.34c-0.275,0.418 -0.591,0.807 -0.93,1.173c-0.159,0.172 -0.323,0.34 -0.492,0.503c-0.091,0.088 -0.181,0.178 -0.279,0.259c-0.043,0.035 -0.087,0.069 -0.132,0.1c-0.229,0.159 -0.49,0.27 -0.762,0.332c-0.114,0.026 -0.23,0.044 -0.347,0.053c-0.059,0.004 -0.119,0.005 -0.179,0.007l-21.275,0c2.143,20.586 3.241,41.474 3.241,62.612l-76.08,0c0,-297.214 -247.022,-538.154 -551.74,-538.154c-304.717,0 -551.74,240.94 -551.74,538.154l-76.08,0c0,-21.138 1.098,-42.026 3.242,-62.612l-22.696,0c-0.059,-0.002 -0.119,-0.003 -0.179,-0.007c-0.116,-0.009 -0.233,-0.027 -0.347,-0.053c-0.271,-0.062 -0.532,-0.173 -0.761,-0.332c-0.046,-0.031 -0.09,-0.065 -0.133,-0.1c-0.097,-0.081 -0.188,-0.171 -0.279,-0.259c-0.168,-0.163 -0.332,-0.331 -0.491,-0.503c-0.339,-0.366 -0.656,-0.755 -0.93,-1.173c-0.274,-0.417 -0.505,-0.865 -0.663,-1.34c-0.079,-0.237 -0.138,-0.481 -0.175,-0.729c-0.01,-0.069 -0.019,-0.138 -0.026,-0.207c-0.008,-0.074 -0.013,-0.148 -0.014,-0.222c0,-0.018 0.005,-0.104 0.006,-0.128c0.008,-0.13 0.017,-0.261 0.025,-0.392c0.024,-0.424 0.042,-0.849 0.055,-1.274c0.018,-0.596 0.026,-1.192 0.022,-1.788c-0.006,-1.042 -0.047,-2.084 -0.146,-3.121c-0.064,-0.668 -0.152,-1.333 -0.286,-1.99c-0.114,-0.56 -0.257,-1.116 -0.486,-1.642c-0.16,-0.369 -0.355,-0.722 -0.56,-1.068c-0.273,-0.46 -0.568,-0.907 -0.874,-1.345c-0.318,-0.454 -0.648,-0.899 -0.985,-1.339c-0.506,-0.659 -1.029,-1.304 -1.559,-1.942c-0.358,-0.429 -0.718,-0.856 -1.081,-1.28c-0.305,-0.358 -0.614,-0.713 -0.922,-1.069c-0.412,-0.476 -0.825,-0.951 -1.237,-1.427l-0.31,-0.358c-0.464,-0.541 -0.928,-1.082 -1.374,-1.639c-0.171,-0.214 -0.339,-0.43 -0.5,-0.651c-0.081,-0.11 -0.161,-0.219 -0.235,-0.334c-0.052,-0.08 -0.1,-0.163 -0.144,-0.248c-0.189,-0.369 -0.291,-0.779 -0.307,-1.193c-0.013,-0.345 0.033,-0.691 0.124,-1.024c0.049,-0.177 0.11,-0.351 0.183,-0.519c0.108,-0.252 0.24,-0.493 0.375,-0.732c0.131,-0.233 0.267,-0.464 0.405,-0.693c0.211,-0.352 0.428,-0.7 0.645,-1.048c0.102,-0.161 0.204,-0.323 0.306,-0.484c-1.974,-0.946 -3.316,-2.024 -3.662,-3.309l3.641,-1.598l-18.168,-76.55c-0.991,0.225 -1.982,0.452 -2.974,0.681c-7.508,-0.207 -12.711,-1.387 -16.528,-3.151l19.445,-12.605l10.695,0c0.989,-4.666 3.633,-9.41 6.806,-14.18c5.196,-4.94 12.217,-8.935 21.39,-11.817c1.738,-5.035 3.855,-8.724 6.806,-9.453l0.1,0c-1.262,-1.002 -2.045,-2.397 -2.045,-3.939c0,-2.11 1.876,-5.695 3.658,-8.626c-1.615,-0.841 -2.685,-2.31 -2.685,-3.979c0,-2.609 2.613,-4.727 5.833,-4.727c3.22,0 5.834,2.118 5.834,4.727c0,1.669 -1.071,3.138 -2.686,3.979c1.782,2.931 3.658,6.516 3.658,8.626c0,1.542 -0.783,2.937 -2.045,3.939l0.101,0c2.95,0.73 5.067,4.419 6.805,9.453c9.173,2.882 16.195,6.877 21.39,11.817c0.827,1.243 1.619,2.485 2.354,3.724c10.55,-29.254 23.312,-57.49 38.093,-84.519l-2.753,0c-0.06,-0.002 -0.119,-0.003 -0.179,-0.007c-0.117,-0.01 -0.233,-0.027 -0.347,-0.053c-0.272,-0.062 -0.532,-0.173 -0.761,-0.332c-0.046,-0.031 -0.09,-0.065 -0.133,-0.1c-0.098,-0.081 -0.188,-0.171 -0.279,-0.259c-0.168,-0.164 -0.333,-0.331 -0.492,-0.503c-0.339,-0.366 -0.655,-0.755 -0.929,-1.173c-0.274,-0.418 -0.506,-0.865 -0.663,-1.34c-0.079,-0.238 -0.139,-0.481 -0.175,-0.729c-0.011,-0.069 -0.019,-0.138 -0.026,-0.207c-0.008,-0.074 -0.014,-0.148 -0.014,-0.222c0,-0.018 0.005,-0.104 0.006,-0.128c0.007,-0.131 0.017,-0.261 0.025,-0.392c0.024,-0.424 0.042,-0.849 0.055,-1.274c0.018,-0.596 0.026,-1.192 0.022,-1.788c-0.006,-1.042 -0.047,-2.084 -0.146,-3.122c-0.064,-0.667 -0.153,-1.332 -0.286,-1.989c-0.114,-0.56 -0.257,-1.117 -0.486,-1.642c-0.161,-0.369 -0.356,-0.722 -0.561,-1.068c-0.272,-0.46 -0.567,-0.907 -0.874,-1.345c-0.317,-0.454 -0.647,-0.899 -0.985,-1.339c-0.505,-0.659 -1.028,-1.304 -1.559,-1.942c-0.357,-0.429 -0.717,-0.856 -1.08,-1.28c-0.306,-0.358 -0.614,-0.713 -0.922,-1.069c-0.413,-0.476 -0.825,-0.951 -1.237,-1.427l-0.31,-0.358c-0.464,-0.541 -0.929,-1.083 -1.374,-1.64c-0.171,-0.213 -0.339,-0.429 -0.5,-0.65c-0.081,-0.11 -0.162,-0.219 -0.236,-0.334c-0.051,-0.08 -0.099,-0.163 -0.143,-0.248c-0.189,-0.369 -0.291,-0.779 -0.307,-1.193c-0.013,-0.345 0.033,-0.691 0.124,-1.024c0.048,-0.177 0.11,-0.351 0.182,-0.52c0.109,-0.251 0.241,-0.492 0.375,-0.731c0.132,-0.233 0.268,-0.464 0.406,-0.694c0.211,-0.351 0.427,-0.7 0.645,-1.047c0.102,-0.162 0.204,-0.323 0.306,-0.484c-1.974,-0.946 -3.316,-2.024 -3.662,-3.309l3.641,-1.598l-18.168,-76.55c-0.991,0.225 -1.983,0.452 -2.974,0.681c-7.509,-0.207 -12.712,-1.387 -16.529,-3.151l19.446,-12.605l10.695,0c0.989,-4.666 3.633,-9.411 6.806,-14.18c5.195,-4.94 12.217,-8.935 21.39,-11.817c1.738,-5.035 3.855,-8.724 6.806,-9.454l0.1,0c-1.262,-1.001 -2.045,-2.396 -2.045,-3.939c0,-2.109 1.876,-5.695 3.658,-8.625c-1.615,-0.841 -2.686,-2.31 -2.686,-3.979c0,-2.609 2.614,-4.727 5.834,-4.727c3.22,0 5.834,2.118 5.834,4.727c0,1.669 -1.071,3.138 -2.686,3.979c1.782,2.93 3.658,6.516 3.658,8.625c0,1.543 -0.783,2.938 -2.045,3.939l0.1,0c2.951,0.731 5.068,4.42 6.806,9.454c9.173,2.882 16.194,6.877 21.39,11.817c3.173,4.769 5.817,9.514 6.806,14.18l10.695,0l17.57,11.39c19.97,-21.923 41.529,-42.437 64.501,-61.37l-0.155,-0.188c-0.357,-0.429 -0.718,-0.856 -1.081,-1.28c-0.305,-0.358 -0.614,-0.713 -0.922,-1.069c-0.412,-0.476 -0.825,-0.951 -1.237,-1.427l-0.309,-0.358c-0.465,-0.541 -0.929,-1.082 -1.375,-1.639c-0.17,-0.214 -0.338,-0.43 -0.5,-0.651c-0.08,-0.11 -0.161,-0.219 -0.235,-0.334c-0.052,-0.08 -0.1,-0.163 -0.143,-0.248c-0.19,-0.369 -0.292,-0.779 -0.307,-1.193c-0.013,-0.345 0.032,-0.691 0.123,-1.024c0.049,-0.177 0.11,-0.351 0.183,-0.519c0.109,-0.252 0.241,-0.493 0.375,-0.732c0.131,-0.233 0.268,-0.464 0.406,-0.693c0.211,-0.352 0.427,-0.7 0.645,-1.048c0.101,-0.161 0.203,-0.323 0.306,-0.484c-1.974,-0.946 -3.317,-2.024 -3.663,-3.309l3.641,-1.598l-18.168,-76.55c-0.991,0.225 -1.982,0.452 -2.974,0.681c-7.508,-0.207 -12.711,-1.387 -16.528,-3.151l19.445,-12.605l10.695,0c0.989,-4.666 3.633,-9.41 6.806,-14.18c5.196,-4.94 12.217,-8.935 21.39,-11.817c1.738,-5.035 3.856,-8.724 6.806,-9.453l0.1,0c-1.261,-1.002 -2.045,-2.397 -2.045,-3.939c0,-2.11 1.876,-5.695 3.658,-8.626c-1.615,-0.841 -2.685,-2.31 -2.685,-3.979c0,-2.609 2.614,-4.727 5.833,-4.727c3.22,0 5.834,2.118 5.834,4.727c0,1.669 -1.071,3.138 -2.686,3.979c1.782,2.931 3.658,6.516 3.658,8.626c0,1.542 -0.783,2.937 -2.044,3.939l0.1,0c2.951,0.73 5.067,4.419 6.806,9.453c9.173,2.882 16.194,6.877 21.39,11.817c3.172,4.769 5.816,9.514 6.805,14.18l10.695,0l19.446,12.605c-3.817,1.764 -9.02,2.944 -16.529,3.151c-1.38,-0.319 -2.761,-0.634 -4.141,-0.944l-13.605,48.406c36.38,-23.013 75.356,-42.454 116.406,-57.81c0.019,-0.035 0.039,-0.069 0.058,-0.104c0.131,-0.233 0.268,-0.464 0.406,-0.693c0.211,-0.352 0.427,-0.7 0.645,-1.048c0.101,-0.161 0.203,-0.323 0.306,-0.484c-1.974,-0.946 -3.317,-2.024 -3.663,-3.309l3.641,-1.598l-18.168,-76.55c-0.991,0.225 -1.982,0.452 -2.974,0.681c-7.508,-0.207 -12.711,-1.387 -16.528,-3.151l19.445,-12.605l10.695,0c0.989,-4.666 3.633,-9.41 6.806,-14.18c5.196,-4.94 12.217,-8.935 21.39,-11.817c1.738,-5.035 3.856,-8.724 6.806,-9.453l0.1,0c-1.261,-1.002 -2.045,-2.397 -2.045,-3.939c0,-2.11 1.876,-5.695 3.658,-8.626c-1.615,-0.841 -2.685,-2.31 -2.685,-3.979c0,-2.609 2.614,-4.727 5.833,-4.727c3.22,0 5.834,2.118 5.834,4.727c0,1.669 -1.071,3.138 -2.686,3.979c1.782,2.931 3.658,6.516 3.658,8.626c0,1.542 -0.783,2.937 -2.045,3.939l0.101,0c2.951,0.73 5.067,4.419 6.806,9.453c9.173,2.882 16.194,6.877 21.39,11.817c3.172,4.769 5.816,9.514 6.805,14.18l10.695,0ZM198.928,581.293c-0.731,-3.45 -2.367,-6.942 -4.452,-10.456c-2.508,6.955 -4.891,13.968 -7.147,21.035l0.377,0.066l-14.829,79.164l-3.754,0l2.371,-18.857c-1.963,9.481 -3.701,19.041 -5.209,28.675l10.281,-0.43l5.483,-0.437c0.127,0.202 0.253,0.405 0.378,0.609c0.192,0.315 0.382,0.631 0.562,0.953c0.045,0.08 0.089,0.16 0.132,0.241c0.026,0.048 0.05,0.096 0.072,0.145c0.021,0.047 0.039,0.095 0.051,0.145l-0.012,0.017c-0.252,0.34 -0.517,0.671 -0.787,0.997c-0.307,0.372 -0.622,0.738 -0.936,1.105c-0.149,0.173 -0.299,0.347 -0.449,0.52c-0.351,0.406 -0.703,0.811 -1.055,1.215c-0.202,0.232 -0.404,0.464 -0.604,0.697c-0.522,0.607 -1.04,1.216 -1.551,1.832c-0.666,0.803 -1.32,1.616 -1.944,2.451c-0.242,0.323 -0.478,0.649 -0.709,0.978c-0.324,0.464 -0.637,0.936 -0.93,1.42c-0.397,0.656 -0.763,1.337 -1.029,2.058c-0.218,0.59 -0.375,1.202 -0.5,1.818c-0.169,0.829 -0.277,1.669 -0.351,2.511c-0.106,1.198 -0.145,2.401 -0.143,3.604c0.002,0.792 0.02,1.583 0.057,2.374c0.007,0.125 0.013,0.25 0.02,0.374c0.009,0.138 0.017,0.275 0.027,0.413l-0.002,0.01c-0.018,0.108 -0.052,0.212 -0.094,0.313c-0.039,0.094 -0.086,0.186 -0.137,0.274c-0.169,0.291 -0.378,0.554 -0.602,0.804l-8.826,0c-0.13,1.182 -0.257,2.364 -0.38,3.547l10.172,0c0.06,-0.002 0.12,-0.003 0.179,-0.007c0.117,-0.009 0.233,-0.027 0.347,-0.053c0.257,-0.059 0.504,-0.161 0.724,-0.306c0.059,-0.039 0.116,-0.081 0.171,-0.127c0.097,-0.081 0.187,-0.17 0.278,-0.258c0.181,-0.176 0.358,-0.356 0.528,-0.542c0.361,-0.395 0.696,-0.815 0.98,-1.269c0.246,-0.394 0.452,-0.814 0.593,-1.256c0.036,-0.113 0.068,-0.228 0.095,-0.343c0.032,-0.138 0.057,-0.277 0.075,-0.418c0.015,-0.114 0.027,-0.23 0.028,-0.346c0,-0.024 -0.002,-0.049 -0.003,-0.073l-0.003,-0.055c-0.006,-0.1 -0.013,-0.2 -0.02,-0.3c-0.007,-0.124 -0.014,-0.248 -0.021,-0.372c-0.015,-0.298 -0.026,-0.596 -0.036,-0.894c-0.023,-0.729 -0.032,-1.457 -0.022,-2.186c0.011,-0.899 0.049,-1.798 0.131,-2.693c0.065,-0.711 0.156,-1.42 0.298,-2.12c0.084,-0.414 0.184,-0.827 0.324,-1.227c0.049,-0.14 0.103,-0.279 0.162,-0.415c0.172,-0.397 0.385,-0.774 0.606,-1.144c0.325,-0.544 0.682,-1.068 1.051,-1.583c0.896,-1.247 1.87,-2.435 2.859,-3.608c0.181,-0.213 0.362,-0.426 0.543,-0.639c0.153,-0.178 0.306,-0.356 0.46,-0.534c0.669,-0.774 1.34,-1.546 2.009,-2.32c0.464,-0.541 0.929,-1.082 1.374,-1.64c0.171,-0.213 0.339,-0.429 0.5,-0.65c0.087,-0.118 0.174,-0.236 0.253,-0.361c0.045,-0.071 0.087,-0.145 0.126,-0.221c0.189,-0.369 0.291,-0.779 0.307,-1.193c0.013,-0.345 -0.033,-0.691 -0.124,-1.024c-0.053,-0.193 -0.121,-0.382 -0.202,-0.565c-0.105,-0.235 -0.229,-0.462 -0.356,-0.686c-0.066,-0.118 -0.134,-0.235 -0.202,-0.352l0.77,-0.061c1.57,-0.849 2.341,-1.702 1.945,-2.56c0.114,-0.209 -1.171,-0.977 -3.031,-1.899l22.224,-79.073c1.38,0.31 2.76,0.625 4.141,0.944c7.509,-0.207 12.712,-1.387 16.529,-3.151l-19.446,-12.605l-10.695,0ZM1400.84,707.931c-0.223,-0.25 -0.433,-0.514 -0.602,-0.804c-0.051,-0.088 -0.097,-0.18 -0.137,-0.274c-0.042,-0.101 -0.075,-0.205 -0.094,-0.313l-0.001,-0.01c0.009,-0.138 0.018,-0.275 0.026,-0.413c0.007,-0.124 0.014,-0.249 0.02,-0.374c0.037,-0.791 0.055,-1.582 0.057,-2.374c0.003,-1.203 -0.037,-2.406 -0.142,-3.604c-0.075,-0.842 -0.183,-1.682 -0.351,-2.511c-0.126,-0.616 -0.283,-1.228 -0.501,-1.818c-0.266,-0.721 -0.632,-1.402 -1.029,-2.058c-0.293,-0.484 -0.605,-0.956 -0.93,-1.42c-0.23,-0.329 -0.467,-0.655 -0.708,-0.978c-0.625,-0.835 -1.279,-1.648 -1.945,-2.451c-0.511,-0.616 -1.029,-1.225 -1.551,-1.832c-0.2,-0.233 -0.402,-0.465 -0.603,-0.697c-0.352,-0.404 -0.704,-0.809 -1.055,-1.215c-0.15,-0.173 -0.3,-0.347 -0.45,-0.52c-0.314,-0.367 -0.628,-0.733 -0.936,-1.105c-0.269,-0.326 -0.534,-0.657 -0.786,-0.997l-0.012,-0.017c0.011,-0.05 0.03,-0.098 0.05,-0.145c0.022,-0.049 0.047,-0.097 0.072,-0.145c0.043,-0.081 0.087,-0.161 0.132,-0.241c0.181,-0.322 0.371,-0.638 0.563,-0.953c0.124,-0.204 0.25,-0.407 0.377,-0.609l5.483,0.437l11.71,0.49c-2.307,-14.754 -5.154,-29.334 -8.521,-43.722l4.254,33.844l-3.753,0l-14.83,-79.164c0.575,-0.101 1.149,-0.2 1.723,-0.298c-2.391,-7.484 -4.926,-14.906 -7.601,-22.264c-2.506,4.006 -4.511,7.99 -5.344,11.917l-10.695,0l-19.445,12.605c3.817,1.764 9.02,2.944 16.528,3.151c1.381,-0.319 2.762,-0.634 4.142,-0.944l22.223,79.073c-1.86,0.922 -3.145,1.69 -3.03,1.899c-0.397,0.858 0.374,1.711 1.944,2.56l0.77,0.061c-0.068,0.117 -0.136,0.234 -0.202,0.352c-0.126,0.224 -0.25,0.451 -0.355,0.686c-0.082,0.183 -0.15,0.372 -0.203,0.565c-0.091,0.333 -0.137,0.679 -0.123,1.024c0.015,0.414 0.118,0.824 0.307,1.193c0.038,0.076 0.081,0.15 0.126,0.221c0.078,0.125 0.165,0.243 0.252,0.361c0.162,0.221 0.33,0.437 0.5,0.65c0.446,0.558 0.91,1.099 1.375,1.64c0.668,0.774 1.34,1.546 2.009,2.32c0.153,0.178 0.306,0.356 0.459,0.534c0.182,0.213 0.362,0.426 0.543,0.639c0.99,1.173 1.964,2.361 2.859,3.608c0.37,0.515 0.726,1.039 1.051,1.583c0.222,0.37 0.434,0.747 0.606,1.144c0.059,0.136 0.114,0.275 0.163,0.415c0.139,0.4 0.239,0.813 0.323,1.227c0.143,0.7 0.233,1.409 0.298,2.12c0.082,0.895 0.12,1.794 0.132,2.693c0.009,0.729 0.001,1.457 -0.023,2.186c-0.009,0.298 -0.021,0.596 -0.036,0.894c-0.006,0.124 -0.013,0.248 -0.021,0.372c-0.006,0.1 -0.014,0.2 -0.02,0.3l-0.003,0.055c-0.001,0.024 -0.003,0.049 -0.003,0.073c0.001,0.116 0.014,0.232 0.029,0.346c0.018,0.141 0.042,0.28 0.074,0.418c0.027,0.115 0.059,0.23 0.095,0.343c0.141,0.442 0.348,0.862 0.594,1.256c0.283,0.454 0.618,0.874 0.979,1.269c0.171,0.186 0.347,0.366 0.528,0.542c0.091,0.088 0.182,0.177 0.279,0.258c0.054,0.046 0.112,0.088 0.171,0.127c0.219,0.145 0.467,0.247 0.723,0.306c0.114,0.026 0.231,0.044 0.348,0.053c0.059,0.004 0.119,0.005 0.178,0.007l11.593,0c-0.123,-1.183 -0.25,-2.365 -0.38,-3.547l-10.247,0ZM1407.49,680.98c1.396,8.922 2.594,17.907 3.59,26.951l3.16,0l0,-26.669l-6.75,-0.282ZM166.285,680.92l-8.178,0.342l0,26.669l4.58,0c0.998,-9.064 2.199,-18.069 3.598,-27.011ZM130.53,679.282c-0.05,0.079 -0.1,0.157 -0.15,0.235c-0.276,0.434 -0.55,0.869 -0.816,1.309c-0.158,0.261 -0.314,0.523 -0.463,0.789c-0.045,0.08 -0.089,0.16 -0.132,0.241c-0.046,0.086 -0.091,0.174 -0.117,0.268c-0.002,0.008 -0.002,0.008 -0.005,0.017l-0.001,0.005c0.041,0.056 0.082,0.111 0.124,0.166c0.308,0.408 0.633,0.802 0.963,1.192c0.362,0.43 0.73,0.856 1.097,1.281c0.502,0.58 1.006,1.158 1.508,1.737l0.151,0.175c0.238,0.277 0.475,0.555 0.711,0.832c0.451,0.531 0.898,1.065 1.337,1.605c0.691,0.848 1.365,1.711 2,2.603c0.42,0.589 0.823,1.192 1.191,1.816c0.284,0.482 0.55,0.976 0.769,1.492c0.277,0.652 0.469,1.337 0.618,2.029c0.19,0.888 0.309,1.788 0.388,2.691c0.109,1.236 0.148,2.477 0.142,3.717c-0.004,1.004 -0.033,2.008 -0.1,3.01l-0.003,0.037c0.017,0.106 0.049,0.207 0.089,0.306c0.038,0.094 0.084,0.186 0.134,0.274c0.162,0.286 0.368,0.545 0.584,0.791l0.028,0.031l13.406,0l0,-26.674l-19.225,-0.767c-1.489,-0.386 -2.915,-0.785 -4.228,-1.208ZM1431.77,707.931l0.027,-0.031c0.217,-0.246 0.422,-0.505 0.584,-0.791c0.051,-0.088 0.096,-0.18 0.135,-0.274c0.04,-0.099 0.071,-0.2 0.088,-0.306l-0.003,-0.037c-0.067,-1.002 -0.096,-2.006 -0.1,-3.01c-0.005,-1.24 0.033,-2.481 0.142,-3.717c0.08,-0.903 0.198,-1.803 0.389,-2.691c0.148,-0.692 0.34,-1.377 0.617,-2.029c0.22,-0.516 0.486,-1.01 0.77,-1.492c0.367,-0.624 0.771,-1.227 1.191,-1.816c0.634,-0.892 1.308,-1.755 1.999,-2.603c0.44,-0.54 0.886,-1.074 1.337,-1.605c0.237,-0.277 0.474,-0.555 0.711,-0.832l0.151,-0.175c0.502,-0.579 1.006,-1.157 1.508,-1.737c0.368,-0.425 0.735,-0.851 1.098,-1.281c0.329,-0.39 0.655,-0.784 0.963,-1.192c0.041,-0.055 0.083,-0.11 0.123,-0.166l-0.001,-0.005c-0.002,-0.009 -0.002,-0.009 -0.004,-0.017c-0.027,-0.094 -0.072,-0.182 -0.118,-0.268c-0.043,-0.081 -0.086,-0.161 -0.131,-0.241c-0.15,-0.266 -0.306,-0.528 -0.464,-0.789c-0.266,-0.44 -0.539,-0.875 -0.816,-1.309c-0.05,-0.078 -0.1,-0.156 -0.15,-0.235c-1.312,0.423 -2.738,0.822 -4.228,1.208l-19.225,0.767l0,26.674l13.407,0ZM1378.7,593.027l14.802,79.016c-1.269,0.453 -2.669,1.018 -4.02,1.604l-22.011,-78.32c3.745,-0.814 7.488,-1.584 11.229,-2.3ZM193.648,593.027l-14.801,79.016c1.268,0.453 2.669,1.018 4.019,1.604l22.012,-78.32c-3.745,-0.814 -7.488,-1.584 -11.23,-2.3ZM125.409,592.851c-4.306,0.813 -8.615,1.701 -12.927,2.645l18.108,76.297l4.257,-0.415l-9.438,-78.527ZM1446.94,592.851c4.306,0.813 8.615,1.701 12.926,2.645l-18.108,76.297l-4.256,-0.415l9.438,-78.527ZM138.572,590.747l-0.897,0c-2.959,0.453 -5.92,0.948 -8.882,1.48l9.48,78.875l4.951,0l-4.652,-80.355ZM173.116,590.747l-26.433,0l4.652,80.355l11.68,0l10.101,-80.355ZM1434.67,590.747l-0.897,0l-4.651,80.355l4.95,0l9.48,-78.875c-2.962,-0.532 -5.923,-1.027 -8.882,-1.48ZM1425.67,590.747l-26.432,0l10.1,80.355l11.681,0l4.651,-80.355ZM180.455,590.747l-1.231,0l-7.73,61.498c4.246,-20.515 9.544,-40.657 15.835,-60.373c-2.292,-0.399 -4.583,-0.775 -6.874,-1.125ZM1393.13,590.747l-1.232,0c-1.842,0.282 -3.684,0.58 -5.528,0.893c4.784,14.968 8.994,30.182 12.606,45.618l-5.846,-46.511ZM262.684,486.318c0.06,-0.002 0.119,-0.003 0.178,-0.007c0.117,-0.01 0.234,-0.027 0.348,-0.053c0.256,-0.059 0.504,-0.161 0.724,-0.307c0.059,-0.039 0.116,-0.08 0.17,-0.126c0.098,-0.081 0.188,-0.17 0.279,-0.258c0.181,-0.176 0.358,-0.356 0.528,-0.542c0.361,-0.395 0.696,-0.815 0.98,-1.269c0.245,-0.394 0.452,-0.814 0.593,-1.256c0.036,-0.113 0.068,-0.228 0.095,-0.343c0.032,-0.138 0.056,-0.278 0.075,-0.418c0.014,-0.115 0.027,-0.23 0.028,-0.346c0,-0.024 -0.002,-0.049 -0.003,-0.073l-0.003,-0.055c-0.006,-0.1 -0.014,-0.2 -0.02,-0.3c-0.008,-0.124 -0.015,-0.248 -0.021,-0.372c-0.015,-0.298 -0.026,-0.596 -0.036,-0.894c-0.023,-0.729 -0.032,-1.457 -0.023,-2.186c0.012,-0.899 0.05,-1.798 0.132,-2.693c0.065,-0.711 0.155,-1.42 0.298,-2.12c0.084,-0.414 0.184,-0.827 0.324,-1.227c0.049,-0.14 0.103,-0.279 0.162,-0.415c0.172,-0.397 0.384,-0.774 0.606,-1.145c0.325,-0.543 0.681,-1.068 1.051,-1.582c0.895,-1.247 1.87,-2.435 2.859,-3.608c0.181,-0.213 0.362,-0.426 0.543,-0.639c0.153,-0.179 0.306,-0.357 0.46,-0.535c0.668,-0.773 1.34,-1.545 2.009,-2.319c0.464,-0.541 0.928,-1.083 1.374,-1.64c0.171,-0.213 0.339,-0.429 0.5,-0.65c0.087,-0.118 0.174,-0.237 0.252,-0.361c0.046,-0.072 0.088,-0.145 0.127,-0.221c0.189,-0.369 0.291,-0.779 0.307,-1.193c0.013,-0.345 -0.033,-0.691 -0.124,-1.024c-0.053,-0.193 -0.121,-0.382 -0.203,-0.565c-0.104,-0.235 -0.229,-0.462 -0.355,-0.686c-0.066,-0.118 -0.134,-0.235 -0.202,-0.352l0.77,-0.061c1.57,-0.85 2.341,-1.702 1.944,-2.561c0.115,-0.208 -1.17,-0.976 -3.03,-1.898l14.409,-51.268c-1.962,2.464 -3.905,4.942 -5.829,7.435l-11.889,42.302c-1.35,-0.587 -2.751,-1.151 -4.02,-1.604l4.856,-25.923c-2.833,3.909 -5.62,7.851 -8.361,11.826l-2.465,13.156l-3.753,0l0.614,-4.885c-3.287,4.939 -6.504,9.926 -9.648,14.962l16.477,-0.689l5.483,-0.437c0.127,0.202 0.253,0.405 0.377,0.609c0.192,0.315 0.382,0.631 0.563,0.953c0.045,0.08 0.089,0.16 0.132,0.241c0.025,0.048 0.05,0.096 0.072,0.145c0.021,0.047 0.039,0.095 0.051,0.145l-0.013,0.017c-0.251,0.34 -0.516,0.671 -0.786,0.997c-0.308,0.372 -0.622,0.738 -0.936,1.105c-0.15,0.173 -0.3,0.347 -0.449,0.52c-0.352,0.406 -0.704,0.81 -1.055,1.215c-0.202,0.232 -0.404,0.464 -0.604,0.697c-0.522,0.607 -1.04,1.216 -1.551,1.832c-0.666,0.803 -1.32,1.616 -1.945,2.451c-0.241,0.323 -0.477,0.648 -0.708,0.978c-0.325,0.464 -0.637,0.935 -0.93,1.42c-0.397,0.656 -0.763,1.337 -1.029,2.058c-0.218,0.59 -0.375,1.202 -0.5,1.818c-0.169,0.829 -0.277,1.669 -0.351,2.511c-0.106,1.198 -0.146,2.401 -0.143,3.604c0.002,0.791 0.02,1.583 0.057,2.374c0.006,0.125 0.013,0.249 0.02,0.374c0.008,0.138 0.017,0.275 0.026,0.413l-0.001,0.01c-0.019,0.108 -0.052,0.212 -0.094,0.312c-0.04,0.095 -0.086,0.186 -0.137,0.275c-0.169,0.29 -0.379,0.554 -0.602,0.804l-13.407,0l0,-23.555c-1.389,2.255 -2.763,4.519 -4.123,6.793l0,16.762l-9.664,0c-0.656,1.18 -1.308,2.362 -1.955,3.547l30.115,0ZM1328.16,482.771l0,-19.124c-1.36,-2.251 -2.734,-4.493 -4.123,-6.726l0,25.85l-13.407,0c-0.223,-0.25 -0.433,-0.514 -0.601,-0.804c-0.052,-0.089 -0.098,-0.18 -0.137,-0.275c-0.042,-0.1 -0.076,-0.204 -0.094,-0.312l-0.002,-0.01c0.01,-0.138 0.018,-0.275 0.026,-0.413c0.007,-0.125 0.014,-0.249 0.02,-0.374c0.038,-0.791 0.055,-1.583 0.057,-2.374c0.003,-1.203 -0.037,-2.406 -0.142,-3.604c-0.074,-0.842 -0.182,-1.682 -0.351,-2.511c-0.126,-0.616 -0.282,-1.228 -0.5,-1.818c-0.267,-0.721 -0.633,-1.402 -1.03,-2.058c-0.292,-0.485 -0.605,-0.956 -0.929,-1.42c-0.231,-0.33 -0.468,-0.655 -0.709,-0.978c-0.625,-0.835 -1.279,-1.648 -1.945,-2.451c-0.51,-0.616 -1.029,-1.225 -1.55,-1.832c-0.201,-0.233 -0.403,-0.465 -0.604,-0.697c-0.352,-0.405 -0.704,-0.809 -1.055,-1.215c-0.15,-0.173 -0.3,-0.347 -0.449,-0.52c-0.315,-0.367 -0.629,-0.733 -0.936,-1.105c-0.27,-0.326 -0.535,-0.657 -0.787,-0.997l-0.012,-0.017c0.012,-0.05 0.03,-0.098 0.051,-0.145c0.022,-0.049 0.046,-0.097 0.071,-0.145c0.044,-0.081 0.087,-0.161 0.132,-0.241c0.181,-0.322 0.371,-0.638 0.563,-0.953c0.125,-0.204 0.251,-0.407 0.378,-0.609l5.483,0.437l17.935,0.75c-3.711,-5.946 -7.524,-11.825 -11.435,-17.635l0.942,7.497l-3.753,0l-2.99,-15.961c-2.731,-3.914 -5.507,-7.795 -8.327,-11.643l5.347,28.545c-1.269,0.453 -2.669,1.017 -4.02,1.604l-12.694,-45.169c-1.912,-2.447 -3.842,-4.88 -5.791,-7.299l15.176,53.999c-1.859,0.922 -3.145,1.69 -3.03,1.898c-0.396,0.859 0.375,1.711 1.945,2.561l0.77,0.061c-0.069,0.117 -0.136,0.234 -0.203,0.352c-0.126,0.224 -0.25,0.451 -0.355,0.686c-0.081,0.183 -0.15,0.372 -0.203,0.565c-0.091,0.333 -0.136,0.679 -0.123,1.024c0.015,0.414 0.118,0.824 0.307,1.193c0.039,0.076 0.081,0.149 0.126,0.221c0.078,0.124 0.166,0.243 0.252,0.361c0.162,0.221 0.33,0.437 0.501,0.65c0.445,0.557 0.91,1.099 1.374,1.64c0.669,0.774 1.34,1.546 2.009,2.319c0.153,0.178 0.307,0.356 0.46,0.535c0.181,0.213 0.362,0.426 0.542,0.639c0.99,1.173 1.964,2.361 2.86,3.608c0.369,0.514 0.725,1.039 1.05,1.582c0.222,0.371 0.435,0.748 0.607,1.145c0.059,0.136 0.113,0.275 0.162,0.415c0.14,0.4 0.24,0.813 0.324,1.227c0.142,0.7 0.232,1.409 0.298,2.12c0.081,0.895 0.119,1.794 0.131,2.693c0.01,0.729 0.001,1.457 -0.023,2.186c-0.009,0.298 -0.021,0.596 -0.036,0.894c-0.006,0.124 -0.013,0.248 -0.021,0.372c-0.006,0.1 -0.013,0.2 -0.019,0.3l-0.003,0.055c-0.001,0.024 -0.003,0.049 -0.003,0.073c0,0.116 0.013,0.231 0.028,0.346c0.018,0.14 0.043,0.28 0.075,0.418c0.026,0.115 0.059,0.23 0.095,0.343c0.141,0.442 0.347,0.862 0.593,1.256c0.283,0.454 0.619,0.874 0.98,1.269c0.17,0.186 0.346,0.366 0.528,0.542c0.09,0.088 0.181,0.177 0.278,0.258c0.055,0.046 0.112,0.087 0.171,0.126c0.22,0.146 0.467,0.248 0.723,0.307c0.115,0.026 0.231,0.043 0.348,0.053c0.059,0.004 0.119,0.005 0.179,0.007l31.535,0c-0.648,-1.185 -1.299,-2.367 -1.955,-3.547l-11.085,0ZM244.188,466.009l0,-9.912l-19.225,-0.767c-1.49,-0.386 -2.915,-0.785 -4.228,-1.208c-0.05,0.078 -0.1,0.157 -0.15,0.235c-0.277,0.434 -0.55,0.869 -0.816,1.309c-0.158,0.261 -0.314,0.523 -0.463,0.789c-0.045,0.079 -0.089,0.16 -0.132,0.241c-0.046,0.086 -0.091,0.174 -0.118,0.268c-0.002,0.008 -0.002,0.008 -0.004,0.016l-0.001,0.006c0.04,0.055 0.082,0.11 0.123,0.166c0.308,0.407 0.634,0.801 0.963,1.192c0.363,0.43 0.73,0.856 1.098,1.281c0.502,0.58 1.006,1.158 1.508,1.737l0.151,0.175c0.237,0.277 0.475,0.555 0.711,0.832c0.451,0.531 0.897,1.065 1.337,1.605c0.691,0.848 1.365,1.711 1.999,2.602c0.42,0.59 0.824,1.193 1.191,1.817c0.284,0.482 0.551,0.976 0.77,1.492c0.277,0.652 0.469,1.337 0.618,2.029c0.19,0.887 0.309,1.788 0.388,2.691c0.109,1.236 0.147,2.477 0.142,3.717c-0.004,1.004 -0.033,2.008 -0.1,3.01l-0.003,0.037c0.017,0.105 0.049,0.207 0.089,0.306c0.038,0.094 0.084,0.185 0.134,0.274c0.162,0.286 0.367,0.545 0.584,0.791l0.028,0.031l3.742,0c3.134,-5.641 6.356,-11.229 9.664,-16.762ZM1339.25,482.771l2.322,0l0.028,-0.031c0.216,-0.246 0.422,-0.505 0.584,-0.791c0.05,-0.089 0.096,-0.18 0.134,-0.274c0.04,-0.099 0.072,-0.201 0.088,-0.306l-0.002,-0.037c-0.068,-1.002 -0.096,-2.006 -0.101,-3.01c-0.005,-1.24 0.034,-2.481 0.142,-3.717c0.08,-0.903 0.199,-1.804 0.389,-2.691c0.148,-0.692 0.34,-1.377 0.618,-2.029c0.219,-0.516 0.485,-1.01 0.769,-1.492c0.368,-0.624 0.771,-1.227 1.191,-1.817c0.635,-0.891 1.308,-1.754 1.999,-2.602c0.44,-0.54 0.887,-1.074 1.337,-1.605c0.237,-0.277 0.474,-0.555 0.711,-0.832l0.152,-0.175c0.502,-0.579 1.005,-1.157 1.507,-1.737c0.368,-0.425 0.736,-0.851 1.098,-1.281c0.329,-0.391 0.655,-0.785 0.963,-1.192c0.041,-0.056 0.083,-0.111 0.123,-0.166l-0.001,-0.006c-0.002,-0.008 -0.002,-0.008 -0.004,-0.016c-0.027,-0.094 -0.072,-0.182 -0.117,-0.268c-0.043,-0.081 -0.087,-0.162 -0.132,-0.241c-0.149,-0.266 -0.306,-0.528 -0.463,-0.789c-0.266,-0.44 -0.54,-0.875 -0.816,-1.309c-0.05,-0.078 -0.1,-0.157 -0.151,-0.235c-1.312,0.423 -2.738,0.822 -4.228,1.208l-19.225,0.767l0,7.55c3.809,6.303 7.504,12.679 11.085,19.124ZM248.311,456.102l0,3.114c0.658,-1.068 1.319,-2.134 1.983,-3.197l-1.983,0.083ZM1323.81,456.559l0.225,0.362l0,-0.819l-0.524,-0.022l0.299,0.479ZM215.613,367.691c-4.306,0.813 -8.615,1.7 -12.926,2.644l18.108,76.298l4.256,-0.415l-9.438,-78.527ZM1356.74,367.691c4.306,0.813 8.615,1.7 12.927,2.644l-18.109,76.298l-4.256,-0.415l9.438,-78.527ZM1335.46,365.587l-26.432,0l10.101,80.355l11.68,0l4.651,-80.355ZM1344.47,365.587l-0.897,0l-4.652,80.355l4.95,0l9.48,-78.875c-2.962,-0.532 -5.922,-1.028 -8.881,-1.48ZM263.321,365.587l-26.433,0l4.651,80.355l11.681,0l10.101,-80.355ZM228.777,365.587l-0.897,0c-2.959,0.452 -5.92,0.948 -8.882,1.48l9.48,78.875l4.95,0l-4.651,-80.355ZM270.66,365.587l-1.231,0l-9.487,75.47c1.846,-2.773 3.714,-5.53 5.604,-8.271l12.365,-66.008c-2.418,-0.424 -4.835,-0.822 -7.251,-1.191ZM1302.92,365.587l-1.231,0c-2.417,0.369 -4.834,0.767 -7.252,1.191l11.84,63.203c1.957,2.805 3.891,5.626 5.801,8.464l-9.158,-72.858ZM273.907,420.96c3.611,-4.98 7.296,-9.906 11.053,-14.775l10.123,-36.018c-3.745,-0.814 -7.489,-1.584 -11.23,-2.3l-9.946,53.093ZM1297.95,418.338l-9.455,-50.471c-3.741,0.716 -7.484,1.486 -11.229,2.3l9.317,33.151c3.865,4.948 7.655,9.956 11.367,15.02ZM314.867,370.318c-3.212,0.873 -7.164,1.434 -12.122,1.571c-1.381,-0.32 -2.761,-0.635 -4.142,-0.944l-7.814,27.805c7.737,-9.715 15.767,-19.196 24.078,-28.432ZM1259.3,370.761c7.39,8.228 14.557,16.65 21.493,25.258l-7.047,-25.074c-1.38,0.309 -2.761,0.624 -4.141,0.944c-4.061,-0.112 -7.447,-0.509 -10.305,-1.128ZM1255.85,366.944c1.157,1.268 2.309,2.54 3.456,3.817c-2.426,-0.526 -4.471,-1.213 -6.224,-2.023l2.768,-1.794ZM317.398,367.523l1.875,1.215c-1.296,0.599 -2.753,1.131 -4.406,1.58c0.841,-0.934 1.685,-1.866 2.531,-2.795ZM1158.42,286.543l-0.846,-6.733c-2.223,-1.589 -4.457,-3.164 -6.702,-4.724l1.44,11.457l-3.753,0l-2.806,-14.979c-2.332,-1.587 -4.675,-3.159 -7.03,-4.716l3.866,20.636c-1.269,0.453 -2.67,1.018 -4.02,1.604l-7.684,-27.339c-1.512,-0.967 -3.029,-1.929 -4.55,-2.885l8.925,31.755c-1.86,0.922 -3.145,1.69 -3.03,1.899c-0.397,0.858 0.374,1.711 1.944,2.56l0.77,0.061c-0.068,0.117 -0.136,0.234 -0.202,0.352c-0.126,0.224 -0.251,0.451 -0.355,0.686c-0.082,0.183 -0.15,0.372 -0.203,0.565c-0.091,0.333 -0.137,0.679 -0.124,1.024c0.016,0.414 0.118,0.824 0.307,1.193c0.039,0.076 0.081,0.15 0.127,0.221c0.078,0.125 0.165,0.243 0.252,0.361c0.161,0.221 0.329,0.437 0.5,0.65c0.446,0.558 0.91,1.099 1.374,1.64c0.669,0.774 1.341,1.546 2.009,2.32c0.154,0.178 0.307,0.356 0.46,0.534c0.181,0.213 0.362,0.426 0.543,0.639c0.989,1.173 1.964,2.361 2.859,3.608c0.37,0.515 0.726,1.039 1.051,1.583c0.222,0.37 0.434,0.747 0.606,1.144c0.059,0.136 0.113,0.275 0.162,0.415c0.14,0.4 0.24,0.813 0.324,1.227c0.142,0.7 0.233,1.409 0.298,2.12c0.082,0.895 0.12,1.794 0.132,2.693c0.009,0.729 0,1.457 -0.023,2.186c-0.01,0.298 -0.021,0.596 -0.036,0.894c-0.006,0.124 -0.013,0.248 -0.021,0.372c-0.006,0.1 -0.014,0.2 -0.02,0.3l-0.003,0.055c-0.001,0.024 -0.003,0.049 -0.003,0.073c0.001,0.116 0.013,0.232 0.028,0.346c0.019,0.141 0.043,0.28 0.075,0.418c0.027,0.115 0.059,0.23 0.095,0.343c0.141,0.442 0.348,0.862 0.593,1.256c0.284,0.454 0.619,0.874 0.98,1.269c0.17,0.186 0.347,0.366 0.528,0.542c0.091,0.088 0.181,0.177 0.279,0.258c0.054,0.046 0.111,0.088 0.17,0.127c0.22,0.145 0.468,0.247 0.724,0.306c0.114,0.026 0.231,0.044 0.348,0.053c0.059,0.004 0.118,0.005 0.178,0.007l32.868,0c0.06,-0.002 0.12,-0.003 0.179,-0.007c0.117,-0.009 0.233,-0.027 0.347,-0.053c0.272,-0.062 0.532,-0.173 0.761,-0.332c0.046,-0.031 0.09,-0.065 0.133,-0.1c0.097,-0.081 0.188,-0.171 0.279,-0.259c0.168,-0.163 0.333,-0.331 0.492,-0.503c0.339,-0.366 0.655,-0.755 0.929,-1.173c0.274,-0.417 0.506,-0.865 0.663,-1.34c0.079,-0.237 0.139,-0.481 0.175,-0.729c0.011,-0.069 0.019,-0.138 0.026,-0.207c0.008,-0.074 0.014,-0.148 0.014,-0.222c0,-0.018 -0.005,-0.104 -0.006,-0.128c-0.008,-0.13 -0.017,-0.261 -0.025,-0.392c-0.024,-0.424 -0.042,-0.849 -0.055,-1.274c-0.018,-0.596 -0.026,-1.192 -0.022,-1.788c0.006,-1.042 0.047,-2.084 0.146,-3.121c0.064,-0.668 0.153,-1.333 0.286,-1.99c0.114,-0.56 0.257,-1.116 0.486,-1.642c0.161,-0.369 0.356,-0.722 0.561,-1.068c0.272,-0.46 0.567,-0.907 0.874,-1.345c0.317,-0.454 0.647,-0.899 0.984,-1.339c0.506,-0.659 1.029,-1.304 1.56,-1.942c0.14,-0.169 0.281,-0.337 0.423,-0.505c-1.004,-0.825 -2.011,-1.646 -3.02,-2.465c-0.444,0.523 -0.883,1.049 -1.316,1.58c-0.691,0.848 -1.365,1.711 -1.999,2.603c-0.42,0.589 -0.824,1.192 -1.191,1.816c-0.284,0.482 -0.551,0.976 -0.77,1.492c-0.277,0.652 -0.469,1.337 -0.618,2.029c-0.19,0.888 -0.309,1.788 -0.388,2.691c-0.109,1.236 -0.147,2.477 -0.142,3.717c0.004,1.004 0.033,2.008 0.1,3.01l0.003,0.037c-0.017,0.106 -0.049,0.207 -0.089,0.306c-0.038,0.094 -0.084,0.186 -0.134,0.274c-0.162,0.286 -0.367,0.545 -0.584,0.791l-0.028,0.031l-13.406,0l0,-26.674l12.054,-0.48c-4.186,-3.277 -8.416,-6.502 -12.689,-9.675l-8.397,0ZM423.398,326.919c0.06,-0.002 0.12,-0.003 0.179,-0.007c0.117,-0.009 0.233,-0.027 0.348,-0.053c0.256,-0.059 0.503,-0.161 0.723,-0.306c0.059,-0.039 0.116,-0.081 0.171,-0.127c0.097,-0.081 0.188,-0.17 0.278,-0.258c0.181,-0.176 0.358,-0.356 0.528,-0.542c0.361,-0.395 0.696,-0.815 0.98,-1.269c0.246,-0.394 0.452,-0.814 0.593,-1.256c0.036,-0.113 0.068,-0.228 0.095,-0.343c0.032,-0.138 0.057,-0.277 0.075,-0.418c0.015,-0.114 0.028,-0.23 0.028,-0.346c0,-0.024 -0.002,-0.049 -0.003,-0.073l-0.003,-0.055c-0.006,-0.1 -0.013,-0.2 -0.019,-0.3c-0.008,-0.124 -0.015,-0.248 -0.021,-0.372c-0.015,-0.298 -0.027,-0.596 -0.036,-0.894c-0.024,-0.729 -0.033,-1.457 -0.023,-2.186c0.012,-0.899 0.05,-1.798 0.131,-2.693c0.065,-0.711 0.156,-1.42 0.298,-2.12c0.084,-0.414 0.184,-0.827 0.324,-1.227c0.049,-0.14 0.103,-0.279 0.162,-0.415c0.172,-0.397 0.385,-0.774 0.606,-1.144c0.326,-0.544 0.682,-1.068 1.051,-1.583c0.896,-1.247 1.87,-2.435 2.86,-3.608c0.18,-0.213 0.361,-0.426 0.542,-0.639c0.153,-0.178 0.307,-0.356 0.46,-0.534c0.669,-0.774 1.34,-1.546 2.009,-2.32c0.464,-0.541 0.929,-1.082 1.374,-1.64c0.171,-0.213 0.339,-0.429 0.501,-0.65c0.086,-0.118 0.173,-0.236 0.252,-0.361c0.045,-0.071 0.087,-0.145 0.126,-0.221c0.189,-0.369 0.291,-0.779 0.307,-1.193c0.013,-0.345 -0.032,-0.691 -0.124,-1.024c-0.052,-0.193 -0.121,-0.382 -0.202,-0.565c-0.105,-0.235 -0.229,-0.462 -0.355,-0.686c-0.067,-0.118 -0.134,-0.235 -0.203,-0.352l0.77,-0.061c1.57,-0.849 2.341,-1.702 1.945,-2.56c0.115,-0.209 -1.171,-0.977 -3.03,-1.899l8.618,-30.667c-1.523,0.964 -3.042,1.934 -4.557,2.911l-7.37,26.225c-1.351,-0.586 -2.751,-1.151 -4.02,-1.604l3.664,-19.56c-2.357,1.569 -4.703,3.153 -7.037,4.752l-2.597,13.867l-3.753,0l1.303,-10.372c-2.246,1.572 -4.482,3.158 -6.706,4.758l-0.706,5.614l-6.976,0c-4.297,3.191 -8.55,6.434 -12.759,9.728l10.704,0.427l0,26.674l-13.407,0l-0.028,-0.031c-0.216,-0.246 -0.422,-0.505 -0.584,-0.791c-0.05,-0.088 -0.096,-0.18 -0.134,-0.274c-0.04,-0.099 -0.072,-0.2 -0.088,-0.306l0.002,-0.037c0.068,-1.002 0.096,-2.006 0.101,-3.01c0.005,-1.24 -0.034,-2.481 -0.142,-3.717c-0.08,-0.903 -0.199,-1.803 -0.389,-2.691c-0.148,-0.692 -0.34,-1.377 -0.618,-2.029c-0.219,-0.516 -0.485,-1.01 -0.769,-1.492c-0.368,-0.624 -0.771,-1.227 -1.191,-1.816c-0.635,-0.892 -1.308,-1.755 -1.999,-2.603c-0.245,-0.3 -0.491,-0.598 -0.739,-0.895c-1.009,0.821 -2.015,1.645 -3.019,2.473c0.478,0.577 0.948,1.16 1.404,1.754c0.337,0.44 0.667,0.885 0.985,1.339c0.307,0.438 0.601,0.885 0.874,1.345c0.205,0.346 0.4,0.699 0.56,1.068c0.229,0.526 0.373,1.082 0.486,1.642c0.134,0.657 0.222,1.322 0.286,1.99c0.099,1.037 0.14,2.079 0.147,3.121c0.003,0.596 -0.005,1.192 -0.023,1.788c-0.013,0.425 -0.03,0.85 -0.054,1.274c-0.008,0.131 -0.018,0.262 -0.026,0.392c-0.001,0.024 -0.006,0.11 -0.006,0.128c0.001,0.074 0.006,0.148 0.014,0.222c0.007,0.069 0.016,0.138 0.026,0.207c0.037,0.248 0.096,0.492 0.175,0.729c0.158,0.475 0.389,0.923 0.663,1.34c0.274,0.418 0.591,0.807 0.93,1.173c0.159,0.172 0.323,0.34 0.491,0.503c0.091,0.088 0.182,0.178 0.28,0.259c0.042,0.035 0.086,0.069 0.132,0.1c0.229,0.159 0.49,0.27 0.761,0.332c0.115,0.026 0.231,0.044 0.348,0.053c0.059,0.004 0.119,0.005 0.178,0.007l32.868,0ZM427.485,295.931l-18.459,0.772l0,26.669l13.407,0c0.223,-0.25 0.433,-0.514 0.601,-0.804c0.051,-0.088 0.098,-0.18 0.137,-0.274c0.042,-0.101 0.076,-0.205 0.094,-0.313l0.002,-0.01c-0.01,-0.138 -0.018,-0.275 -0.026,-0.413c-0.007,-0.124 -0.014,-0.249 -0.021,-0.374c-0.037,-0.791 -0.054,-1.582 -0.056,-2.374c-0.003,-1.203 0.037,-2.406 0.142,-3.604c0.074,-0.842 0.182,-1.682 0.351,-2.511c0.125,-0.616 0.282,-1.228 0.5,-1.818c0.267,-0.721 0.632,-1.402 1.03,-2.058c0.292,-0.484 0.605,-0.956 0.929,-1.42c0.231,-0.329 0.468,-0.655 0.709,-0.978c0.625,-0.835 1.279,-1.648 1.944,-2.451c0.511,-0.616 1.03,-1.225 1.551,-1.832c0.201,-0.233 0.402,-0.465 0.604,-0.697c0.352,-0.404 0.704,-0.809 1.055,-1.215c0.15,-0.173 0.3,-0.347 0.449,-0.52c0.315,-0.367 0.629,-0.733 0.936,-1.105c0.27,-0.326 0.535,-0.657 0.787,-0.997l0.012,-0.017c-0.012,-0.05 -0.03,-0.098 -0.051,-0.145c-0.022,-0.049 -0.046,-0.097 -0.072,-0.145c-0.043,-0.081 -0.086,-0.161 -0.131,-0.241c-0.181,-0.322 -0.371,-0.638 -0.563,-0.953c-0.125,-0.204 -0.251,-0.407 -0.378,-0.609l-5.483,0.437ZM1163.33,323.372l0,-26.669l-18.46,-0.772l-5.483,-0.437c-0.127,0.202 -0.253,0.405 -0.377,0.609c-0.192,0.315 -0.382,0.631 -0.563,0.953c-0.045,0.08 -0.089,0.16 -0.132,0.241c-0.025,0.048 -0.05,0.096 -0.072,0.145c-0.021,0.047 -0.039,0.095 -0.051,0.145l0.013,0.017c0.251,0.34 0.516,0.671 0.786,0.997c0.308,0.372 0.622,0.738 0.936,1.105c0.15,0.173 0.3,0.347 0.449,0.52c0.352,0.406 0.704,0.811 1.055,1.215c0.202,0.232 0.404,0.464 0.604,0.697c0.522,0.607 1.04,1.216 1.551,1.832c0.666,0.803 1.32,1.616 1.945,2.451c0.241,0.323 0.477,0.649 0.708,0.978c0.325,0.464 0.637,0.936 0.93,1.42c0.397,0.656 0.763,1.337 1.029,2.058c0.218,0.59 0.375,1.202 0.5,1.818c0.169,0.829 0.277,1.669 0.351,2.511c0.106,1.198 0.146,2.401 0.143,3.604c-0.002,0.792 -0.02,1.583 -0.057,2.374c-0.006,0.125 -0.013,0.25 -0.02,0.374c-0.008,0.138 -0.017,0.275 -0.026,0.413l0.001,0.01c0.019,0.108 0.052,0.212 0.094,0.313c0.04,0.094 0.086,0.186 0.137,0.274c0.169,0.29 0.379,0.554 0.602,0.804l13.407,0ZM394.199,296.271l-8.521,-0.34c-1.49,-0.386 -2.916,-0.785 -4.228,-1.208c-0.051,0.079 -0.101,0.157 -0.151,0.235c-0.276,0.434 -0.55,0.869 -0.816,1.309c-0.158,0.261 -0.314,0.523 -0.463,0.789c-0.045,0.08 -0.089,0.16 -0.132,0.241c-0.045,0.086 -0.091,0.174 -0.117,0.268c-0.002,0.008 -0.002,0.008 -0.004,0.017l-0.002,0.005c0.041,0.056 0.083,0.111 0.124,0.166c0.308,0.408 0.634,0.802 0.963,1.192c0.362,0.43 0.73,0.856 1.098,1.281c0.502,0.58 1.005,1.158 1.507,1.737l0.151,0.175c0.238,0.277 0.475,0.555 0.712,0.832c0.2,0.236 0.4,0.473 0.598,0.71c3.069,-2.498 6.163,-4.967 9.281,-7.409ZM1188.01,302.995l0.021,-0.025c0.236,-0.277 0.474,-0.555 0.711,-0.832l0.151,-0.175c0.502,-0.579 1.006,-1.157 1.508,-1.737c0.368,-0.425 0.735,-0.851 1.098,-1.281c0.329,-0.39 0.655,-0.784 0.963,-1.192c0.041,-0.055 0.083,-0.11 0.123,-0.166l-0.001,-0.005c-0.002,-0.009 -0.002,-0.009 -0.005,-0.017c-0.026,-0.094 -0.071,-0.182 -0.117,-0.268c-0.043,-0.081 -0.087,-0.161 -0.132,-0.241c-0.149,-0.266 -0.305,-0.528 -0.463,-0.789c-0.266,-0.44 -0.539,-0.875 -0.816,-1.309c-0.05,-0.078 -0.1,-0.156 -0.15,-0.235c-1.313,0.423 -2.738,0.822 -4.228,1.208l-7.171,0.287c2.857,2.235 5.693,4.494 8.508,6.777ZM1196.02,208.292c4.306,0.813 8.615,1.701 12.926,2.645l-18.108,76.297l-4.256,-0.415l9.438,-78.527ZM376.328,208.292c-4.306,0.813 -8.615,1.701 -12.927,2.645l18.109,76.297l4.256,-0.415l-9.438,-78.527ZM1174.75,206.188l-26.433,0l9.255,73.622c3.103,2.217 6.184,4.462 9.243,6.733l3.284,0l4.651,-80.355ZM1183.76,206.188l-0.897,0l-4.651,80.355l4.95,0l9.48,-78.875c-2.962,-0.532 -5.923,-1.027 -8.882,-1.48ZM389.491,206.188l-0.897,0c-2.959,0.453 -5.919,0.948 -8.881,1.48l9.479,78.875l4.951,0l-4.652,-80.355ZM424.035,206.188l-26.433,0l4.652,80.355l4.704,0c2.545,-1.89 5.106,-3.761 7.682,-5.614l9.395,-74.741ZM431.374,206.188l-1.231,0l-8.797,69.983c1.677,-1.173 3.359,-2.337 5.047,-3.495l12.232,-65.297c-2.417,-0.424 -4.834,-0.821 -7.251,-1.191ZM1142.21,206.188l-1.231,0c-2.416,0.37 -4.833,0.767 -7.251,1.191l12.024,64.185c1.712,1.166 3.419,2.34 5.119,3.522l-8.661,-68.898ZM433.43,267.924c2.562,-1.705 5.137,-3.392 7.726,-5.061l14.641,-52.095c-3.745,-0.814 -7.488,-1.584 -11.229,-2.3l-11.138,59.456ZM1138.72,266.848l-10.936,-58.38c-3.741,0.716 -7.485,1.486 -11.23,2.3l14.328,50.981c2.627,1.681 5.239,3.381 7.838,5.099ZM995.959,233.466c0.06,-0.002 0.12,-0.003 0.179,-0.007c0.117,-0.009 0.233,-0.027 0.347,-0.053c0.272,-0.062 0.532,-0.173 0.762,-0.332c0.045,-0.031 0.089,-0.065 0.132,-0.1c0.098,-0.081 0.188,-0.171 0.279,-0.259c0.168,-0.163 0.333,-0.331 0.492,-0.503c0.339,-0.366 0.655,-0.755 0.929,-1.173c0.275,-0.417 0.506,-0.865 0.663,-1.34c0.079,-0.237 0.139,-0.481 0.175,-0.729c0.011,-0.069 0.019,-0.138 0.026,-0.207c0.008,-0.074 0.014,-0.148 0.014,-0.222c0,-0.018 -0.004,-0.104 -0.006,-0.128c-0.007,-0.13 -0.017,-0.261 -0.025,-0.392c-0.024,-0.424 -0.042,-0.849 -0.055,-1.274c-0.018,-0.596 -0.026,-1.192 -0.022,-1.788c0.006,-1.042 0.047,-2.084 0.146,-3.121c0.064,-0.668 0.153,-1.333 0.286,-1.99c0.114,-0.56 0.257,-1.116 0.486,-1.642c0.161,-0.369 0.356,-0.722 0.561,-1.068c0.272,-0.46 0.567,-0.907 0.874,-1.345c0.317,-0.454 0.647,-0.899 0.985,-1.339c0.505,-0.659 1.028,-1.304 1.559,-1.942c0.357,-0.429 0.717,-0.856 1.08,-1.28c0.306,-0.358 0.614,-0.713 0.922,-1.069c0.413,-0.476 0.825,-0.951 1.237,-1.427l0.31,-0.358c0.464,-0.541 0.929,-1.082 1.374,-1.639c0.171,-0.214 0.339,-0.43 0.5,-0.651c0.081,-0.11 0.162,-0.219 0.236,-0.334c0.051,-0.08 0.099,-0.163 0.143,-0.248c0.189,-0.369 0.291,-0.779 0.307,-1.193c0.013,-0.345 -0.033,-0.691 -0.124,-1.024c-0.048,-0.177 -0.109,-0.351 -0.182,-0.519c-0.109,-0.252 -0.241,-0.493 -0.375,-0.732c-0.108,-0.191 -0.22,-0.381 -0.333,-0.57c-8.44,-3.129 -16.967,-6.084 -25.577,-8.863l-0.028,0.485l-11.681,0l-0.541,-4.302c-2.109,-0.635 -4.224,-1.258 -6.343,-1.871l0.776,6.173l-3.753,0l-1.39,-7.419c-2.156,-0.607 -4.316,-1.203 -6.481,-1.788l1.901,10.148c-1.269,0.453 -2.67,1.018 -4.02,1.604l-3.739,-13.304c-1.342,-0.349 -2.685,-0.693 -4.03,-1.033l4.46,15.868c-1.86,0.922 -3.145,1.69 -3.03,1.899c-0.397,0.858 0.374,1.711 1.944,2.56l0.77,0.061c-0.068,0.117 -0.136,0.234 -0.202,0.352c-0.126,0.224 -0.251,0.451 -0.355,0.686c-0.082,0.183 -0.15,0.372 -0.203,0.565c-0.091,0.333 -0.137,0.679 -0.124,1.024c0.016,0.414 0.118,0.824 0.308,1.193c0.038,0.076 0.08,0.15 0.126,0.221c0.078,0.125 0.165,0.243 0.252,0.361c0.162,0.221 0.329,0.437 0.5,0.65c0.446,0.558 0.91,1.099 1.375,1.64c0.668,0.774 1.34,1.546 2.008,2.32c0.154,0.178 0.307,0.356 0.46,0.534c0.181,0.213 0.362,0.426 0.543,0.639c0.989,1.173 1.964,2.361 2.859,3.608c0.37,0.515 0.726,1.039 1.051,1.583c0.222,0.37 0.434,0.747 0.606,1.144c0.059,0.136 0.113,0.275 0.162,0.415c0.14,0.4 0.24,0.813 0.324,1.227c0.143,0.7 0.233,1.409 0.298,2.12c0.082,0.895 0.12,1.794 0.132,2.693c0.009,0.729 0,1.457 -0.023,2.186c-0.01,0.298 -0.021,0.596 -0.036,0.894c-0.006,0.124 -0.013,0.248 -0.021,0.372c-0.006,0.1 -0.014,0.2 -0.02,0.3l-0.003,0.055c-0.001,0.024 -0.003,0.049 -0.003,0.073c0.001,0.116 0.014,0.232 0.028,0.346c0.019,0.141 0.043,0.28 0.075,0.418c0.027,0.115 0.059,0.23 0.095,0.343c0.141,0.442 0.348,0.862 0.593,1.256c0.284,0.454 0.619,0.874 0.98,1.269c0.17,0.186 0.347,0.366 0.528,0.542c0.091,0.088 0.181,0.177 0.279,0.258c0.054,0.046 0.111,0.088 0.17,0.127c0.22,0.145 0.468,0.247 0.724,0.306c0.114,0.026 0.231,0.044 0.348,0.053c0.059,0.004 0.119,0.005 0.178,0.007l32.868,0ZM609.259,233.466c0.06,-0.002 0.12,-0.003 0.179,-0.007c0.117,-0.009 0.233,-0.027 0.347,-0.053c0.257,-0.059 0.504,-0.161 0.724,-0.306c0.059,-0.039 0.116,-0.081 0.171,-0.127c0.097,-0.081 0.188,-0.17 0.278,-0.258c0.181,-0.176 0.358,-0.356 0.528,-0.542c0.361,-0.395 0.696,-0.815 0.98,-1.269c0.246,-0.394 0.452,-0.814 0.593,-1.256c0.036,-0.113 0.068,-0.228 0.095,-0.343c0.032,-0.138 0.057,-0.277 0.075,-0.418c0.015,-0.114 0.028,-0.23 0.028,-0.346c0,-0.024 -0.002,-0.049 -0.003,-0.073l-0.003,-0.055c-0.006,-0.1 -0.013,-0.2 -0.019,-0.3c-0.008,-0.124 -0.015,-0.248 -0.021,-0.372c-0.015,-0.298 -0.027,-0.596 -0.037,-0.894c-0.023,-0.729 -0.032,-1.457 -0.022,-2.186c0.012,-0.899 0.049,-1.798 0.131,-2.693c0.065,-0.711 0.156,-1.42 0.298,-2.12c0.084,-0.414 0.184,-0.827 0.324,-1.227c0.049,-0.14 0.103,-0.279 0.162,-0.415c0.172,-0.397 0.385,-0.774 0.606,-1.144c0.326,-0.544 0.682,-1.068 1.051,-1.583c0.896,-1.247 1.87,-2.435 2.86,-3.608c0.18,-0.213 0.361,-0.426 0.542,-0.639c0.153,-0.178 0.307,-0.356 0.46,-0.534c0.669,-0.774 1.34,-1.546 2.009,-2.32c0.464,-0.541 0.929,-1.082 1.374,-1.64c0.171,-0.213 0.339,-0.429 0.501,-0.65c0.086,-0.118 0.173,-0.236 0.252,-0.361c0.045,-0.071 0.087,-0.145 0.126,-0.221c0.189,-0.369 0.291,-0.779 0.307,-1.193c0.013,-0.345 -0.033,-0.691 -0.124,-1.024c-0.053,-0.193 -0.121,-0.382 -0.202,-0.565c-0.105,-0.235 -0.229,-0.462 -0.355,-0.686c-0.067,-0.118 -0.134,-0.235 -0.203,-0.352l0.77,-0.061c1.57,-0.849 2.341,-1.702 1.945,-2.56c0.115,-0.209 -1.171,-0.977 -3.03,-1.899l4.35,-15.479c-1.346,0.344 -2.69,0.692 -4.033,1.044l-3.626,12.904c-1.351,-0.586 -2.752,-1.151 -4.02,-1.604l1.825,-9.742c-2.167,0.591 -4.328,1.193 -6.485,1.806l-1.31,6.995l-3.754,0l0.723,-5.745c-2.12,0.619 -4.235,1.248 -6.346,1.888l-0.485,3.857l-11.68,0l-0.002,-0.034c-8.752,2.848 -17.418,5.877 -25.994,9.086c-0.114,0.205 -0.224,0.412 -0.317,0.628c-0.073,0.168 -0.134,0.342 -0.183,0.519c-0.091,0.333 -0.137,0.679 -0.124,1.024c0.016,0.414 0.118,0.824 0.308,1.193c0.043,0.085 0.091,0.168 0.143,0.248c0.074,0.115 0.155,0.224 0.235,0.334c0.162,0.221 0.329,0.437 0.5,0.651c0.446,0.557 0.91,1.098 1.375,1.639l0.309,0.358c0.412,0.476 0.825,0.951 1.237,1.427c0.308,0.356 0.617,0.711 0.922,1.069c0.363,0.424 0.723,0.851 1.081,1.28c0.531,0.638 1.054,1.283 1.559,1.942c0.337,0.44 0.667,0.885 0.985,1.339c0.307,0.438 0.601,0.885 0.874,1.345c0.205,0.346 0.4,0.699 0.56,1.068c0.229,0.526 0.373,1.082 0.486,1.642c0.134,0.657 0.222,1.322 0.286,1.99c0.099,1.037 0.14,2.079 0.147,3.121c0.003,0.596 -0.005,1.192 -0.023,1.788c-0.013,0.425 -0.03,0.85 -0.054,1.274c-0.008,0.131 -0.018,0.262 -0.026,0.392c-0.001,0.024 -0.006,0.11 -0.006,0.128c0.001,0.074 0.006,0.148 0.014,0.222c0.007,0.069 0.016,0.138 0.026,0.207c0.037,0.248 0.096,0.492 0.175,0.729c0.158,0.475 0.389,0.923 0.663,1.34c0.274,0.418 0.591,0.807 0.93,1.173c0.159,0.172 0.323,0.34 0.491,0.503c0.091,0.088 0.182,0.178 0.28,0.259c0.042,0.035 0.086,0.069 0.132,0.1c0.229,0.159 0.49,0.27 0.761,0.332c0.114,0.026 0.231,0.044 0.348,0.053c0.059,0.004 0.119,0.005 0.178,0.007l32.868,0ZM567.311,201.27c-0.051,0.079 -0.101,0.157 -0.151,0.235c-0.276,0.434 -0.55,0.869 -0.816,1.309c-0.158,0.261 -0.314,0.523 -0.463,0.789c-0.045,0.08 -0.089,0.16 -0.132,0.241c-0.045,0.086 -0.091,0.174 -0.117,0.268c-0.002,0.008 -0.002,0.008 -0.004,0.017l-0.002,0.005c0.041,0.056 0.082,0.111 0.124,0.166c0.308,0.408 0.634,0.802 0.963,1.192c0.362,0.43 0.73,0.856 1.098,1.281c0.501,0.58 1.005,1.158 1.507,1.737l0.151,0.175c0.238,0.277 0.475,0.555 0.712,0.832c0.45,0.531 0.897,1.065 1.336,1.605c0.692,0.848 1.365,1.711 2,2.603c0.42,0.589 0.823,1.192 1.191,1.816c0.284,0.482 0.55,0.976 0.769,1.492c0.278,0.652 0.47,1.337 0.618,2.029c0.19,0.888 0.309,1.788 0.389,2.691c0.108,1.236 0.147,2.477 0.142,3.717c-0.005,1.004 -0.033,2.008 -0.101,3.01l-0.002,0.037c0.016,0.106 0.048,0.207 0.088,0.306c0.038,0.094 0.084,0.186 0.134,0.274c0.162,0.286 0.368,0.545 0.584,0.791l0.028,0.031l13.407,0l0,-26.674l-19.225,-0.767c-1.49,-0.386 -2.916,-0.785 -4.228,-1.208ZM994.993,229.919l0.028,-0.031c0.217,-0.246 0.422,-0.505 0.584,-0.791c0.05,-0.088 0.096,-0.18 0.134,-0.274c0.04,-0.099 0.072,-0.2 0.089,-0.306l-0.003,-0.037c-0.067,-1.002 -0.096,-2.006 -0.1,-3.01c-0.005,-1.24 0.033,-2.481 0.142,-3.717c0.079,-0.903 0.198,-1.803 0.388,-2.691c0.149,-0.692 0.341,-1.377 0.618,-2.029c0.219,-0.516 0.486,-1.01 0.77,-1.492c0.367,-0.624 0.771,-1.227 1.191,-1.816c0.634,-0.892 1.308,-1.755 1.999,-2.603c0.44,-0.54 0.886,-1.074 1.337,-1.605c0.237,-0.277 0.474,-0.555 0.711,-0.832l0.151,-0.175c0.502,-0.579 1.006,-1.157 1.508,-1.737c0.368,-0.425 0.735,-0.851 1.098,-1.281c0.329,-0.39 0.655,-0.784 0.963,-1.192c0.041,-0.055 0.083,-0.11 0.123,-0.166l-0.001,-0.005c-0.002,-0.009 -0.002,-0.009 -0.004,-0.017c-0.027,-0.094 -0.072,-0.182 -0.118,-0.268c-0.043,-0.081 -0.087,-0.161 -0.131,-0.241c-0.15,-0.266 -0.306,-0.528 -0.464,-0.789c-0.266,-0.44 -0.539,-0.875 -0.816,-1.309c-0.05,-0.078 -0.1,-0.156 -0.15,-0.235c-1.313,0.423 -2.738,0.822 -4.228,1.208l-19.225,0.767l0,26.674l13.406,0ZM977.464,229.919l0,-26.669l-18.46,-0.772l-5.483,-0.437c-0.127,0.202 -0.253,0.405 -0.377,0.609c-0.192,0.315 -0.382,0.631 -0.563,0.953c-0.045,0.08 -0.089,0.16 -0.132,0.241c-0.025,0.048 -0.05,0.096 -0.072,0.145c-0.021,0.047 -0.039,0.095 -0.051,0.145l0.013,0.017c0.251,0.34 0.516,0.671 0.786,0.997c0.308,0.372 0.622,0.738 0.936,1.105c0.15,0.173 0.3,0.347 0.45,0.52c0.351,0.406 0.703,0.81 1.054,1.215c0.202,0.232 0.404,0.464 0.604,0.697c0.522,0.607 1.04,1.216 1.551,1.832c0.666,0.803 1.32,1.616 1.945,2.451c0.241,0.323 0.477,0.649 0.708,0.978c0.325,0.464 0.637,0.936 0.93,1.42c0.397,0.656 0.763,1.337 1.029,2.058c0.218,0.59 0.375,1.202 0.5,1.818c0.169,0.829 0.277,1.669 0.351,2.511c0.106,1.198 0.146,2.401 0.143,3.604c-0.002,0.792 -0.02,1.583 -0.057,2.374c-0.006,0.125 -0.013,0.25 -0.02,0.374c-0.008,0.138 -0.017,0.275 -0.026,0.413l0.001,0.01c0.019,0.108 0.052,0.212 0.094,0.313c0.04,0.094 0.086,0.185 0.137,0.274c0.169,0.29 0.379,0.554 0.602,0.804l13.407,0ZM613.346,202.478l-18.459,0.772l0,26.669l13.406,0c0.224,-0.25 0.434,-0.514 0.602,-0.804c0.051,-0.089 0.098,-0.18 0.137,-0.274c0.042,-0.101 0.076,-0.205 0.094,-0.313l0.002,-0.01c-0.01,-0.138 -0.018,-0.275 -0.027,-0.413c-0.007,-0.124 -0.013,-0.249 -0.02,-0.374c-0.037,-0.791 -0.055,-1.582 -0.056,-2.374c-0.003,-1.203 0.037,-2.406 0.142,-3.604c0.074,-0.842 0.182,-1.682 0.351,-2.511c0.125,-0.616 0.282,-1.228 0.5,-1.818c0.267,-0.721 0.632,-1.402 1.029,-2.058c0.293,-0.484 0.606,-0.956 0.93,-1.42c0.231,-0.329 0.468,-0.655 0.709,-0.978c0.625,-0.835 1.278,-1.648 1.944,-2.451c0.511,-0.616 1.029,-1.225 1.551,-1.832c0.201,-0.233 0.402,-0.465 0.604,-0.697c0.352,-0.405 0.704,-0.809 1.055,-1.215c0.15,-0.173 0.3,-0.347 0.449,-0.52c0.315,-0.367 0.629,-0.733 0.936,-1.105c0.27,-0.326 0.535,-0.657 0.787,-0.997l0.012,-0.017c-0.012,-0.05 -0.03,-0.098 -0.051,-0.145c-0.022,-0.049 -0.046,-0.097 -0.072,-0.145c-0.043,-0.081 -0.086,-0.161 -0.131,-0.241c-0.181,-0.322 -0.371,-0.638 -0.563,-0.953c-0.125,-0.204 -0.251,-0.407 -0.378,-0.609l-5.483,0.437ZM800.299,202.506c0.06,-0.002 0.12,-0.003 0.179,-0.007c0.117,-0.009 0.233,-0.027 0.347,-0.053c0.257,-0.059 0.504,-0.161 0.724,-0.306c0.059,-0.039 0.116,-0.081 0.171,-0.127c0.097,-0.081 0.188,-0.17 0.278,-0.258c0.181,-0.176 0.358,-0.356 0.528,-0.542c0.361,-0.395 0.696,-0.815 0.98,-1.269c0.246,-0.394 0.452,-0.814 0.593,-1.256c0.036,-0.113 0.068,-0.228 0.095,-0.343c0.032,-0.138 0.057,-0.277 0.075,-0.418c0.015,-0.114 0.028,-0.23 0.028,-0.346c0,-0.024 -0.002,-0.049 -0.003,-0.073l-0.003,-0.055c-0.006,-0.1 -0.013,-0.2 -0.019,-0.3c-0.008,-0.124 -0.015,-0.248 -0.021,-0.372c-0.015,-0.298 -0.027,-0.596 -0.037,-0.894c-0.023,-0.729 -0.032,-1.457 -0.022,-2.186c0.012,-0.899 0.049,-1.798 0.131,-2.693c0.065,-0.711 0.156,-1.42 0.298,-2.12c0.084,-0.414 0.184,-0.827 0.324,-1.227c0.049,-0.14 0.103,-0.279 0.162,-0.415c0.172,-0.397 0.385,-0.774 0.606,-1.144c0.326,-0.544 0.682,-1.068 1.051,-1.583c0.896,-1.247 1.87,-2.435 2.86,-3.608c0.18,-0.213 0.361,-0.426 0.542,-0.639c0.153,-0.178 0.307,-0.356 0.46,-0.534c0.669,-0.774 1.34,-1.546 2.009,-2.32c0.464,-0.541 0.929,-1.082 1.374,-1.64c0.171,-0.213 0.339,-0.429 0.501,-0.65c0.086,-0.118 0.173,-0.236 0.252,-0.361c0.045,-0.071 0.087,-0.145 0.126,-0.221c0.189,-0.369 0.291,-0.779 0.307,-1.193c0.013,-0.345 -0.033,-0.691 -0.124,-1.024c-0.053,-0.193 -0.121,-0.382 -0.202,-0.565c-0.105,-0.235 -0.229,-0.462 -0.355,-0.686c-0.067,-0.118 -0.134,-0.235 -0.203,-0.352l0.77,-0.061c1.57,-0.849 2.341,-1.702 1.945,-2.56c0.115,-0.209 -1.171,-0.977 -3.03,-1.899l1.087,-3.87c-1.231,-0.053 -2.464,-0.102 -3.697,-0.148l-0.699,2.487c-1.351,-0.586 -2.752,-1.151 -4.02,-1.604l0.194,-1.037c-2.036,-0.062 -4.075,-0.115 -6.117,-0.158l-0.047,0.254l-3.754,0l0.041,-0.323c-2.031,-0.031 -4.064,-0.053 -6.1,-0.065l-0.049,0.388l-11.68,0l-0.021,-0.354c-2.705,0.031 -5.406,0.08 -8.102,0.145l0.012,0.209l-4.951,0l-0.008,-0.07c-1.149,0.036 -2.298,0.076 -3.446,0.118l0.028,0.228l-4.256,0.415l-0.111,-0.468c-1.362,0.06 -2.722,0.123 -4.08,0.191l0.332,1.402l-3.641,1.598c0.346,1.285 1.689,2.363 3.663,3.309c-0.103,0.161 -0.205,0.323 -0.306,0.484c-0.218,0.348 -0.434,0.696 -0.645,1.048c-0.138,0.229 -0.275,0.46 -0.406,0.693c-0.134,0.239 -0.267,0.48 -0.375,0.732c-0.073,0.168 -0.134,0.342 -0.183,0.519c-0.091,0.333 -0.137,0.679 -0.124,1.024c0.016,0.414 0.118,0.824 0.308,1.193c0.043,0.085 0.091,0.168 0.143,0.248c0.074,0.115 0.155,0.224 0.235,0.334c0.162,0.221 0.329,0.437 0.5,0.651c0.446,0.557 0.91,1.098 1.375,1.639l0.309,0.358c0.412,0.476 0.825,0.951 1.237,1.427c0.308,0.356 0.617,0.711 0.922,1.069c0.363,0.424 0.723,0.851 1.081,1.28c0.531,0.638 1.054,1.283 1.559,1.942c0.337,0.44 0.667,0.885 0.985,1.339c0.307,0.438 0.601,0.885 0.874,1.345c0.205,0.346 0.4,0.699 0.56,1.068c0.229,0.526 0.373,1.082 0.486,1.642c0.134,0.657 0.222,1.322 0.286,1.99c0.099,1.037 0.14,2.079 0.147,3.121c0.003,0.596 -0.005,1.192 -0.023,1.788c-0.013,0.425 -0.03,0.85 -0.054,1.274c-0.008,0.131 -0.018,0.262 -0.026,0.392c-0.001,0.024 -0.006,0.11 -0.006,0.128c0.001,0.074 0.006,0.148 0.014,0.222c0.007,0.069 0.016,0.138 0.026,0.207c0.037,0.248 0.096,0.492 0.175,0.729c0.158,0.475 0.389,0.923 0.663,1.34c0.274,0.418 0.591,0.807 0.93,1.173c0.159,0.172 0.323,0.34 0.491,0.503c0.091,0.088 0.182,0.178 0.28,0.259c0.042,0.035 0.086,0.069 0.132,0.1c0.229,0.159 0.49,0.27 0.761,0.332c0.114,0.026 0.231,0.044 0.348,0.053c0.059,0.004 0.119,0.005 0.178,0.007l32.868,0ZM758.351,170.31c-0.051,0.079 -0.101,0.157 -0.151,0.235c-0.276,0.434 -0.55,0.869 -0.816,1.309c-0.158,0.261 -0.314,0.523 -0.463,0.789c-0.045,0.08 -0.089,0.16 -0.132,0.241c-0.045,0.086 -0.091,0.174 -0.117,0.268c-0.002,0.008 -0.002,0.008 -0.004,0.017l-0.002,0.005c0.041,0.056 0.082,0.111 0.124,0.166c0.308,0.408 0.634,0.802 0.963,1.192c0.362,0.43 0.73,0.856 1.098,1.281c0.501,0.58 1.005,1.158 1.507,1.737l0.151,0.175c0.238,0.277 0.475,0.555 0.712,0.832c0.45,0.531 0.897,1.065 1.336,1.605c0.692,0.848 1.365,1.711 2,2.603c0.42,0.589 0.823,1.192 1.191,1.816c0.284,0.482 0.55,0.976 0.769,1.492c0.278,0.652 0.47,1.337 0.618,2.029c0.19,0.888 0.309,1.788 0.389,2.691c0.108,1.236 0.147,2.477 0.142,3.717c-0.005,1.004 -0.033,2.008 -0.101,3.01l-0.002,0.037c0.016,0.106 0.048,0.207 0.088,0.306c0.038,0.094 0.084,0.186 0.134,0.274c0.162,0.286 0.368,0.545 0.584,0.791l0.028,0.031l13.407,0l0,-26.674l-19.225,-0.767c-1.49,-0.386 -2.916,-0.785 -4.228,-1.208ZM804.386,171.518l-18.459,0.772l0,26.669l13.406,0c0.224,-0.25 0.434,-0.514 0.602,-0.804c0.051,-0.089 0.098,-0.18 0.137,-0.274c0.042,-0.101 0.076,-0.205 0.094,-0.313l0.002,-0.01c-0.01,-0.138 -0.018,-0.275 -0.027,-0.413c-0.007,-0.124 -0.013,-0.249 -0.02,-0.374c-0.037,-0.791 -0.055,-1.582 -0.056,-2.374c-0.003,-1.203 0.037,-2.406 0.142,-3.604c0.074,-0.842 0.182,-1.682 0.351,-2.511c0.125,-0.616 0.282,-1.228 0.5,-1.818c0.267,-0.721 0.632,-1.402 1.029,-2.058c0.293,-0.484 0.606,-0.956 0.93,-1.42c0.231,-0.329 0.468,-0.655 0.709,-0.978c0.625,-0.835 1.278,-1.648 1.944,-2.451c0.511,-0.616 1.029,-1.225 1.551,-1.832c0.201,-0.233 0.402,-0.465 0.604,-0.697c0.352,-0.405 0.704,-0.809 1.055,-1.215c0.15,-0.173 0.3,-0.347 0.449,-0.52c0.315,-0.367 0.629,-0.733 0.936,-1.105c0.27,-0.326 0.535,-0.657 0.787,-0.997l0.012,-0.017c-0.012,-0.05 -0.03,-0.098 -0.051,-0.145c-0.022,-0.049 -0.046,-0.097 -0.072,-0.145c-0.043,-0.081 -0.086,-0.161 -0.131,-0.241c-0.181,-0.322 -0.371,-0.638 -0.563,-0.953c-0.125,-0.204 -0.251,-0.407 -0.378,-0.609l-5.483,0.437ZM1010.16,114.839c4.306,0.813 8.615,1.701 12.926,2.644l-18.108,76.298l-4.256,-0.415l9.438,-78.527ZM562.189,114.839c-4.306,0.813 -8.615,1.701 -12.927,2.644l18.109,76.298l4.256,-0.415l-9.438,-78.527ZM997.895,112.735l-0.897,0l-4.651,80.355l4.95,0l9.48,-78.875c-2.962,-0.532 -5.923,-1.027 -8.882,-1.48ZM575.352,112.735l-0.897,0c-2.959,0.453 -5.919,0.948 -8.881,1.48l9.479,78.875l4.951,0l-4.652,-80.355ZM609.896,112.735l-26.433,0l4.65,80.321c4.038,-1.313 8.093,-2.588 12.167,-3.823l9.616,-76.498ZM988.887,112.735l-26.433,0l9.56,76.053c4.101,1.232 8.185,2.505 12.25,3.817l4.623,-79.87ZM617.235,112.735l-1.231,0l-9.378,74.61c1.445,-0.422 2.892,-0.838 4.341,-1.25l13.519,-72.169c-2.418,-0.424 -4.835,-0.821 -7.251,-1.191ZM956.346,112.735l-1.231,0c-2.416,0.37 -4.833,0.767 -7.251,1.191l13.44,71.745c1.458,0.41 2.913,0.826 4.367,1.246l-9.325,-74.182ZM617.452,184.289c1.936,-0.528 3.877,-1.047 5.821,-1.558l18.385,-65.416c-3.745,-0.814 -7.488,-1.584 -11.229,-2.3l-12.977,69.274ZM954.823,183.883l-12.901,-68.868c-3.741,0.716 -7.484,1.486 -11.23,2.3l18.273,65.016c1.956,0.508 3.909,1.026 5.858,1.552ZM762.639,162.178l-9.41,-78.299c-4.306,0.813 -8.615,1.701 -12.927,2.644l17.998,75.83c1.445,-0.063 2.891,-0.121 4.339,-0.175ZM806.861,162.034c1.51,0.046 3.018,0.097 4.525,0.154l21.312,-75.833c-3.745,-0.814 -7.488,-1.584 -11.229,-2.3l-14.608,77.979ZM766.392,81.775l-0.897,0c-2.959,0.453 -5.919,0.948 -8.881,1.48l9.471,78.805c1.647,-0.053 3.296,-0.099 4.947,-0.139l-4.64,-80.146ZM808.275,81.775l-1.231,0l-10.06,80.032c1.254,0.02 2.508,0.043 3.76,0.069l14.782,-78.91c-2.418,-0.424 -4.835,-0.821 -7.251,-1.191ZM800.936,81.775l-26.433,0l4.631,80.001c2.58,-0.031 5.164,-0.046 7.751,-0.046c1.334,0 2.667,0.004 3.999,0.012l10.052,-79.967Z" style="fill:none;stroke-width:1px;stroke:#000;"/><rect x="159.12" y="773.85" width="1255.68" height="48.89" style="fill:none;stroke-width:1px;stroke-linecap:butt;stroke:#000;"/></g><g transform="matrix(0.24,0,0,0.24,-135.01,-40.8)"><text x="5414px" y="464.536px" style="font-family:Arial;font-size:211.552px;fill:none;stroke-width:4.17px;stroke-linecap:butt;stroke:#000;">Augustusplatz</text><text x="6072.52px" y="683.009px" style="font-family:Arial;font-size:211.552px;fill:none;stroke-width:4.17px;stroke-linecap:butt;stroke:#000;">Leipzig</text></g></g></svg>